  0
SECTION
  2
HEADER
  9
$ACADVER
  1
AC1024
  9
$ACADMAINTVER
 70
6
  9
$DWGCODEPAGE
  3
ANSI_1252
  9
$LASTSAVEDBY
  1
ezdxf
  9
$INSBASE
 10
0.0
 20
0.0
 30
0.0
  9
$EXTMIN
 10
1e+20
 20
1e+20
 30
1e+20
  9
$EXTMAX
 10
-1e+20
 20
-1e+20
 30
-1e+20
  9
$LIMMIN
 10
0.0
 20
0.0
  9
$LIMMAX
 10
420.0
 20
297.0
  9
$ORTHOMODE
 70
0
  9
$REGENMODE
 70
1
  9
$FILLMODE
 70
1
  9
$QTEXTMODE
 70
0
  9
$MIRRTEXT
 70
1
  9
$LTSCALE
 40
1.0
  9
$ATTMODE
 70
1
  9
$TEXTSIZE
 40
2.5
  9
$TRACEWID
 40
1.0
  9
$TEXTSTYLE
  7
Standard
  9
$CLAYER
  8
0
  9
$CELTYPE
  6
ByLayer
  9
$CECOLOR
 62
256
  9
$CELTSCALE
 40
1.0
  9
$DISPSILH
 70
0
  9
$DIMSCALE
 40
1.0
  9
$DIMASZ
 40
2.5
  9
$DIMEXO
 40
0.625
  9
$DIMDLI
 40
3.75
  9
$DIMRND
 40
0.0
  9
$DIMDLE
 40
0.0
  9
$DIMEXE
 40
1.25
  9
$DIMTP
 40
0.0
  9
$DIMTM
 40
0.0
  9
$DIMTXT
 40
2.5
  9
$DIMCEN
 40
2.5
  9
$DIMTSZ
 40
0.0
  9
$DIMTOL
 70
0
  9
$DIMLIM
 70
0
  9
$DIMTIH
 70
0
  9
$DIMTOH
 70
0
  9
$DIMSE1
 70
0
  9
$DIMSE2
 70
0
  9
$DIMTAD
 70
1
  9
$DIMZIN
 70
8
  9
$DIMBLK
  1

  9
$DIMASO
 70
1
  9
$DIMSHO
 70
1
  9
$DIMPOST
  1

  9
$DIMAPOST
  1

  9
$DIMALT
 70
0
  9
$DIMALTD
 70
3
  9
$DIMALTF
 40
0.03937007874
  9
$DIMLFAC
 40
1.0
  9
$DIMTOFL
 70
1
  9
$DIMTVP
 40
0.0
  9
$DIMTIX
 70
0
  9
$DIMSOXD
 70
0
  9
$DIMSAH
 70
0
  9
$DIMBLK1
  1

  9
$DIMBLK2
  1

  9
$DIMSTYLE
  2
ISO-25
  9
$DIMCLRD
 70
0
  9
$DIMCLRE
 70
0
  9
$DIMCLRT
 70
0
  9
$DIMTFAC
 40
1.0
  9
$DIMGAP
 40
0.625
  9
$DIMJUST
 70
0
  9
$DIMSD1
 70
0
  9
$DIMSD2
 70
0
  9
$DIMTOLJ
 70
0
  9
$DIMTZIN
 70
8
  9
$DIMALTZ
 70
0
  9
$DIMALTTZ
 70
0
  9
$DIMUPT
 70
0
  9
$DIMDEC
 70
2
  9
$DIMTDEC
 70
2
  9
$DIMALTU
 70
2
  9
$DIMALTTD
 70
3
  9
$DIMTXSTY
  7
Standard
  9
$DIMAUNIT
 70
0
  9
$DIMADEC
 70
0
  9
$DIMALTRND
 40
0.0
  9
$DIMAZIN
 70
0
  9
$DIMDSEP
 70
44
  9
$DIMATFIT
 70
3
  9
$DIMFRAC
 70
0
  9
$DIMLDRBLK
  1

  9
$DIMLUNIT
 70
2
  9
$DIMLWD
 70
-2
  9
$DIMLWE
 70
-2
  9
$DIMTMOVE
 70
0
  9
$DIMFXL
 40
1.0
  9
$DIMFXLON
 70
0
  9
$DIMJOGANG
 40
0.785398163397
  9
$DIMTFILL
 70
0
  9
$DIMTFILLCLR
 70
0
  9
$DIMARCSYM
 70
0
  9
$DIMLTYPE
  6

  9
$DIMLTEX1
  6

  9
$DIMLTEX2
  6

  9
$DIMTXTDIRECTION
 70
0
  9
$LUNITS
 70
2
  9
$LUPREC
 70
4
  9
$SKETCHINC
 40
1.0
  9
$FILLETRAD
 40
10.0
  9
$AUNITS
 70
0
  9
$AUPREC
 70
2
  9
$MENU
  1
.
  9
$ELEVATION
 40
0.0
  9
$PELEVATION
 40
0.0
  9
$THICKNESS
 40
0.0
  9
$LIMCHECK
 70
0
  9
$CHAMFERA
 40
0.0
  9
$CHAMFERB
 40
0.0
  9
$CHAMFERC
 40
0.0
  9
$CHAMFERD
 40
0.0
  9
$SKPOLY
 70
0
  9
$TDCREATE
 40
2460747.5970717594
  9
$TDUCREATE
 40
2458532.153996898
  9
$TDUPDATE
 40
2460747.5970717594
  9
$TDUUPDATE
 40
2458532.1544311
  9
$TDINDWG
 40
0.0
  9
$TDUSRTIMER
 40
0.0
  9
$USRTIMER
 70
1
  9
$ANGBASE
 50
0.0
  9
$ANGDIR
 70
0
  9
$PDMODE
 70
0
  9
$PDSIZE
 40
0.0
  9
$PLINEWID
 40
0.0
  9
$SPLFRAME
 70
0
  9
$SPLINETYPE
 70
6
  9
$SPLINESEGS
 70
8
  9
$HANDSEED
  5
3A
  9
$SURFTAB1
 70
6
  9
$SURFTAB2
 70
6
  9
$SURFTYPE
 70
6
  9
$SURFU
 70
6
  9
$SURFV
 70
6
  9
$UCSBASE
  2

  9
$UCSNAME
  2

  9
$UCSORG
 10
0.0
 20
0.0
 30
0.0
  9
$UCSXDIR
 10
1.0
 20
0.0
 30
0.0
  9
$UCSYDIR
 10
0.0
 20
1.0
 30
0.0
  9
$UCSORTHOREF
  2

  9
$UCSORTHOVIEW
 70
0
  9
$UCSORGTOP
 10
0.0
 20
0.0
 30
0.0
  9
$UCSORGBOTTOM
 10
0.0
 20
0.0
 30
0.0
  9
$UCSORGLEFT
 10
0.0
 20
0.0
 30
0.0
  9
$UCSORGRIGHT
 10
0.0
 20
0.0
 30
0.0
  9
$UCSORGFRONT
 10
0.0
 20
0.0
 30
0.0
  9
$UCSORGBACK
 10
0.0
 20
0.0
 30
0.0
  9
$PUCSBASE
  2

  9
$PUCSNAME
  2

  9
$PUCSORG
 10
0.0
 20
0.0
 30
0.0
  9
$PUCSXDIR
 10
1.0
 20
0.0
 30
0.0
  9
$PUCSYDIR
 10
0.0
 20
1.0
 30
0.0
  9
$PUCSORTHOREF
  2

  9
$PUCSORTHOVIEW
 70
0
  9
$PUCSORGTOP
 10
0.0
 20
0.0
 30
0.0
  9
$PUCSORGBOTTOM
 10
0.0
 20
0.0
 30
0.0
  9
$PUCSORGLEFT
 10
0.0
 20
0.0
 30
0.0
  9
$PUCSORGRIGHT
 10
0.0
 20
0.0
 30
0.0
  9
$PUCSORGFRONT
 10
0.0
 20
0.0
 30
0.0
  9
$PUCSORGBACK
 10
0.0
 20
0.0
 30
0.0
  9
$USERI1
 70
0
  9
$USERI2
 70
0
  9
$USERI3
 70
0
  9
$USERI4
 70
0
  9
$USERI5
 70
0
  9
$USERR1
 40
0.0
  9
$USERR2
 40
0.0
  9
$USERR3
 40
0.0
  9
$USERR4
 40
0.0
  9
$USERR5
 40
0.0
  9
$WORLDVIEW
 70
1
  9
$SHADEDGE
 70
3
  9
$SHADEDIF
 70
70
  9
$TILEMODE
 70
1
  9
$MAXACTVP
 70
64
  9
$PINSBASE
 10
0.0
 20
0.0
 30
0.0
  9
$PLIMCHECK
 70
0
  9
$PEXTMIN
 10
1e+20
 20
1e+20
 30
1e+20
  9
$PEXTMAX
 10
-1e+20
 20
-1e+20
 30
-1e+20
  9
$PLIMMIN
 10
0.0
 20
0.0
  9
$PLIMMAX
 10
420.0
 20
297.0
  9
$UNITMODE
 70
0
  9
$VISRETAIN
 70
1
  9
$PLINEGEN
 70
0
  9
$PSLTSCALE
 70
1
  9
$TREEDEPTH
 70
3020
  9
$CMLSTYLE
  2
Standard
  9
$CMLJUST
 70
0
  9
$CMLSCALE
 40
20.0
  9
$PROXYGRAPHICS
 70
1
  9
$MEASUREMENT
 70
1
  9
$CELWEIGHT
370
-1
  9
$ENDCAPS
280
0
  9
$JOINSTYLE
280
0
  9
$LWDISPLAY
290
0
  9
$INSUNITS
 70
6
  9
$HYPERLINKBASE
  1

  9
$STYLESHEET
  1

  9
$XEDIT
290
1
  9
$CEPSNTYPE
380
0
  9
$PSTYLEMODE
290
1
  9
$FINGERPRINTGUID
  2
{E25BB328-79EC-4A9F-B758-6A8D0117A655}
  9
$VERSIONGUID
  2
{0DBDB355-7239-49DE-967A-C4639CE07658}
  9
$EXTNAMES
290
1
  9
$PSVPSCALE
 40
0.0
  9
$OLESTARTUP
290
0
  9
$SORTENTS
280
127
  9
$INDEXCTL
280
0
  9
$HIDETEXT
280
1
  9
$XCLIPFRAME
280
1
  9
$HALOGAP
280
0
  9
$OBSCOLOR
 70
257
  9
$OBSLTYPE
280
0
  9
$INTERSECTIONDISPLAY
280
0
  9
$INTERSECTIONCOLOR
 70
257
  9
$DIMASSOC
280
2
  9
$PROJECTNAME
  1

  9
$CAMERADISPLAY
290
0
  9
$LENSLENGTH
 40
50.0
  9
$CAMERAHEIGHT
 40
0.0
  9
$STEPSPERSEC
 40
24.0
  9
$STEPSIZE
 40
100.0
  9
$3DDWFPREC
 40
2.0
  9
$PSOLWIDTH
 40
0.005
  9
$PSOLHEIGHT
 40
0.08
  9
$LOFTANG1
 40
1.570796326795
  9
$LOFTANG2
 40
1.570796326795
  9
$LOFTMAG1
 40
0.0
  9
$LOFTMAG2
 40
0.0
  9
$LOFTPARAM
 70
7
  9
$LOFTNORMALS
280
1
  9
$LATITUDE
 40
37.795
  9
$LONGITUDE
 40
-122.394
  9
$NORTHDIRECTION
 40
0.0
  9
$TIMEZONE
 70
-8000
  9
$LIGHTGLYPHDISPLAY
280
1
  9
$TILEMODELIGHTSYNCH
280
1
  9
$CMATERIAL
347
20
  9
$SOLIDHIST
280
0
  9
$SHOWHIST
280
1
  9
$DWFFRAME
280
2
  9
$DGNFRAME
280
2
  9
$REALWORLDSCALE
290
1
  9
$INTERFERECOLOR
 62
256
  9
$CSHADOW
280
0
  9
$SHADOWPLANELOCATION
 40
0.0
  0
ENDSEC
  0
SECTION
  2
CLASSES
  0
CLASS
  1
ACDBDICTIONARYWDFLT
  2
AcDbDictionaryWithDefault
  3
ObjectDBX Classes
 90
0
 91
0
280
0
281
0
  0
CLASS
  1
SUN
  2
AcDbSun
  3
SCENEOE
 90
1153
 91
0
280
0
281
0
  0
CLASS
  1
VISUALSTYLE
  2
AcDbVisualStyle
  3
ObjectDBX Classes
 90
4095
 91
0
280
0
281
0
  0
CLASS
  1
MATERIAL
  2
AcDbMaterial
  3
ObjectDBX Classes
 90
1153
 91
0
280
0
281
0
  0
CLASS
  1
SCALE
  2
AcDbScale
  3
ObjectDBX Classes
 90
1153
 91
0
280
0
281
0
  0
CLASS
  1
TABLESTYLE
  2
AcDbTableStyle
  3
ObjectDBX Classes
 90
4095
 91
0
280
0
281
0
  0
CLASS
  1
MLEADERSTYLE
  2
AcDbMLeaderStyle
  3
ACDB_MLEADERSTYLE_CLASS
 90
4095
 91
0
280
0
281
0
  0
CLASS
  1
DICTIONARYVAR
  2
AcDbDictionaryVar
  3
ObjectDBX Classes
 90
0
 91
0
280
0
281
0
  0
CLASS
  1
CELLSTYLEMAP
  2
AcDbCellStyleMap
  3
ObjectDBX Classes
 90
1152
 91
0
280
0
281
0
  0
CLASS
  1
MENTALRAYRENDERSETTINGS
  2
AcDbMentalRayRenderSettings
  3
SCENEOE
 90
1024
 91
0
280
0
281
0
  0
CLASS
  1
ACDBDETAILVIEWSTYLE
  2
AcDbDetailViewStyle
  3
ObjectDBX Classes
 90
1025
 91
0
280
0
281
0
  0
CLASS
  1
ACDBSECTIONVIEWSTYLE
  2
AcDbSectionViewStyle
  3
ObjectDBX Classes
 90
1025
 91
0
280
0
281
0
  0
CLASS
  1
RASTERVARIABLES
  2
AcDbRasterVariables
  3
ISM
 90
0
 91
0
280
0
281
0
  0
CLASS
  1
LAYOUT
  2
AcDbLayout
  3
ObjectDBX Classes
 90
0
 91
0
280
0
281
0
  0
CLASS
  1
ACDBPLACEHOLDER
  2
AcDbPlaceHolder
  3
ObjectDBX Classes
 90
0
 91
0
280
0
281
0
  0
ENDSEC
  0
SECTION
  2
TABLES
  0
TABLE
  2
VPORT
  5
8
330
0
100
AcDbSymbolTable
 70
1
  0
VPORT
  5
23
330
8
100
AcDbSymbolTableRecord
100
AcDbViewportTableRecord
  2
*Active
 70
0
 10
0.0
 20
0.0
 11
1.0
 21
1.0
 12
0.0
 22
0.0
 13
0.0
 23
0.0
 14
0.5
 24
0.5
 15
0.5
 25
0.5
 16
0.0
 26
0.0
 36
1.0
 17
0.0
 27
0.0
 37
0.0
 40
1000.0
 41
1.34
 42
50.0
 43
0.0
 44
0.0
 50
0.0
 51
0.0
 71
0
 72
1000
 73
1
 74
3
 75
0
 76
0
 77
0
 78
0
281
0
 65
0
146
0.0
  0
ENDTAB
  0
TABLE
  2
LTYPE
  5
2
330
0
100
AcDbSymbolTable
 70
3
  0
LTYPE
  5
24
330
2
100
AcDbSymbolTableRecord
100
AcDbLinetypeTableRecord
  2
ByBlock
 70
0
  3

 72
65
 73
0
 40
0.0
  0
LTYPE
  5
25
330
2
100
AcDbSymbolTableRecord
100
AcDbLinetypeTableRecord
  2
ByLayer
 70
0
  3

 72
65
 73
0
 40
0.0
  0
LTYPE
  5
26
330
2
100
AcDbSymbolTableRecord
100
AcDbLinetypeTableRecord
  2
Continuous
 70
0
  3

 72
65
 73
0
 40
0.0
  0
ENDTAB
  0
TABLE
  2
LAYER
  5
1
330
0
100
AcDbSymbolTable
 70
2
  0
LAYER
  5
27
330
1
100
AcDbSymbolTableRecord
100
AcDbLayerTableRecord
  2
0
 70
0
 62
7
  6
Continuous
370
-3
390
13
347
21
  0
LAYER
  5
28
330
1
100
AcDbSymbolTableRecord
100
AcDbLayerTableRecord
  2
Defpoints
 70
0
 62
7
  6
Continuous
290
0
370
-3
390
13
347
21
  0
ENDTAB
  0
TABLE
  2
STYLE
  5
5
330
0
100
AcDbSymbolTable
 70
1
  0
STYLE
  5
29
330
5
100
AcDbSymbolTableRecord
100
AcDbTextStyleTableRecord
  2
Standard
 70
0
 40
0.0
 41
1.0
 50
0.0
 71
0
 42
2.5
  3
txt
  4

  0
ENDTAB
  0
TABLE
  2
VIEW
  5
7
330
0
100
AcDbSymbolTable
 70
0
  0
ENDTAB
  0
TABLE
  2
UCS
  5
6
330
0
100
AcDbSymbolTable
 70
0
  0
ENDTAB
  0
TABLE
  2
APPID
  5
3
330
0
100
AcDbSymbolTable
 70
3
  0
APPID
  5
2A
330
3
100
AcDbSymbolTableRecord
100
AcDbRegAppTableRecord
  2
ACAD
 70
0
  0
APPID
  5
37
330
3
100
AcDbSymbolTableRecord
100
AcDbRegAppTableRecord
  2
HATCHBACKGROUNDCOLOR
 70
0
  0
APPID
  5
38
330
3
100
AcDbSymbolTableRecord
100
AcDbRegAppTableRecord
  2
EZDXF
 70
0
  0
ENDTAB
  0
TABLE
  2
DIMSTYLE
  5
4
330
0
100
AcDbSymbolTable
 70
1
100
AcDbDimStyleTable
  0
DIMSTYLE
105
2B
330
4
100
AcDbSymbolTableRecord
100
AcDbDimStyleTableRecord
  2
Standard
 70
0
 40
1.0
 41
2.5
 42
0.625
 43
3.75
 44
1.25
 45
0.0
 46
0.0
 47
0.0
 48
0.0
 49
2.5
140
2.5
141
2.5
142
0.0
143
0.03937007874
144
1.0
145
0.0
146
1.0
147
0.625
148
0.0
 69
0
 70
0
 71
0
 72
0
 73
0
 74
0
 75
0
 76
0
 77
1
 78
8
 79
3
170
0
171
3
172
1
173
0
174
0
175
0
176
0
177
0
178
0
179
2
271
2
272
2
273
2
274
3
275
0
276
0
277
2
278
44
279
0
280
0
281
0
282
0
283
0
284
8
285
0
286
0
288
0
289
3
290
0
371
-2
372
-2
  0
ENDTAB
  0
TABLE
  2
BLOCK_RECORD
  5
9
330
0
100
AcDbSymbolTable
 70
2
  0
BLOCK_RECORD
  5
17
330
9
100
AcDbSymbolTableRecord
100
AcDbBlockTableRecord
  2
*Model_Space
340
1A
 70
0
280
1
281
0
  0
BLOCK_RECORD
  5
1B
330
9
100
AcDbSymbolTableRecord
100
AcDbBlockTableRecord
  2
*Paper_Space
340
1E
 70
0
280
1
281
0
  0
ENDTAB
  0
ENDSEC
  0
SECTION
  2
BLOCKS
  0
BLOCK
  5
18
330
17
100
AcDbEntity
  8
0
100
AcDbBlockBegin
  2
*Model_Space
 70
0
 10
0.0
 20
0.0
 30
0.0
  3
*Model_Space
  1

  0
ENDBLK
  5
19
330
17
100
AcDbEntity
  8
0
100
AcDbBlockEnd
  0
BLOCK
  5
1C
330
1B
100
AcDbEntity
  8
0
100
AcDbBlockBegin
  2
*Paper_Space
 70
0
 10
0.0
 20
0.0
 30
0.0
  3
*Paper_Space
  1

  0
ENDBLK
  5
1D
330
1B
100
AcDbEntity
  8
0
100
AcDbBlockEnd
  0
ENDSEC
  0
SECTION
  2
ENTITIES
  0
LWPOLYLINE
  5
2F
330
17
100
AcDbEntity
  8
0
100
AcDbPolyline
 90
331
 70
1
 10
121294.28760000039
 20
1217163.5677000005
 10
121296.81319999974
 20
1217161.9897000007
 10
121298.25320000015
 20
1217161.9571000002
 10
121299.59499999974
 20
1217161.1261999998
 10
121303.25329999998
 20
1217160.082800001
 10
121306.40259999968
 20
1217157.7701999992
 10
121308.5027999999
 20
1217155.0812
 10
121310.89400000032
 20
1217151.1049000006
 10
121314.25970000029
 20
1217147.7469999995
 10
121317.94900000002
 20
1217144.5417
 10
121320.90020000003
 20
1217140.5527
 10
121323.06410000008
 20
1217137.1418999992
 10
121324.3077999996
 20
1217135.5128000006
 10
121326.6643000003
 20
1217133.5384
 10
121329.16810000036
 20
1217131.0003999993
 10
121332.88650000002
 20
1217129.075099999
 10
121335.33210000023
 20
1217127.4989
 10
121337.87579999957
 20
1217126.7207999993
 10
121340.35400000028
 20
1217126.5845999997
 10
121343.10850000009
 20
1217128.0429999996
 10
121345.5066999998
 20
1217127.9086000007
 10
121355.47919999994
 20
1217133.5256999992
 10
121364.94799999986
 20
1217141.635399999
 10
121365.35879999958
 20
1217142.1063
 10
121369.78210000042
 20
1217150.0902999993
 10
121371.9963999996
 20
1217152.4412999991
 10
121376.41089999955
 20
1217156.5034999996
 10
121379.35979999974
 20
1217159.4781999998
 10
121379.58710000012
 20
1217158.9127999991
 10
121379.98159999959
 20
1217158.6636999995
 10
121380.20710000023
 20
1217158.0183000006
 10
121380.91089999955
 20
1217157.2819999997
 10
121381.62540000025
 20
1217157.0255999994
 10
121381.85089999996
 20
1217156.3802000005
 10
121381.65460000001
 20
1217154.7838000003
 10
121381.80730000045
 20
1217154.4602000006
 10
121382.51470000017
 20
1217153.8838999998
 10
121382.88389999978
 20
1217152.514799999
 10
121382.18759999983
 20
1217150.0492000002
 10
121381.94579999987
 20
1217149.9746000003
 10
121381.53309999965
 20
1217149.4236999992
 10
121381.51130000036
 20
1217148.4637000002
 10
121382.37509999983
 20
1217147.7237999998
 10
121383.73149999976
 20
1217147.5329999998
 10
121384.18059999961
 20
1217146.1620000005
 10
121384.16970000044
 20
1217145.682
 10
121383.75879999995
 20
1217145.211100001
 10
121383.97530000005
 20
1217144.1656999998
 10
121383.86450000014
 20
1217142.8073999994
 10
121383.20260000043
 20
1217141.8619999997
 10
121382.84819999989
 20
1217140.3490999993
 10
121381.34470000025
 20
1217137.581700001
 10
121381.07749999966
 20
1217136.3871999998
 10
121381.0429999996
 20
1217134.8672000002
 10
121381.32679999992
 20
1217133.2599
 10
121382.02869999968
 20
1217132.4436000008
 10
121382.5850999998
 20
1217132.2708
 10
121382.31060000043
 20
1217130.7562000006
 10
121382.54339999985
 20
1217130.4308000002
 10
121382.9852
 20
1217128.7399000004
 10
121383.18169999961
 20
1217126.8145000003
 10
121382.20179999992
 20
1217125.9562
 10
121381.94550000038
 20
1217125.2415999994
 10
121381.29640000034
 20
1217124.8562000003
 10
121381.12729999982
 20
1217124.4597999994
 10
121380.47829999961
 20
1217124.0743000004
 10
121379.98199999984
 20
1217123.3652
 10
121379.4963999996
 20
1217123.136
 10
121379.1492999997
 20
1217121.9431999996
 10
121378.90919999965
 20
1217121.9486999996
 10
121378.2583999997
 20
1217121.4832000006
 10
121377.73840000015
 20
1217119.7339999992
 10
121376.82230000012
 20
1217118.1539999992
 10
121376.16949999984
 20
1217117.6085
 10
121376.07859999966
 20
1217117.1303000003
 10
121376.98070000019
 20
1217114.5484999996
 10
121377.19159999955
 20
1217113.2631
 10
121377.64800000004
 20
1217112.2120999992
 10
121378.59350000042
 20
1217111.5503000002
 10
121379.7134999996
 20
1217111.5250000004
 10
121380.33359999955
 20
1217110.6305
 10
121381.36280000024
 20
1217110.1269000005
 10
121381.58650000021
 20
1217109.4013999999
 10
121382.6919999998
 20
1217108.7360999994
 10
121383.72470000014
 20
1217108.3925
 10
121384.57749999966
 20
1217107.1724999994
 10
121384.79399999976
 20
1217106.1271000002
 10
121384.74859999958
 20
1217104.1270000003
 10
121385.13949999958
 20
1217103.7180000003
 10
121385.42870000005
 20
1217102.3507000003
 10
121385.97970000003
 20
1217101.9379999992
 10
121385.8797000004
 20
1217101.0598000009
 10
121386.27610000037
 20
1217100.8906999994
 10
121386.6651999997
 20
1217100.4015999995
 10
121386.62170000002
 20
1217098.4815999996
 10
121386.20540000033
 20
1217097.7707000002
 10
121386.0800999999
 20
1217095.7723999992
 10
121386.48749999981
 20
1217092.5614999998
 10
121386.7966
 20
1217092.0743000004
 10
121387.35479999986
 20
1217091.9814999998
 10
121388.06570000015
 20
1217091.5651999991
 10
121388.1222000001
 20
1217090.5233999994
 10
121388.35309999995
 20
1217090.1180000007
 10
121389.78050000034
 20
1217089.5252999999
 10
121390.48780000024
 20
1217088.948999999
 10
121390.44240000006
 20
1217086.948999999
 10
121390.81709999964
 20
1217085.8199000005
 10
121390.94799999986
 20
1217084.5362999998
 10
121390.8245000001
 20
1217082.6180000007
 10
121390.57909999974
 20
1217082.3834000006
 10
121389.69720000029
 20
1217082.3234
 10
121388.88090000022
 20
1217081.6215000004
 10
121387.51180000044
 20
1217081.2523999996
 10
121387.42819999997
 20
1217081.0942000002
 10
121385.02089999989
 20
1217080.8286000006
 10
121384.60819999967
 20
1217080.2775999997
 10
121384.20280000009
 20
1217080.0467000008
 10
121383.85190000013
 20
1217078.6939000003
 10
121383.28100000042
 20
1217078.2267000005
 10
121382.81940000039
 20
1217075.5156999994
 10
121382.4793999996
 20
1217074.6428999994
 10
121381.8339999998
 20
1217074.4174000006
 10
121381.25760000013
 20
1217073.7101000007
 10
121378.99579999968
 20
1217072.8008999992
 10
121378.58860000037
 20
1217072.4899000004
 10
121377.62490000017
 20
1217072.3516000006
 10
121377.29949999973
 20
1217072.1188999992
 10
121377.21219999995
 20
1217071.8007999994
 10
121376.56859999988
 20
1217071.6552000009
 10
121375.56689999998
 20
1217069.8369999994
 10
121374.75600000005
 20
1217069.3750999998
 10
121373.30510000046
 20
1217068.9277
 10
121372.57419999968
 20
1217068.4640999995
 10
121371.93059999961
 20
1217068.3184999991
 10
121371.0979000004
 20
1217066.8967000004
 10
121370.2034
 20
1217066.2765999995
 10
121370.03619999997
 20
1217065.9602000006
 10
121369.17090000026
 20
1217063.0983000007
 10
121365.97090000007
 20
1217063.1709000003
 10
121365.5636
 20
1217062.8599999994
 10
121364.7218000004
 20
1217061.0381000005
 10
121364.53469999973
 20
1217059.8417000007
 10
121364.53490000032
 20
1217056.3198000006
 10
121364.91309999954
 20
1217055.3507000003
 10
121364.64589999989
 20
1217054.1561999992
 10
121364.87320000026
 20
1217053.5906000007
 10
121363.81329999957
 20
1217052.7342000008
 10
121363.39329999965
 20
1217051.8632999994
 10
121362.42599999998
 20
1217051.5649999995
 10
121361.51879999973
 20
1217050.3849999998
 10
121360.8733000001
 20
1217050.1594999991
 10
121359.57340000011
 20
1217049.3084999993
 10
121359.07890000008
 20
1217048.679300001
 10
121358.6752000004
 20
1217048.5285
 10
121358.26439999975
 20
1217048.0574999992
 10
121357.3080000002
 20
1217048.2391999997
 10
121356.83519999962
 20
1217048.5701000001
 10
121355.31159999967
 20
1217048.444599999
 10
121354.03519999981
 20
1217048.6336000003
 10
121353.46430000011
 20
1217048.1663000006
 10
121352.10059999954
 20
1217048.0372000001
 10
121351.20440000016
 20
1217047.3370999992
 10
121350.78619999997
 20
1217046.5461
 10
121350.31909999996
 20
1217043.5952000003
 10
121350.45550000016
 20
1217042.5515
 10
121350.31209999975
 20
1217039.7532000002
 10
121349.55759999994
 20
1217038.2495000008
 10
121349.28490000032
 20
1217036.8148999996
 10
121349.79779999983
 20
1217034.7223000005
 10
121350.11060000025
 20
1217034.3950999994
 10
121350.5560999997
 20
1217032.8641
 10
121350.71430000011
 20
1217032.7804000005
 10
121351.14169999957
 20
1217030.4496
 10
121351.45270000026
 20
1217030.0423000008
 10
121351.8872999996
 20
1217028.0315000005
 10
121352.1183000002
 20
1217027.6259000003
 10
121352.15660000034
 20
1217025.7840999998
 10
121352.5421000002
 20
1217025.1350999996
 10
121352.52209999971
 20
1217024.2551000006
 10
121353.14400000032
 20
1217023.4405000005
 10
121353.34219999984
 20
1217021.5950000007
 10
121353.73139999993
 20
1217021.1060000006
 10
121353.69149999972
 20
1217019.3458999991
 10
121354.14790000021
 20
1217018.2950999998
 10
121354.50090000033
 20
1217016.2059000004
 10
121355.47730000038
 20
1217013.3824000005
 10
121356.2555999998
 20
1217012.4042000007
 10
121356.55929999985
 20
1217011.6769999992
 10
121355.97049999982
 20
1217006.8877000008
 10
121356.51420000009
 20
1217006.1550999992
 10
121356.64510000031
 20
1217004.8714000005
 10
121356.51080000028
 20
1217002.4732000008
 10
121356.1763000004
 20
1217001.8405000009
 10
121356.39809999987
 20
1217001.0350000001
 10
121356.36730000004
 20
1216999.6750000007
 10
121356.51999999955
 20
1216999.351399999
 10
121357.15639999975
 20
1216999.1767999995
 10
121357.20380000025
 20
1216997.7349999994
 10
121357.67650000006
 20
1216997.4041000009
 10
121357.74560000002
 20
1216996.9222999997
 10
121357.98209999967
 20
1216996.7568999995
 10
121358.8638000004
 20
1216996.8169
 10
121359.67289999966
 20
1216997.1986999996
 10
121361.35479999986
 20
1216997.240700001
 10
121361.76020000037
 20
1216997.4716999996
 10
121362.63839999959
 20
1216997.3717
 10
121363.26580000017
 20
1216996.7971
 10
121363.5530000003
 20
1216995.3498999998
 10
121363.52579999994
 20
1216994.1499000005
 10
121363.0223000003
 20
1216993.1207999997
 10
121363.01150000002
 20
1216992.6406999994
 10
121363.47510000039
 20
1216991.9098000005
 10
121364.18780000042
 20
1216991.5735
 10
121364.4188000001
 20
1216991.1679999996
 10
121364.97520000022
 20
1216990.9954000004
 10
121364.91349999979
 20
1216988.2753999997
 10
121365.06620000023
 20
1216987.9517
 10
121365.70260000043
 20
1216987.7772000004
 10
121365.65739999991
 20
1216985.7772000004
 10
121365.88829999976
 20
1216985.3717
 10
121366.2845999999
 20
1216985.2026000004
 10
121366.43560000043
 20
1216984.7991000004
 10
121366.25200000033
 20
1216983.762599999
 10
121366.3992999997
 20
1216983.198999999
 10
121366.35039999988
 20
1216981.0390000008
 10
121366.50310000032
 20
1216980.7153999992
 10
121367.2977
 20
1216980.4573
 10
121367.36500000022
 20
1216979.8954000007
 10
121367.90689999983
 20
1216979.0826999992
 10
121368.2050999999
 20
1216978.1153999995
 10
121368.18869999982
 20
1216977.3954000007
 10
121367.85250000004
 20
1216976.6827000007
 10
121367.28160000034
 20
1216976.2153999992
 10
121367.19429999962
 20
1216975.8971999995
 10
121366.31070000026
 20
1216975.757099999
 10
121365.25980000012
 20
1216975.3006999996
 10
121364.93250000011
 20
1216974.9879
 10
121364.6780000003
 20
1216974.3533999994
 10
121364.7399000004
 20
1216973.5515
 10
121364.25079999957
 20
1216973.1623999998
 10
121364.16359999962
 20
1216972.8442000002
 10
121364.60900000017
 20
1216971.3133000005
 10
121364.58550000004
 20
1216970.2732999995
 10
121364.24739999976
 20
1216969.4804999996
 10
121364.55470000021
 20
1216968.9133000001
 10
121364.74749999959
 20
1216966.8278
 10
121364.73120000027
 20
1216966.1077999994
 10
121364.14219999965
 20
1216964.8405000009
 10
121364.13129999954
 20
1216964.3605000004
 10
121364.20220000017
 20
1216963.9585999995
 10
121364.75320000015
 20
1216963.5459000003
 10
121364.88599999994
 20
1216962.3422999997
 10
121365.11870000046
 20
1216962.0168999992
 10
121365.33160000015
 20
1216960.8114999998
 10
121365.3825000003
 20
1216959.5296
 10
121365.75349999964
 20
1216958.2404999994
 10
121365.00629999954
 20
1216957.0568000004
 10
121364.0318
 20
1216956.4386
 10
121362.77550000045
 20
1216953.9857
 10
121359.86840000004
 20
1216952.8509999998
 10
121358.80470000021
 20
1216951.8344999999
 10
121357.99749999959
 20
1216951.5326000005
 10
121357.26109999977
 20
1216950.829
 10
121357.15029999986
 20
1216949.4707999993
 10
121357.98139999993
 20
1216947.2907999996
 10
121358.04320000019
 20
1216946.489
 10
121357.15060000028
 20
1216945.9488999993
 10
121356.7034
 20
1216943.8779000007
 10
121356.45799999963
 20
1216943.6434000004
 10
121355.77440000046
 20
1216941.7379
 10
121355.44350000005
 20
1216941.2651000004
 10
121354.7527999999
 20
1216939.0395999998
 10
121354.53830000013
 20
1216936.6432000007
 10
121354.76020000037
 20
1216935.8377
 10
121354.64940000046
 20
1216934.4795999993
 10
121353.66579999961
 20
1216933.4613000005
 10
121353.41610000003
 20
1216933.086100001
 10
121179.04889999982
 20
1217074.7161999997
 10
121179.86230000015
 20
1217076.8344
 10
121177.37320000026
 20
1217076.4905999992
 10
121177.0549999997
 20
1217076.5778
 10
121189.05840000045
 20
1217083.5096000005
 10
121190.33629999962
 20
1217086.9223999996
 10
121199.27269999962
 20
1217089.201199999
 10
121209.29600000009
 20
1217097.0581999999
 10
121210.11780000012
 20
1217098.0
 10
121218.65950000007
 20
1217100.5278999992
 10
121221.81579999998
 20
1217102.0571999997
 10
121224.68479999993
 20
1217105.0338000003
 10
121227.18099999987
 20
1217109.2193999998
 10
121233.08449999988
 20
1217111.8871
 10
121243.65869999956
 20
1217119.3314999994
 10
121250.29289999977
 20
1217125.9847
 10
121261.8870000001
 20
1217136.0472999997
 10
121266.85410000011
 20
1217139.7766999993
 10
121270.61220000032
 20
1217143.1333000008
 10
121274.5736999996
 20
1217148.4064000007
 10
121277.71509999968
 20
1217156.3394000009
 10
121279.5641999999
 20
1217156.6976999994
 10
121281.35319999978
 20
1217157.9377999995
 10
121282.32230000012
 20
1217158.3159999996
 10
121284.14400000032
 20
1217160.9962000009
 10
121284.32210000046
 20
1217161.7926000003
 10
121285.70390000008
 20
1217162.7217999995
 10
121287.46580000035
 20
1217162.7619000003
 10
121290.92210000008
 20
1217163.4038999993
 10
121292.79480000027
 20
1217164.8022000007
 10
121294.28760000039
 20
1217163.5677000005
 10
121110.67420000024
 20
1217167.2495000008
 10
121110.91060000006
 20
1217167.0841000006
 10
121111.47599999979
 20
1217167.3114
 10
121111.1288999999
 20
1217166.1185999997
 10
121115.8638000004
 20
1217159.6078999992
 10
121118.47869999986
 20
1217154.9061999992
 10
121120.02990000043
 20
1217149.1881000008
 10
121121.46659999993
 20
1217145.4735000003
 10
121122.48859999981
 20
1217141.1281000003
 10
121124.26879999973
 20
1217138.4463999998
 10
121127.61290000007
 20
1217130.6064999998
 10
121130.32600000035
 20
1217126.7029
 10
121131.94089999981
 20
1217120.2630000003
 10
121134.07210000046
 20
1217115.4121000003
 10
121140.23780000024
 20
1217111.9905999992
 10
121143.72890000045
 20
1217110.6307999995
 10
121144.65259999968
 20
1217109.0089999996
 10
121148.47300000023
 20
1217104.5200999994
 10
121149.3058000002
 20
1217102.4200999998
 10
121150.05429999996
 20
1217098.2672000006
 10
121090.30659999978
 20
1217146.7972
 10
121110.37430000026
 20
1217167.7545999996
 10
121110.67420000024
 20
1217167.2495000008
  0
LWPOLYLINE
  5
30
330
17
100
AcDbEntity
  8
0
100
AcDbPolyline
 90
323
 70
1
 10
121379.35979999974
 20
1217159.4781999998
 10
121376.41089999955
 20
1217156.5034999996
 10
121371.9963999996
 20
1217152.4412999991
 10
121369.78210000042
 20
1217150.0902999993
 10
121365.35879999958
 20
1217142.1063
 10
121364.94799999986
 20
1217141.635399999
 10
121355.47919999994
 20
1217133.5256999992
 10
121345.5066999998
 20
1217127.9086000007
 10
121343.10850000009
 20
1217128.0429999996
 10
121340.35400000028
 20
1217126.5845999997
 10
121337.87579999957
 20
1217126.7207999993
 10
121335.33210000023
 20
1217127.4989
 10
121332.88650000002
 20
1217129.075099999
 10
121329.16810000036
 20
1217131.0003999993
 10
121326.6643000003
 20
1217133.5384
 10
121324.3077999996
 20
1217135.5128000006
 10
121323.06410000008
 20
1217137.1418999992
 10
121320.90020000003
 20
1217140.5527
 10
121317.94900000002
 20
1217144.5417
 10
121314.25970000029
 20
1217147.7469999995
 10
121310.89400000032
 20
1217151.1049000006
 10
121308.5027999999
 20
1217155.0812
 10
121306.40259999968
 20
1217157.7701999992
 10
121303.25329999998
 20
1217160.082800001
 10
121299.59499999974
 20
1217161.1261999998
 10
121298.25320000015
 20
1217161.9571000002
 10
121296.81319999974
 20
1217161.9897000007
 10
121294.28760000039
 20
1217163.5677000005
 10
121292.79480000027
 20
1217164.8022000007
 10
121290.92210000008
 20
1217163.4038999993
 10
121287.46580000035
 20
1217162.7619000003
 10
121285.70390000008
 20
1217162.7217999995
 10
121284.32210000046
 20
1217161.7926000003
 10
121284.14400000032
 20
1217160.9962000009
 10
121282.32230000012
 20
1217158.3159999996
 10
121281.35319999978
 20
1217157.9377999995
 10
121279.5641999999
 20
1217156.6976999994
 10
121277.71509999968
 20
1217156.3394000009
 10
121274.5736999996
 20
1217148.4064000007
 10
121270.61220000032
 20
1217143.1333000008
 10
121266.85410000011
 20
1217139.7766999993
 10
121261.8870000001
 20
1217136.0472999997
 10
121250.29289999977
 20
1217125.9847
 10
121243.65869999956
 20
1217119.3314999994
 10
121233.08449999988
 20
1217111.8871
 10
121227.18099999987
 20
1217109.2193999998
 10
121224.68479999993
 20
1217105.0338000003
 10
121221.81579999998
 20
1217102.0571999997
 10
121218.65950000007
 20
1217100.5278999992
 10
121210.11780000012
 20
1217098.0
 10
121209.29600000009
 20
1217097.0581999999
 10
121199.27269999962
 20
1217089.201199999
 10
121190.33629999962
 20
1217086.9223999996
 10
121189.05840000045
 20
1217083.5096000005
 10
121177.0549999997
 20
1217076.5778
 10
121177.37320000026
 20
1217076.4905999992
 10
121179.86230000015
 20
1217076.8344
 10
121179.04889999982
 20
1217074.7161999997
 10
121150.05429999996
 20
1217098.2672000006
 10
121149.3058000002
 20
1217102.4200999998
 10
121148.47300000023
 20
1217104.5200999994
 10
121144.65259999968
 20
1217109.0089999996
 10
121143.72890000045
 20
1217110.6307999995
 10
121140.23780000024
 20
1217111.9905999992
 10
121134.07210000046
 20
1217115.4121000003
 10
121131.94089999981
 20
1217120.2630000003
 10
121130.32600000035
 20
1217126.7029
 10
121127.61290000007
 20
1217130.6064999998
 10
121124.26879999973
 20
1217138.4463999998
 10
121122.48859999981
 20
1217141.1281000003
 10
121121.46659999993
 20
1217145.4735000003
 10
121120.02990000043
 20
1217149.1881000008
 10
121118.47869999986
 20
1217154.9061999992
 10
121115.8638000004
 20
1217159.6078999992
 10
121111.1288999999
 20
1217166.1185999997
 10
121111.47599999979
 20
1217167.3114
 10
121110.91060000006
 20
1217167.0841000006
 10
121110.67420000024
 20
1217167.2495000008
 10
121110.37430000026
 20
1217167.7545999996
 10
121413.78320000041
 20
1217484.616800001
 10
121413.44620000012
 20
1217483.8367999997
 10
121412.92090000026
 20
1217481.8476999998
 10
121412.90460000001
 20
1217481.1276999991
 10
121413.05370000005
 20
1217480.6440999992
 10
121414.22840000037
 20
1217479.4968999997
 10
121414.96129999962
 20
1217476.5187
 10
121415.19940000027
 20
1217476.4332999997
 10
121415.6649000002
 20
1217475.7824000008
 10
121416.77770000044
 20
1217475.4370000008
 10
121417.56500000041
 20
1217474.8587999996
 10
121417.78509999998
 20
1217473.9734000005
 10
121418.09059999976
 20
1217473.3260999992
 10
121418.40519999992
 20
1217473.0789
 10
121419.47439999972
 20
1217470.8134000003
 10
121419.52350000013
 20
1217469.4517
 10
121419.13279999979
 20
1217466.3388999999
 10
121417.98199999984
 20
1217465.0042000003
 10
121417.64749999996
 20
1217464.3714000005
 10
121416.83660000004
 20
1217463.9094999991
 10
121416.5038999999
 20
1217463.3567999993
 10
121416.48570000008
 20
1217462.5568000004
 10
121416.99500000011
 20
1217460.3039999995
 10
121417.46410000045
 20
1217459.8132000007
 10
121418.0223000003
 20
1217459.7204999998
 10
121418.17690000031
 20
1217459.4769000001
 10
121418.22780000046
 20
1217458.1951000001
 10
121417.70969999954
 20
1217456.5259000007
 10
121418.09350000042
 20
1217455.7968000006
 10
121418.72989999969
 20
1217455.6223000009
 10
121418.79530000035
 20
1217454.9804999996
 10
121419.18620000035
 20
1217454.5713999998
 10
121419.76099999994
 20
1217451.6768999994
 10
121419.34460000042
 20
1217450.9659000002
 10
121419.02280000038
 20
1217450.8932000007
 10
121418.04470000044
 20
1217450.1149000004
 10
121417.48110000044
 20
1217449.9675999992
 10
121417.06659999955
 20
1217449.3366999999
 10
121416.66289999988
 20
1217449.1857999992
 10
121416.08660000004
 20
1217448.4783999994
 10
121415.27749999985
 20
1217448.0965
 10
121414.1157999998
 20
1217446.2818999998
 10
121413.30669999961
 20
1217445.9001000002
 10
121412.56680000015
 20
1217445.0362999998
 10
121411.46509999968
 20
1217442.3399999999
 10
121410.73419999983
 20
1217441.8761999998
 10
121410.48149999976
 20
1217441.3216999993
 10
121409.08880000003
 20
1217439.9124999996
 10
121408.91610000003
 20
1217439.3561000004
 10
121408.85809999984
 20
1217436.7961
 10
121408.67640000023
 20
1217435.8396000005
 10
121408.27089999989
 20
1217435.6086999997
 10
121408.01630000025
 20
1217434.9741999991
 10
121407.12550000008
 20
1217434.5141000003
 10
121406.52560000028
 20
1217432.7667999994
 10
121405.87289999984
 20
1217432.2213000003
 10
121405.3711000001
 20
1217431.2720999997
 10
121404.88929999992
 20
1217431.2029999997
 10
121403.9020999996
 20
1217430.0248000007
 10
121402.20930000022
 20
1217429.5028000008
 10
121401.6149000004
 20
1217427.9955000002
 10
121400.96219999995
 20
1217427.4499999993
 10
121400.6222000001
 20
1217426.577299999
 10
121399.40409999993
 20
1217425.8045000006
 10
121399.14410000015
 20
1217424.9298999999
 10
121398.72780000046
 20
1217424.2189000007
 10
121398.32060000021
 20
1217423.9079999998
 10
121398.14969999995
 20
1217423.4316000007
 10
121395.72970000003
 20
1217422.6060000006
 10
121392.3024000004
 20
1217423.2440000009
 10
121391.73869999964
 20
1217423.0966999996
 10
121391.08600000013
 20
1217422.5512000006
 10
121390.83139999956
 20
1217421.9166
 10
121390.26059999969
 20
1217421.4493000004
 10
121389.38260000013
 20
1217418.0274
 10
121388.72989999969
 20
1217417.481899999
 10
121387.73539999966
 20
1217415.9836999997
 10
121387.31010000035
 20
1217414.8726000004
 10
121387.29009999987
 20
1217413.9926999994
 10
121387.04279999994
 20
1217413.6780999992
 10
121386.69570000004
 20
1217412.4853000008
 10
121386.04289999977
 20
1217411.9397999998
 10
121385.71030000038
 20
1217411.3871
 10
121385.01939999964
 20
1217409.1615999993
 10
121384.18680000026
 20
1217407.7397000007
 10
121383.6177000003
 20
1217407.3523999993
 10
121382.43240000028
 20
1217404.4977000002
 10
121382.02699999977
 20
1217404.2667999994
 10
121381.77070000023
 20
1217403.5523000006
 10
121381.75430000015
 20
1217402.8323
 10
121380.93800000008
 20
1217402.1303000003
 10
121380.21439999994
 20
1217401.9866000004
 10
121380.0399000002
 20
1217401.3502999991
 10
121379.29810000025
 20
1217400.4066000003
 10
121378.5725999996
 20
1217400.1829000004
 10
121378.40539999958
 20
1217399.8664999995
 10
121377.6799999997
 20
1217399.6427999996
 10
121376.37629999965
 20
1217398.6317999996
 10
121375.5365000004
 20
1217396.8900000006
 10
121375.4274000004
 20
1217395.6117000002
 10
121375.49650000036
 20
1217395.1298999991
 10
121376.10929999966
 20
1217393.9154000003
 10
121376.57849999983
 20
1217393.4245999996
 10
121377.53120000008
 20
1217393.0826999992
 10
121378.46219999995
 20
1217391.7809999995
 10
121379.17679999955
 20
1217391.5247000009
 10
121379.93510000035
 20
1217389.6664000005
 10
121381.20419999957
 20
1217389.1575000007
 10
121382.26630000025
 20
1217386.5721000005
 10
121382.37550000008
 20
1217384.328400001
 10
121382.84819999989
 20
1217383.9975000005
 10
121383.48639999982
 20
1217383.9030000009
 10
121383.79910000041
 20
1217383.5757
 10
121385.07189999986
 20
1217383.2267000005
 10
121385.38470000029
 20
1217382.8994999994
 10
121385.6847000001
 20
1217382.0121999998
 10
121386.71920000017
 20
1217381.7486000005
 10
121387.82110000029
 20
1217380.9232
 10
121388.50860000029
 20
1217379.4669000003
 10
121389.93589999992
 20
1217378.8741999995
 10
121390.21600000001
 20
1217377.1070000008
 10
121390.68690000009
 20
1217376.6961000003
 10
121390.89790000021
 20
1217375.4105999991
 10
121391.37069999985
 20
1217375.0798000004
 10
121391.75069999974
 20
1217374.1907000002
 10
121395.33440000005
 20
1217373.3890000004
 10
121395.72169999965
 20
1217372.8200000003
 10
121396.75090000033
 20
1217372.3164000008
 10
121397.13279999979
 20
1217371.5073000006
 10
121397.84370000008
 20
1217371.091
 10
121398.62189999968
 20
1217370.1128000002
 10
121400.76389999967
 20
1217369.2638000008
 10
121401.07120000012
 20
1217368.6965999994
 10
121401.21119999979
 20
1217367.8128999993
 10
121401.59850000031
 20
1217367.2438999992
 10
121402.39489999972
 20
1217367.0658
 10
121402.6222000001
 20
1217366.5002999995
 10
121402.9386
 20
1217366.3330000006
 10
121406.03859999962
 20
1217365.3824000005
 10
121406.34779999964
 20
1217364.8950999994
 10
121407.06240000017
 20
1217364.638699999
 10
121407.44969999976
 20
1217364.0697000008
 10
121411.84619999956
 20
1217363.8099000007
 10
121412.55530000012
 20
1217363.3135000002
 10
121414.39529999997
 20
1217363.2718000002
 10
121415.34619999956
 20
1217362.8500999995
 10
121416.7807
 20
1217362.5774000008
 10
121417.33169999998
 20
1217362.1646999996
 10
121418.36990000028
 20
1217362.0612000003
 10
121419.16260000039
 20
1217361.7230999991
 10
121419.47360000014
 20
1217361.3158
 10
121419.87000000011
 20
1217361.1467000004
 10
121420.72829999961
 20
1217360.1667999998
 10
121421.1118999999
 20
1217359.4376999997
 10
121421.42839999963
 20
1217359.2704000007
 10
121422.41930000018
 20
1217357.0868999995
 10
121422.81390000042
 20
1217356.8377999999
 10
121423.20129999984
 20
1217356.2687
 10
121424.39580000006
 20
1217356.0014999993
 10
121425.34499999974
 20
1217355.4997000005
 10
121426.59410000034
 20
1217354.1107
 10
121427.53959999979
 20
1217353.4488999993
 10
121427.61419999972
 20
1217353.2070000004
 10
121428.40330000035
 20
1217352.708900001
 10
121428.87069999985
 20
1217352.1380000003
 10
121430.1361999996
 20
1217351.4691000003
 10
121431.5689000003
 20
1217351.1163999997
 10
121433.23080000002
 20
1217350.2783000004
 10
121434.95270000026
 20
1217348.5582999997
 10
121435.57100000046
 20
1217347.583900001
 10
121435.86739999987
 20
1217346.5365999993
 10
121436.33469999954
 20
1217345.9657000005
 10
121437.05310000014
 20
1217342.3476
 10
121438.26429999992
 20
1217339.2784000002
 10
121437.82440000027
 20
1217337.5274999999
 10
121436.98809999973
 20
1217335.9455999993
 10
121435.58999999985
 20
1217334.2963999994
 10
121435.25549999997
 20
1217333.6636999995
 10
121434.85010000039
 20
1217333.4328000005
 10
121434.26649999991
 20
1217332.4055000003
 10
121433.5410000002
 20
1217332.1818000004
 10
121432.23739999998
 20
1217331.1708000004
 10
121431.35190000013
 20
1217330.9507
 10
121431.1827999996
 20
1217330.554300001
 10
121430.49199999962
 20
1217330.0897000004
 10
121430.6810999997
 20
1217329.6051000003
 10
121430.55389999971
 20
1217327.5270000007
 10
121430.39030000009
 20
1217327.3706
 10
121428.21939999983
 20
1217326.9395000003
 10
121427.0175999999
 20
1217326.8867000006
 10
121425.43149999995
 20
1217326.2123000007
 10
121425.39400000032
 20
1217325.8828999996
 10
121425.15130000003
 20
1217325.7684000004
 10
121424.74450000003
 20
1217325.0373
 10
121424.55950000044
 20
1217324.3811000008
 10
121424.2341
 20
1217324.1482999995
 10
121424.14910000004
 20
1217323.9301999994
 10
121423.91569999978
 20
1217323.3451000005
 10
121423.80140000023
 20
1217322.7173999995
 10
121423.2921000002
 20
1217322.3187000006
 10
121422.57060000021
 20
1217321.3846000005
 10
121422.63790000044
 20
1217320.8226999994
 10
121421.82340000011
 20
1217320.2008999996
 10
121421.73070000019
 20
1217319.6426999997
 10
121420.99980000034
 20
1217319.1789999995
 10
121420.66530000046
 20
1217318.5461999997
 10
121420.46549999993
 20
1217318.1206
 10
121420.40350000001
 20
1217317.5917000007
 10
121420.17150000017
 20
1217317.5068999995
 10
121419.99260000046
 20
1217317.1207999997
 10
121419.6183000002
 20
1217314.7280000001
 10
121418.2873999998
 20
1217312.5168999992
 10
121418.1453999998
 20
1217312.4301999994
 10
121417.54559999984
 20
1217311.5732000005
 10
121417.36209999956
 20
1217310.5369000006
 10
121417.5038999999
 20
1217309.7333000004
 10
121418.72229999956
 20
1217306.9842000008
 10
121418.52950000018
 20
1217304.2171
 10
121420.54440000001
 20
1217302.6206
 10
121420.44450000022
 20
1217301.7423999999
 10
121420.79729999974
 20
1217299.6533000004
 10
121423.32500000019
 20
1217294.6334000006
 10
121424.84509999957
 20
1217291.0770999994
 10
121425.85800000001
 20
1217289.8534999993
 10
121427.05099999998
 20
1217285.9845000003
 10
121428.94749999978
 20
1217281.3791000005
 10
121432.25160000008
 20
1217275.301000001
 10
121442.90890000015
 20
1217261.6923999991
 10
121453.9330000002
 20
1217257.2003000006
 10
121455.4115000004
 20
1217251.8038999997
 10
121454.8498999998
 20
1217248.2148000002
 10
121453.07739999983
 20
1217244.1728000008
 10
121451.59219999984
 20
1217238.6834999993
 10
121447.16559999995
 20
1217227.0176999997
 10
121442.19319999963
 20
1217219.5263999999
 10
121431.29559999984
 20
1217208.4074000008
 10
121420.79640000034
 20
1217193.6775000002
 10
121418.88019999955
 20
1217190.3592000008
 10
121413.41700000037
 20
1217182.3988000005
 10
121397.92669999972
 20
1217169.9430999998
 10
121388.57210000046
 20
1217166.8734000009
 10
121385.6922000004
 20
1217166.9386999998
 10
121382.22690000013
 20
1217162.3748000003
 10
121379.35979999974
 20
1217159.4781999998
  0
LWPOLYLINE
  5
31
330
17
100
AcDbEntity
  8
0
100
AcDbPolyline
 90
149
 70
1
 10
121576.20330000017
 20
1217442.8478999995
 10
121577.78340000007
 20
1217441.9316000007
 10
121578.64169999957
 20
1217440.9516000003
 10
121578.3816999998
 20
1217440.0769999996
 10
121578.69809999969
 20
1217439.9098000005
 10
121578.69259999972
 20
1217439.6698000003
 10
121578.27630000003
 20
1217438.958900001
 10
121578.4291000003
 20
1217438.6352999993
 10
121578.32540000044
 20
1217437.5971000008
 10
121578.55279999971
 20
1217437.0316000003
 10
121578.22549999971
 20
1217436.7189000007
 10
121578.21829999983
 20
1217436.3988000005
 10
121578.28920000046
 20
1217435.9969999995
 10
121578.60560000036
 20
1217435.8298000004
 10
121578.66930000018
 20
1217435.1078999992
 10
121581.21839999966
 20
1217434.5699000005
 10
121584.22219999973
 20
1217432.9010000005
 10
121585.81309999991
 20
1217432.4647000004
 10
121586.70760000031
 20
1217433.0846999995
 10
121588.2966
 20
1217436.0903999992
 10
121589.41839999985
 20
1217436.1448999997
 10
121591.11290000007
 20
1217436.7467999998
 10
121591.29679999966
 20
1217434.2613999993
 10
121591.6205000002
 20
1217430.8923000004
 10
121591.58970000036
 20
1217429.5322999991
 10
121590.85340000037
 20
1217428.8286000006
 10
121589.6643000003
 20
1217429.3357999995
 10
121589.47709999979
 20
1217428.1393999998
 10
121588.81709999964
 20
1217427.2739000004
 10
121589.03899999987
 20
1217426.4684999995
 10
121588.61899999995
 20
1217425.5975000001
 10
121588.6026999997
 20
1217424.8774999995
 10
121588.8208999997
 20
1217423.9121000003
 10
121589.21190000046
 20
1217423.5030000005
 10
121590.49010000005
 20
1217423.3939999994
 10
121591.10470000003
 20
1217422.2595000006
 10
121592.28289999999
 20
1217421.2721999995
 10
121592.1975999996
 20
1217421.034
 10
121588.72329999972
 20
1217416.0702
 10
121586.48699999973
 20
1217412.7589999996
 10
121586.47989999969
 20
1217412.4390999991
 10
121584.0
 20
1217408.9734000005
 10
121575.71329999994
 20
1217396.5145999994
 10
121575.38790000044
 20
1217396.2818
 10
121574.51510000043
 20
1217396.6217999998
 10
121573.31869999971
 20
1217396.8090000004
 10
121573.78969999962
 20
1217396.3980999999
 10
121575.29879999999
 20
1217395.8836000003
 10
121575.0552000003
 20
1217395.7291
 10
121575.04970000032
 20
1217395.4891
 10
121568.34300000034
 20
1217385.6359
 10
121565.31539999973
 20
1217389.7865999993
 10
121565.74260000046
 20
1217390.9776000008
 10
121565.75540000014
 20
1217391.5375999995
 10
121565.51900000032
 20
1217391.7029999997
 10
121566.32980000041
 20
1217392.1648999993
 10
121567.07529999968
 20
1217393.2686
 10
121567.70990000013
 20
1217393.0140000004
 10
121567.95349999983
 20
1217393.1686000004
 10
121568.87150000036
 20
1217394.8287000004
 10
121570.32239999995
 20
1217395.2761000004
 10
121570.49519999977
 20
1217395.8324999996
 10
121570.82239999995
 20
1217396.1451999992
 10
121570.74600000028
 20
1217396.307
 10
121570.50059999991
 20
1217396.0724999998
 10
121570.60599999968
 20
1217397.1907000002
 10
121570.93140000012
 20
1217397.4234999996
 10
121569.18410000019
 20
1217398.0232999995
 10
121568.45139999967
 20
1217397.4795999993
 10
121567.5859000003
 20
1217398.1395999994
 10
121566.93140000012
 20
1217397.5140000004
 10
121566.04590000026
 20
1217397.2939999998
 10
121565.16959999967
 20
1217397.4739999995
 10
121564.10960000008
 20
1217396.6175999995
 10
121563.15139999986
 20
1217396.7193999998
 10
121562.58050000016
 20
1217396.2520000003
 10
121562.35500000045
 20
1217396.897500001
 10
121561.81130000018
 20
1217397.6301000006
 10
121562.21860000025
 20
1217397.9410999995
 10
121562.23489999957
 20
1217398.6611000001
 10
121561.93850000016
 20
1217399.7084
 10
121561.31300000008
 20
1217400.3628000002
 10
121561.17470000032
 20
1217401.3265000004
 10
121560.62380000018
 20
1217401.7391999997
 10
121560.72910000011
 20
1217402.8574
 10
121560.18549999967
 20
1217403.5900999997
 10
121559.97269999981
 20
1217404.7956000008
 10
121559.34539999999
 20
1217405.3701000009
 10
121558.90890000015
 20
1217407.301000001
 10
121557.40160000045
 20
1217407.8955000006
 10
121556.78699999955
 20
1217409.0298999995
 10
121554.76879999973
 20
1217408.2752999999
 10
121553.43960000016
 20
1217409.666099999
 10
121552.31960000005
 20
1217409.6915000007
 10
121550.84300000034
 20
1217411.6459999997
 10
121550.53760000039
 20
1217412.293299999
 10
121550.55750000011
 20
1217413.1733
 10
121550.33750000037
 20
1217414.0587000009
 10
121551.22840000037
 20
1217414.5187999997
 10
121550.76290000044
 20
1217415.1697000004
 10
121550.76829999965
 20
1217415.4097000007
 10
121551.41550000012
 20
1217415.7151999995
 10
121551.2592000002
 20
1217415.8789000008
 10
121551.35010000039
 20
1217416.3570000008
 10
121551.12459999975
 20
1217417.0023999996
 10
121552.33729999978
 20
1217417.5352999996
 10
121552.34090000018
 20
1217417.6952999998
 10
121552.98460000008
 20
1217417.8407000005
 10
121553.23000000045
 20
1217418.0753000006
 10
121555.85890000034
 20
1217421.0573999994
 10
121555.95160000026
 20
1217421.6154999994
 10
121556.5970999999
 20
1217421.8410999998
 10
121557.00609999988
 20
1217422.2320000008
 10
121556.93879999965
 20
1217422.7938
 10
121557.18790000025
 20
1217423.1883000005
 10
121556.95160000026
 20
1217423.3538000006
 10
121556.73149999976
 20
1217424.2392999995
 10
121558.55319999997
 20
1217426.9192999993
 10
121558.50219999999
 20
1217428.201199999
 10
121558.7603000002
 20
1217428.9957999997
 10
121560.36039999966
 20
1217428.9594999999
 10
121561.22219999973
 20
1217428.1395999994
 10
121563.01130000036
 20
1217429.3796999995
 10
121564.52940000035
 20
1217429.2652000003
 10
121565.28390000015
 20
1217430.7688999996
 10
121566.82210000046
 20
1217431.5344999991
 10
121568.8766999999
 20
1217430.3673
 10
121569.29480000027
 20
1217431.1582999993
 10
121569.15660000034
 20
1217432.1218999997
 10
121569.48020000011
 20
1217432.2745999992
 10
121569.4274000004
 20
1217433.4765000008
 10
121569.94550000038
 20
1217435.1456000004
 10
121569.95459999982
 20
1217435.5456000008
 10
121569.08370000031
 20
1217435.9656000007
 10
121569.36349999998
 20
1217437.7201000005
 10
121568.59260000009
 20
1217439.0183000006
 10
121570.5270999996
 20
1217439.6148000006
 10
121570.79619999975
 20
1217440.8893999998
 10
121570.8378999997
 20
1217442.7292999998
 10
121570.1342000002
 20
1217443.4657000005
 10
121571.65409999993
 20
1217443.4312999994
 10
121572.03600000031
 20
1217442.6221999992
 10
121573.79789999966
 20
1217442.6623
 10
121574.35429999977
 20
1217442.489600001
 10
121574.29420000035
 20
1217443.3714000005
 10
121574.54499999993
 20
1217443.8460000008
 10
121574.86870000046
 20
1217443.9988000002
 10
121574.84869999997
 20
1217443.1186999995
 10
121576.20330000017
 20
1217442.8478999995
  0
LWPOLYLINE
  5
32
330
17
100
AcDbEntity
  8
0
100
AcDbPolyline
 90
96
 70
1
 10
121543.30649999995
 20
1217474.6499000005
 10
121544.66650000028
 20
1217474.6191000007
 10
121545.16289999988
 20
1217475.3281999994
 10
121545.80649999995
 20
1217475.4737999998
 10
121546.69930000044
 20
1217476.0138000008
 10
121546.88279999979
 20
1217477.0502000004
 10
121547.12459999975
 20
1217477.1248000003
 10
121549.41739999969
 20
1217475.8720999993
 10
121549.73020000011
 20
1217475.5449
 10
121550.45019999985
 20
1217475.5285
 10
121550.3629999999
 20
1217475.2103000004
 10
121550.7575000003
 20
1217474.9612000007
 10
121550.33939999994
 20
1217474.1703999992
 10
121550.32299999986
 20
1217473.4504000004
 10
121551.13389999978
 20
1217473.9123
 10
121551.12660000008
 20
1217473.5921999998
 10
121551.75219999999
 20
1217472.9376999997
 10
121551.66669999994
 20
1217472.6995
 10
121551.02670000028
 20
1217472.7139999997
 10
121550.54129999969
 20
1217472.4848999996
 10
121550.12129999977
 20
1217471.614
 10
121550.34690000024
 20
1217470.9684999995
 10
121550.58499999996
 20
1217470.8830999993
 10
121550.57419999968
 20
1217470.4030000009
 10
121550.89240000024
 20
1217470.3158
 10
121550.96690000035
 20
1217470.073999999
 10
121551.44689999986
 20
1217470.0631000008
 10
121551.43960000016
 20
1217469.7431000005
 10
121548.8853000002
 20
1217466.5193000007
 10
121548.23979999963
 20
1217466.2937000003
 10
121547.40170000028
 20
1217464.6317999996
 10
121549.52909999993
 20
1217463.1428999994
 10
121550.94189999998
 20
1217461.9101999998
 10
121550.77649999969
 20
1217461.6739000008
 10
121553.52390000038
 20
1217459.2903000005
 10
121553.28210000042
 20
1217459.2158000004
 10
121551.45839999989
 20
1217459.977499999
 10
121553.18039999995
 20
1217458.2576000001
 10
121551.36959999986
 20
1217456.0574999992
 10
121551.36230000015
 20
1217455.737400001
 10
121546.63179999962
 20
1217448.320699999
 10
121542.02130000014
 20
1217439.1404
 10
121541.46679999959
 20
1217439.3929999992
 10
121540.82679999992
 20
1217439.4076000005
 10
121540.17949999962
 20
1217439.102
 10
121540.2703999998
 20
1217439.5802999996
 10
121539.24299999978
 20
1217440.163899999
 10
121538.63389999978
 20
1217441.5384
 10
121537.4338999996
 20
1217441.5656000003
 10
121537.05559999961
 20
1217442.5347000007
 10
121536.10280000046
 20
1217442.8763999995
 10
121535.9645999996
 20
1217443.8399999999
 10
121535.49189999979
 20
1217444.171
 10
121535.65730000008
 20
1217444.4072999991
 10
121535.59539999999
 20
1217445.2092000004
 10
121534.5608000001
 20
1217445.4726999998
 10
121534.18620000035
 20
1217446.6018000003
 10
121532.92069999967
 20
1217447.2708
 10
121532.93159999978
 20
1217447.7509000003
 10
121532.37519999966
 20
1217447.9234999996
 10
121532.22250000015
 20
1217448.2471999992
 10
121532.31340000033
 20
1217448.7254000008
 10
121533.23330000043
 20
1217450.4653999992
 10
121532.03139999975
 20
1217450.4125999995
 10
121531.89690000005
 20
1217451.5362999998
 10
121531.42410000041
 20
1217451.8671000004
 10
121530.06950000022
 20
1217452.1380000003
 10
121532.56769999955
 20
1217452.8817999996
 10
121533.16029999964
 20
1217454.3091000002
 10
121533.0111999996
 20
1217454.7928
 10
121533.59659999982
 20
1217455.9000000004
 10
121532.98749999981
 20
1217457.2745999992
 10
121533.10369999986
 20
1217458.8728
 10
121531.94909999985
 20
1217460.9000000004
 10
121531.51609999966
 20
1217462.9909000006
 10
121533.48510000017
 20
1217465.1074
 10
121533.24689999968
 20
1217465.1928000003
 10
121531.84499999974
 20
1217466.9056000002
 10
121531.64130000025
 20
1217468.511
 10
121533.25580000039
 20
1217469.1147000007
 10
121533.1939000003
 20
1217469.9165000003
 10
121534.81759999972
 20
1217470.9202999994
 10
121534.67750000022
 20
1217471.8039999995
 10
121535.2555999998
 20
1217472.5912999995
 10
121537.09750000015
 20
1217472.6295999996
 10
121537.83380000014
 20
1217473.3333
 10
121537.13200000022
 20
1217474.1495999992
 10
121537.30460000038
 20
1217474.7059000004
 10
121537.94820000045
 20
1217474.851399999
 10
121538.20100000035
 20
1217475.4059999995
 10
121536.2407999998
 20
1217477.2113000005
 10
121540.45909999963
 20
1217476.1553000007
 10
121541.34100000001
 20
1217476.2151999995
 10
121542.21729999967
 20
1217476.0352999996
 10
121543.16820000019
 20
1217475.6136000007
 10
121543.30649999995
 20
1217474.6499000005
  0
LWPOLYLINE
  5
33
330
17
100
AcDbEntity
  8
0
100
AcDbPolyline
 90
99
 70
1
 10
121636.97589999996
 20
1217334.2939
 10
121637.1322999997
 20
1217334.1302000005
 10
121637.93780000042
 20
1217334.3520999998
 10
121638.95779999997
 20
1217333.4485999998
 10
121639.93589999992
 20
1217334.2268000003
 10
121642.00150000025
 20
1217333.5396999996
 10
121642.39059999958
 20
1217333.0505999997
 10
121644.85610000044
 20
1217332.3543999996
 10
121648.79279999994
 20
1217329.4637000002
 10
121651.02190000005
 20
1217328.9329000004
 10
121658.66949999984
 20
1217323.7969000004
 10
121664.0477
 20
1217324.4754000008
 10
121665.14780000038
 20
1217323.5700000003
 10
121667.64250000007
 20
1217320.6319999993
 10
121667.54260000028
 20
1217319.7537999991
 10
121667.77720000036
 20
1217319.5083000008
 10
121669.13360000029
 20
1217319.3175000008
 10
121667.69189999998
 20
1217315.7481999993
 10
121667.60470000003
 20
1217315.4299999997
 10
121667.76290000044
 20
1217315.3464000002
 10
121666.57940000016
 20
1217312.571799999
 10
121659.80730000045
 20
1217299.8385000005
 10
121658.37480000034
 20
1217296.6691999994
 10
121657.81300000008
 20
1217296.602
 10
121657.47840000037
 20
1217295.9693
 10
121657.4748999998
 20
1217295.8092
 10
121657.79119999986
 20
1217295.6418999992
 10
121657.70760000031
 20
1217295.4836999997
 10
121655.44940000027
 20
1217294.7346
 10
121654.98759999964
 20
1217295.545499999
 10
121654.74760000035
 20
1217295.5508999992
 10
121651.40539999958
 20
1217299.9488999993
 10
121651.40899999999
 20
1217300.1088999994
 10
121651.97449999955
 20
1217300.3362000007
 10
121652.30539999995
 20
1217300.8090000004
 10
121651.01630000025
 20
1217300.4379999992
 10
121650.54360000044
 20
1217300.7687999997
 10
121650.31989999954
 20
1217301.4943000004
 10
121649.91619999986
 20
1217301.3433999997
 10
121647.9469999997
 20
1217302.7487000003
 10
121644.85809999984
 20
1217300.6576000005
 10
121642.95799999963
 20
1217301.5812
 10
121642.8088999996
 20
1217302.0647
 10
121640.64879999962
 20
1217302.1137000006
 10
121639.70150000043
 20
1217302.6954999994
 10
121638.69600000046
 20
1217304.2391
 10
121638.48489999957
 20
1217305.5245999992
 10
121636.98849999998
 20
1217306.5989999995
 10
121636.52489999961
 20
1217307.3299000002
 10
121636.52840000018
 20
1217307.4899000004
 10
121638.0558000002
 20
1217307.7754999995
 10
121637.92839999963
 20
1217309.2191000003
 10
121638.17019999959
 20
1217309.2937000003
 10
121637.93200000003
 20
1217309.3791000005
 10
121638.38279999979
 20
1217311.6100999992
 10
121634.3788999999
 20
1217315.0626999997
 10
121632.3496000003
 20
1217317.3498
 10
121634.19849999994
 20
1217321.2300000004
 10
121631.49839999992
 20
1217322.171599999
 10
121630.86930000037
 20
1217322.666099999
 10
121630.89470000006
 20
1217323.7861000001
 10
121631.30740000028
 20
1217324.3370999992
 10
121631.48369999975
 20
1217325.0534000006
 10
121631.4963999996
 20
1217325.613500001
 10
121630.94369999971
 20
1217325.9462000001
 10
121631.36349999998
 20
1217326.8170999996
 10
121631.29270000011
 20
1217327.2190000005
 10
121631.83990000002
 20
1217326.6462999992
 10
121632.32540000044
 20
1217326.8752999995
 10
121632.80539999995
 20
1217326.8643999994
 10
121633.99459999986
 20
1217326.3572000004
 10
121634.46549999993
 20
1217325.9463999998
 10
121636.13289999962
 20
1217325.3483000007
 10
121636.21100000013
 20
1217325.2664
 10
121636.36919999961
 20
1217325.1828000005
 10
121636.54009999987
 20
1217325.6591999996
 10
121636.69639999978
 20
1217325.4956
 10
121637.02010000031
 20
1217325.6482999995
 10
121639.21839999966
 20
1217323.7575000003
 10
121639.8674999997
 20
1217324.1429999992
 10
121640.04200000037
 20
1217324.7794000003
 10
121640.37100000028
 20
1217325.1722
 10
121640.3002000004
 20
1217325.573999999
 10
121640.94379999954
 20
1217325.7194999997
 10
121641.81649999972
 20
1217325.3794999998
 10
121642.43840000033
 20
1217324.5649999995
 10
121643.38210000005
 20
1217323.8233000003
 10
121645.36220000032
 20
1217322.8979000002
 10
121645.51669999957
 20
1217322.6543000005
 10
121645.99679999985
 20
1217322.6434000004
 10
121646.40579999983
 20
1217323.0342999995
 10
121639.09269999992
 20
1217328.8029999994
 10
121638.63080000039
 20
1217329.6139000002
 10
121638.38719999976
 20
1217329.4593000002
 10
121638.39620000031
 20
1217329.8594000004
 10
121635.10690000001
 20
1217333.0556000005
 10
121635.12689999957
 20
1217333.9355999995
 10
121635.45600000024
 20
1217334.328400001
 10
121636.97589999996
 20
1217334.2939
  0
LWPOLYLINE
  5
34
330
17
100
AcDbEntity
  8
0
100
AcDbPolyline
 90
718
 70
1
 10
122031.79389999993
 20
1217100.6467000004
 10
121687.81740000006
 20
1216661.4671
 10
121353.41610000003
 20
1216933.086100001
 10
121353.66579999961
 20
1216933.4613000005
 10
121354.64940000046
 20
1216934.4795999993
 10
121354.76020000037
 20
1216935.8377
 10
121354.53830000013
 20
1216936.6432000007
 10
121354.7527999999
 20
1216939.0395999998
 10
121355.44350000005
 20
1216941.2651000004
 10
121355.77440000046
 20
1216941.7379
 10
121356.45799999963
 20
1216943.6434000004
 10
121356.7034
 20
1216943.8779000007
 10
121357.15060000028
 20
1216945.9488999993
 10
121358.04320000019
 20
1216946.489
 10
121357.98139999993
 20
1216947.2907999996
 10
121357.15029999986
 20
1216949.4707999993
 10
121357.26109999977
 20
1216950.829
 10
121357.99749999959
 20
1216951.5326000005
 10
121358.80470000021
 20
1216951.8344999999
 10
121359.86840000004
 20
1216952.8509999998
 10
121362.77550000045
 20
1216953.9857
 10
121364.0318
 20
1216956.4386
 10
121365.00629999954
 20
1216957.0568000004
 10
121365.75349999964
 20
1216958.2404999994
 10
121365.3825000003
 20
1216959.5296
 10
121365.33160000015
 20
1216960.8114999998
 10
121365.11870000046
 20
1216962.0168999992
 10
121364.88599999994
 20
1216962.3422999997
 10
121364.75320000015
 20
1216963.5459000003
 10
121364.20220000017
 20
1216963.9585999995
 10
121364.13129999954
 20
1216964.3605000004
 10
121364.14219999965
 20
1216964.8405000009
 10
121364.73120000027
 20
1216966.1077999994
 10
121364.74749999959
 20
1216966.8278
 10
121364.55470000021
 20
1216968.9133000001
 10
121364.24739999976
 20
1216969.4804999996
 10
121364.58550000004
 20
1216970.2732999995
 10
121364.60900000017
 20
1216971.3133000005
 10
121364.16359999962
 20
1216972.8442000002
 10
121364.25079999957
 20
1216973.1623999998
 10
121364.7399000004
 20
1216973.5515
 10
121364.6780000003
 20
1216974.3533999994
 10
121364.93250000011
 20
1216974.9879
 10
121365.25980000012
 20
1216975.3006999996
 10
121366.31070000026
 20
1216975.757099999
 10
121367.19429999962
 20
1216975.8971999995
 10
121367.28160000034
 20
1216976.2153999992
 10
121367.85250000004
 20
1216976.6827000007
 10
121368.18869999982
 20
1216977.3954000007
 10
121368.2050999999
 20
1216978.1153999995
 10
121367.90689999983
 20
1216979.0826999992
 10
121367.36500000022
 20
1216979.8954000007
 10
121367.2977
 20
1216980.4573
 10
121366.50310000032
 20
1216980.7153999992
 10
121366.35039999988
 20
1216981.0390000008
 10
121366.3992999997
 20
1216983.198999999
 10
121366.25200000033
 20
1216983.762599999
 10
121366.43560000043
 20
1216984.7991000004
 10
121366.2845999999
 20
1216985.2026000004
 10
121365.88829999976
 20
1216985.3717
 10
121365.65739999991
 20
1216985.7772000004
 10
121365.70260000043
 20
1216987.7772000004
 10
121365.06620000023
 20
1216987.9517
 10
121364.91349999979
 20
1216988.2753999997
 10
121364.97520000022
 20
1216990.9954000004
 10
121364.4188000001
 20
1216991.1679999996
 10
121364.18780000042
 20
1216991.5735
 10
121363.47510000039
 20
1216991.9098000005
 10
121363.01150000002
 20
1216992.6406999994
 10
121363.0223000003
 20
1216993.1207999997
 10
121363.52579999994
 20
1216994.1499000005
 10
121363.5530000003
 20
1216995.3498999998
 10
121363.26580000017
 20
1216996.7971
 10
121362.63839999959
 20
1216997.3717
 10
121361.76020000037
 20
1216997.4716999996
 10
121361.35479999986
 20
1216997.240700001
 10
121359.67289999966
 20
1216997.1986999996
 10
121358.8638000004
 20
1216996.8169
 10
121357.98209999967
 20
1216996.7568999995
 10
121357.74560000002
 20
1216996.9222999997
 10
121357.67650000006
 20
1216997.4041000009
 10
121357.20380000025
 20
1216997.7349999994
 10
121357.15639999975
 20
1216999.1767999995
 10
121356.51999999955
 20
1216999.351399999
 10
121356.36730000004
 20
1216999.6750000007
 10
121356.39809999987
 20
1217001.0350000001
 10
121356.1763000004
 20
1217001.8405000009
 10
121356.51080000028
 20
1217002.4732000008
 10
121356.64510000031
 20
1217004.8714000005
 10
121356.51420000009
 20
1217006.1550999992
 10
121355.97049999982
 20
1217006.8877000008
 10
121356.55929999985
 20
1217011.6769999992
 10
121356.2555999998
 20
1217012.4042000007
 10
121355.47730000038
 20
1217013.3824000005
 10
121354.50090000033
 20
1217016.2059000004
 10
121354.14790000021
 20
1217018.2950999998
 10
121353.69149999972
 20
1217019.3458999991
 10
121353.73139999993
 20
1217021.1060000006
 10
121353.34219999984
 20
1217021.5950000007
 10
121353.14400000032
 20
1217023.4405000005
 10
121352.52209999971
 20
1217024.2551000006
 10
121352.5421000002
 20
1217025.1350999996
 10
121352.15660000034
 20
1217025.7840999998
 10
121352.1183000002
 20
1217027.6259000003
 10
121351.8872999996
 20
1217028.0315000005
 10
121351.45270000026
 20
1217030.0423000008
 10
121351.14169999957
 20
1217030.4496
 10
121350.71430000011
 20
1217032.7804000005
 10
121350.5560999997
 20
1217032.8641
 10
121350.11060000025
 20
1217034.3950999994
 10
121349.79779999983
 20
1217034.7223000005
 10
121349.28490000032
 20
1217036.8148999996
 10
121349.55759999994
 20
1217038.2495000008
 10
121350.31209999975
 20
1217039.7532000002
 10
121350.45550000016
 20
1217042.5515
 10
121350.31909999996
 20
1217043.5952000003
 10
121350.78619999997
 20
1217046.5461
 10
121351.20440000016
 20
1217047.3370999992
 10
121352.10059999954
 20
1217048.0372000001
 10
121353.46430000011
 20
1217048.1663000006
 10
121354.03519999981
 20
1217048.6336000003
 10
121355.31159999967
 20
1217048.444599999
 10
121356.83519999962
 20
1217048.5701000001
 10
121357.3080000002
 20
1217048.2391999997
 10
121358.26439999975
 20
1217048.0574999992
 10
121358.6752000004
 20
1217048.5285
 10
121359.07890000008
 20
1217048.679300001
 10
121359.57340000011
 20
1217049.3084999993
 10
121360.8733000001
 20
1217050.1594999991
 10
121361.51879999973
 20
1217050.3849999998
 10
121362.42599999998
 20
1217051.5649999995
 10
121363.39329999965
 20
1217051.8632999994
 10
121363.81329999957
 20
1217052.7342000008
 10
121364.87320000026
 20
1217053.5906000007
 10
121364.64589999989
 20
1217054.1561999992
 10
121364.91309999954
 20
1217055.3507000003
 10
121364.53490000032
 20
1217056.3198000006
 10
121364.53469999973
 20
1217059.8417000007
 10
121364.7218000004
 20
1217061.0381000005
 10
121365.5636
 20
1217062.8599999994
 10
121365.97090000007
 20
1217063.1709000003
 10
121369.17090000026
 20
1217063.0983000007
 10
121370.03619999997
 20
1217065.9602000006
 10
121370.2034
 20
1217066.2765999995
 10
121371.0979000004
 20
1217066.8967000004
 10
121371.93059999961
 20
1217068.3184999991
 10
121372.57419999968
 20
1217068.4640999995
 10
121373.30510000046
 20
1217068.9277
 10
121374.75600000005
 20
1217069.3750999998
 10
121375.56689999998
 20
1217069.8369999994
 10
121376.56859999988
 20
1217071.6552000009
 10
121377.21219999995
 20
1217071.8007999994
 10
121377.29949999973
 20
1217072.1188999992
 10
121377.62490000017
 20
1217072.3516000006
 10
121378.58860000037
 20
1217072.4899000004
 10
121378.99579999968
 20
1217072.8008999992
 10
121381.25760000013
 20
1217073.7101000007
 10
121381.8339999998
 20
1217074.4174000006
 10
121382.4793999996
 20
1217074.6428999994
 10
121382.81940000039
 20
1217075.5156999994
 10
121383.28100000042
 20
1217078.2267000005
 10
121383.85190000013
 20
1217078.6939000003
 10
121384.20280000009
 20
1217080.0467000008
 10
121384.60819999967
 20
1217080.2775999997
 10
121385.02089999989
 20
1217080.8286000006
 10
121387.42819999997
 20
1217081.0942000002
 10
121387.51180000044
 20
1217081.2523999996
 10
121388.88090000022
 20
1217081.6215000004
 10
121389.69720000029
 20
1217082.3234
 10
121390.57909999974
 20
1217082.3834000006
 10
121390.6445000004
 20
1217081.7416999992
 10
121391.1155000003
 20
1217081.3307000007
 10
121391.57550000027
 20
1217080.4398999996
 10
121392.60109999962
 20
1217079.7763
 10
121393.2193
 20
1217078.8017999995
 10
121394.16660000011
 20
1217078.2200000007
 10
121394.55030000024
 20
1217077.4910000004
 10
121395.88860000018
 20
1217076.5000999998
 10
121396.0996000003
 20
1217075.2146000005
 10
121396.64869999979
 20
1217074.7219999991
 10
121397.01970000006
 20
1217073.4328000005
 10
121398.75430000015
 20
1217072.2729000002
 10
121402.36519999988
 20
1217072.6713999994
 10
121403.64520000014
 20
1217072.6423000004
 10
121404.29609999992
 20
1217073.1077999994
 10
121405.03610000014
 20
1217073.9715
 10
121405.92150000017
 20
1217074.1916000005
 10
121408.32519999985
 20
1217074.2972
 10
121411.79430000018
 20
1217075.4992999993
 10
121412.76879999973
 20
1217076.1174999997
 10
121413.49419999961
 20
1217076.3410999998
 10
121413.7433000002
 20
1217076.7357
 10
121414.55420000013
 20
1217077.1975999996
 10
121416.72149999999
 20
1217077.4685999993
 10
121418.17239999957
 20
1217077.9159999993
 10
121418.74149999954
 20
1217078.3033000007
 10
121419.86689999979
 20
1217078.5178999994
 10
121420.35599999968
 20
1217078.9070999995
 10
121421.32510000002
 20
1217079.2852999996
 10
121421.90139999986
 20
1217079.9925999995
 10
121422.54870000016
 20
1217080.2981000002
 10
121422.79590000026
 20
1217080.6127000004
 10
121423.92499999981
 20
1217080.9872999992
 10
121424.50860000029
 20
1217082.0145999994
 10
121424.66860000044
 20
1217082.0109
 10
121425.73579999991
 20
1217083.1874000002
 10
121426.22119999956
 20
1217083.4166
 10
121428.6266999999
 20
1217083.6021999996
 10
121429.76300000027
 20
1217084.2968000006
 10
121433.07579999976
 20
1217085.6624999996
 10
121434.54119999986
 20
1217086.7498000003
 10
121435.99019999988
 20
1217087.1172000002
 10
121437.93929999974
 20
1217088.353599999
 10
121440.76649999991
 20
1217089.4902
 10
121441.1774000004
 20
1217089.9612000007
 10
121442.15189999994
 20
1217090.5793999992
 10
121444.71920000017
 20
1217090.8413999993
 10
121446.16830000002
 20
1217091.2087999992
 10
121448.89190000016
 20
1217091.3070999999
 10
121450.41930000018
 20
1217091.5925999992
 10
121450.98649999965
 20
1217091.8999000005
 10
121451.62650000025
 20
1217091.885399999
 10
121452.10109999962
 20
1217091.6345000006
 10
121452.67019999959
 20
1217092.0219
 10
121453.7137000002
 20
1217092.1582999993
 10
121454.93010000046
 20
1217092.8510999996
 10
121456.13009999972
 20
1217092.8238999993
 10
121457.02460000012
 20
1217093.4439000003
 10
121457.82650000043
 20
1217093.5058999993
 10
121458.4009999996
 20
1217094.1330999993
 10
121459.62100000028
 20
1217094.9858999997
 10
121462.82830000017
 20
1217095.2334000003
 10
121464.52280000038
 20
1217095.8354000002
 10
121465.80640000012
 20
1217095.9662999995
 10
121466.63910000026
 20
1217097.3882
 10
121467.12449999992
 20
1217097.6173
 10
121469.69359999988
 20
1217097.9593000002
 10
121470.7427000003
 20
1217098.3356999997
 10
121472.42449999973
 20
1217098.3775999993
 10
121473.39180000033
 20
1217098.6758999992
 10
121476.3518000003
 20
1217098.6088999994
 10
121477.14460000023
 20
1217098.2707000002
 10
121479.65029999986
 20
1217095.8125999998
 10
121481.16119999997
 20
1217095.3782000002
 10
121481.63210000005
 20
1217094.9671999998
 10
121484.80310000014
 20
1217093.6147000007
 10
121485.68319999985
 20
1217093.5947999991
 10
121488.42129999958
 20
1217094.3331000004
 10
121492.16870000027
 20
1217093.6878999993
 10
121495.26510000043
 20
1217092.5771999992
 10
121497.90510000009
 20
1217092.5173000004
 10
121498.53980000038
 20
1217092.2628000006
 10
121498.67250000034
 20
1217091.0591000002
 10
121498.22360000014
 20
1217088.9081999995
 10
121498.60539999977
 20
1217088.0990999993
 10
121499.71640000027
 20
1217087.673800001
 10
121501.72009999957
 20
1217087.7884
 10
121501.9637000002
 20
1217087.943
 10
121502.29999999981
 20
1217088.6557
 10
121504.64719999954
 20
1217089.803200001
 10
121506.81269999966
 20
1217089.9941000007
 10
121508.90550000034
 20
1217090.507099999
 10
121509.69089999981
 20
1217089.8488999996
 10
121510.22549999971
 20
1217088.7161999997
 10
121510.69649999961
 20
1217088.3052999992
 10
121510.96750000026
 20
1217086.1381
 10
121512.38760000002
 20
1217085.2254000008
 10
121514.46760000009
 20
1217085.178200001
 10
121515.25860000029
 20
1217084.7600999996
 10
121516.13499999978
 20
1217084.5801
 10
121516.7659
 20
1217084.1656
 10
121516.98959999997
 20
1217083.4401999991
 10
121516.70249999966
 20
1217081.3655999992
 10
121517.57699999958
 20
1217081.1055999994
 10
121517.95880000014
 20
1217080.296599999
 10
121518.50619999971
 20
1217079.7237999998
 10
121519.06259999983
 20
1217079.5512000006
 10
121519.12270000018
 20
1217078.6692999993
 10
121519.58090000041
 20
1217077.6985
 10
121520.37359999958
 20
1217077.3604000006
 10
121521.74089999963
 20
1217077.6494999994
 10
121523.01730000041
 20
1217077.4605
 10
121523.16459999979
 20
1217076.8968000002
 10
121523.70650000032
 20
1217076.0842000004
 10
121523.83930000011
 20
1217074.8805
 10
121524.55389999971
 20
1217074.6240999997
 10
121524.60300000012
 20
1217073.2623999994
 10
121526.12299999967
 20
1217073.2279000003
 10
121526.07039999962
 20
1217070.9078000002
 10
121526.21600000001
 20
1217070.2642
 10
121526.52869999968
 20
1217069.9370000008
 10
121528.43780000042
 20
1217069.4134
 10
121529.8141999999
 20
1217070.1026000008
 10
121531.82500000019
 20
1217070.5373
 10
121532.2341
 20
1217070.928200001
 10
121534.2433000002
 20
1217071.2829
 10
121537.22709999979
 20
1217068.7339999992
 10
121537.45440000016
 20
1217068.1686000004
 10
121537.92349999957
 20
1217067.6776
 10
121538.2399000004
 20
1217067.510399999
 10
121539.19990000036
 20
1217067.4886000007
 10
121541.45079999976
 20
1217067.9178999998
 10
121542.65259999968
 20
1217067.9706999995
 10
121543.78529999964
 20
1217068.5053000003
 10
121544.20170000009
 20
1217069.2161999997
 10
121545.08889999986
 20
1217069.5163000003
 10
121545.49799999967
 20
1217069.9071999993
 10
121547.03610000014
 20
1217070.672700001
 10
121548.11060000025
 20
1217072.1691999994
 10
121548.67599999998
 20
1217072.3965000007
 10
121549.17059999984
 20
1217073.0255999994
 10
121551.52689999994
 20
1217074.5731000006
 10
121555.13239999954
 20
1217074.7314999998
 10
121556.32519999985
 20
1217074.3841999993
 10
121557.90890000015
 20
1217073.6280000005
 10
121558.79059999995
 20
1217073.6881000008
 10
121559.60699999984
 20
1217074.3899000008
 10
121562.32699999958
 20
1217074.3282999992
 10
121563.06149999984
 20
1217074.9519999996
 10
121563.78340000007
 20
1217075.0155999996
 10
121564.51970000006
 20
1217075.7193
 10
121565.72879999969
 20
1217076.0921999998
 10
121565.98330000043
 20
1217076.7267000005
 10
121566.30869999994
 20
1217076.9594999999
 10
121568.71970000025
 20
1217077.3849999998
 10
121569.29600000009
 20
1217078.0923999995
 10
121570.3432
 20
1217078.3888000008
 10
121570.7594999997
 20
1217079.0997000001
 10
121572.85410000011
 20
1217079.6926000006
 10
121573.17949999962
 20
1217079.9253000002
 10
121573.35230000038
 20
1217080.4816999994
 10
121573.67949999962
 20
1217080.794399999
 10
121575.04849999957
 20
1217081.1635999996
 10
121577.53589999955
 20
1217081.4275000002
 10
121578.04310000036
 20
1217082.6165999994
 10
121578.53029999975
 20
1217082.9256999996
 10
121578.78490000032
 20
1217083.5603
 10
121579.51939999964
 20
1217084.1840000004
 10
121580.9720999999
 20
1217084.7113000005
 10
121581.94840000011
 20
1217085.4094999991
 10
121582.99390000012
 20
1217085.6260000002
 10
121584.20660000015
 20
1217086.1588000003
 10
121584.45739999972
 20
1217086.6333000008
 10
121584.9411000004
 20
1217086.7825000007
 10
121585.43379999977
 20
1217087.3315999992
 10
121586.07919999957
 20
1217087.5570999999
 10
121586.40649999958
 20
1217087.8698999994
 10
121589.76470000017
 20
1217087.7137000002
 10
121589.85190000013
 20
1217088.0318999998
 10
121590.50289999973
 20
1217088.4974000007
 10
121592.57749999966
 20
1217088.2102000006
 10
121594.57930000033
 20
1217088.2448999994
 10
121595.78289999999
 20
1217088.3776999991
 10
121596.75200000033
 20
1217088.7558999993
 10
121599.39749999996
 20
1217088.9361000005
 10
121601.17569999956
 20
1217089.6963
 10
121603.20650000032
 20
1217091.0109
 10
121606.09920000006
 20
1217091.5056999996
 10
121607.70100000035
 20
1217091.5493
 10
121609.37559999991
 20
1217091.2712999992
 10
121612.15759999957
 20
1217090.4078000002
 10
121613.1174999997
 20
1217090.386
 10
121615.42669999972
 20
1217089.8534999993
 10
121616.93219999969
 20
1217089.1789999995
 10
121618.11230000015
 20
1217088.2717000004
 10
121619.06510000024
 20
1217087.9299999997
 10
121619.70500000007
 20
1217087.9155000001
 10
121622.03770000022
 20
1217088.4229000006
 10
121624.19230000023
 20
1217088.1338999998
 10
121625.05429999996
 20
1217087.3139999993
 10
121625.11969999969
 20
1217086.6721
 10
121625.4252000004
 20
1217086.0250000004
 10
121626.94350000005
 20
1217085.9103999995
 10
121628.13439999986
 20
1217085.4833000004
 10
121628.20349999983
 20
1217085.0013999995
 10
121627.76360000018
 20
1217083.2504999992
 10
121627.75270000007
 20
1217082.7704000007
 10
121627.98730000015
 20
1217082.5251000002
 10
121629.67100000009
 20
1217082.6469999999
 10
121632.30740000028
 20
1217082.427100001
 10
121633.03100000042
 20
1217082.5708000008
 10
121634.2274000002
 20
1217082.3836000003
 10
121635.02010000031
 20
1217082.0453999992
 10
121636.78019999992
 20
1217082.0055999998
 10
121637.2527999999
 20
1217081.6746999994
 10
121637.31840000022
 20
1217081.0328000002
 10
121637.69840000011
 20
1217080.1437
 10
121638.73660000041
 20
1217080.0402000006
 10
121639.86569999997
 20
1217080.4147999994
 10
121640.74210000038
 20
1217080.2348999996
 10
121640.96219999995
 20
1217079.3494000006
 10
121641.27309999987
 20
1217078.9420999996
 10
121643.97499999963
 20
1217078.0804999992
 10
121647.34229999967
 20
1217078.3243000004
 10
121648.63499999978
 20
1217078.8553
 10
121651.67870000005
 20
1217078.9463999998
 10
121654.5569000002
 20
1217078.8012000006
 10
121654.79150000028
 20
1217078.5557000004
 10
121654.86060000025
 20
1217078.0738999993
 10
121655.87700000033
 20
1217077.0102999993
 10
121656.1699000001
 20
1217075.8029999994
 10
121656.88260000013
 20
1217075.4666000009
 10
121657.0334999999
 20
1217075.0631000008
 10
121658.05360000022
 20
1217074.1593999993
 10
121658.37179999985
 20
1217074.0722000003
 10
121658.83550000004
 20
1217073.3412999995
 10
121659.23539999966
 20
1217073.3322
 10
121659.40089999977
 20
1217073.5687000006
 10
121660.84999999963
 20
1217073.9360000007
 10
121662.99370000046
 20
1217073.1670999993
 10
121663.38470000029
 20
1217072.7579999994
 10
121664.02460000012
 20
1217072.7434999999
 10
121664.43010000046
 20
1217072.9744000006
 10
121665.55009999964
 20
1217072.948999999
 10
121666.1847000001
 20
1217072.6944999993
 10
121666.49739999976
 20
1217072.3673
 10
121667.03019999992
 20
1217071.1546
 10
121667.16299999971
 20
1217069.9508999996
 10
121667.05950000044
 20
1217068.9126999993
 10
121667.27950000018
 20
1217068.0272000004
 10
121667.51410000026
 20
1217067.7818
 10
121668.57419999968
 20
1217065.1163999997
 10
121669.2070000004
 20
1217064.7818
 10
121672.40160000045
 20
1217064.4693
 10
121672.71609999985
 20
1217064.2221000008
 10
121674.78529999964
 20
1217063.6949000005
 10
121676.51999999955
 20
1217062.5350000001
 10
121678.34910000023
 20
1217062.0132999998
 10
121681.22190000024
 20
1217061.6280000005
 10
121682.03280000016
 20
1217062.0898000002
 10
121682.3655000003
 20
1217062.6426
 10
121683.50910000037
 20
1217063.6571999993
 10
121685.3563000001
 20
1217063.9355999995
 10
121685.68169999961
 20
1217064.168299999
 10
121686.80719999969
 20
1217064.3828999996
 10
121690.60360000003
 20
1217065.8977000006
 10
121691.64180000033
 20
1217065.7941999994
 10
121692.1127000004
 20
1217065.383199999
 10
121693.30179999955
 20
1217064.8760000002
 10
121693.53450000007
 20
1217064.5505999997
 10
121695.20010000002
 20
1217063.8725000005
 10
121698.81460000016
 20
1217064.4309
 10
121700.15469999984
 20
1217063.5200999994
 10
121701.99110000022
 20
1217063.3182999995
 10
121702.2165000001
 20
1217062.6729000006
 10
121702.76750000007
 20
1217062.2601999994
 10
121708.7675999999
 20
1217062.1241999995
 10
121710.93670000043
 20
1217062.4751999993
 10
121712.5203999998
 20
1217061.7190000005
 10
121714.43319999985
 20
1217061.3554999996
 10
121715.79320000019
 20
1217061.3246
 10
121717.8822999997
 20
1217061.6775000002
 10
121719.16229999997
 20
1217061.6483999994
 10
121720.85319999978
 20
1217062.0903999992
 10
121721.33320000023
 20
1217062.079500001
 10
121722.5206000004
 20
1217061.4923
 10
121723.4804999996
 20
1217061.4705999997
 10
121724.30040000007
 20
1217062.3323999997
 10
121726.0569000002
 20
1217062.1325000003
 10
121727.26779999956
 20
1217062.5853000004
 10
121727.82780000009
 20
1217062.5726999994
 10
121729.17870000005
 20
1217062.1417999994
 10
121730.78060000017
 20
1217062.1855999995
 10
121732.69330000039
 20
1217061.8220000006
 10
121733.89879999962
 20
1217062.0348000005
 10
121734.06960000005
 20
1217062.5111999996
 10
121734.39510000031
 20
1217062.7438999992
 10
121735.51879999973
 20
1217062.8785999995
 10
121737.99880000018
 20
1217062.8223
 10
121738.87700000033
 20
1217062.7224000003
 10
121739.3515999997
 20
1217062.4715
 10
121741.9989
 20
1217062.7315999996
 10
121742.79700000025
 20
1217062.6335000005
 10
121743.3406999996
 20
1217061.9008000009
 10
121743.58069999982
 20
1217061.8954000007
 10
121743.96619999968
 20
1217061.2463000007
 10
121744.36440000031
 20
1217061.1572999991
 10
121744.67360000033
 20
1217060.67
 10
121745.30630000029
 20
1217060.3355
 10
121745.52099999972
 20
1217059.210000001
 10
121746.13549999986
 20
1217058.0755000003
 10
121746.10840000026
 20
1217056.8754999992
 10
121746.3320000004
 20
1217056.1500000004
 10
121746.64659999963
 20
1217055.9027999993
 10
121747.6830000002
 20
1217055.7192000002
 10
121748.65020000003
 20
1217056.0174000002
 10
121751.70110000018
 20
1217056.4286000002
 10
121752.41390000004
 20
1217056.0921999998
 10
121752.70849999972
 20
1217054.9649
 10
121753.81589999981
 20
1217054.3795999996
 10
121755.50140000042
 20
1217054.5813999996
 10
121755.89589999989
 20
1217054.3323999997
 10
121757.09229999967
 20
1217054.1451999992
 10
121761.81410000008
 20
1217054.1182000004
 10
121764.41970000044
 20
1217052.5383000001
 10
121767.36529999971
 20
1217051.8312999997
 10
121768.94710000046
 20
1217050.9949999992
 10
121770.30709999986
 20
1217050.9640999995
 10
121772.80169999972
 20
1217051.5479000006
 10
121773.44900000002
 20
1217051.8533999994
 10
121775.37619999982
 20
1217052.1298999991
 10
121776.75260000024
 20
1217052.8191
 10
121777.87619999982
 20
1217052.9537000004
 10
121778.5234000003
 20
1217053.2591999993
 10
121778.8543999996
 20
1217053.731899999
 10
121778.79970000032
 20
1217054.8538000006
 10
121778.57239999995
 20
1217055.4192999993
 10
121778.68510000035
 20
1217056.8574
 10
121778.84869999997
 20
1217057.0139000006
 10
121780.20870000031
 20
1217056.9828999992
 10
121780.93599999975
 20
1217057.2866999991
 10
121785.25239999965
 20
1217057.0287999995
 10
121786.46690000035
 20
1217057.6415999997
 10
121787.66700000037
 20
1217057.6143999994
 10
121787.9905000003
 20
1217057.7671000008
 10
121789.98149999976
 20
1217057.3216999993
 10
121792.47059999965
 20
1217057.6655000001
 10
121793.19790000003
 20
1217057.9692000002
 10
121793.93609999958
 20
1217058.7529000007
 10
121794.65240000002
 20
1217058.5766000003
 10
121796.4924999997
 20
1217058.5349000003
 10
121797.60340000037
 20
1217058.1095000003
 10
121799.75980000012
 20
1217057.9005999994
 10
121800.40160000045
 20
1217057.966
 10
121801.45249999966
 20
1217058.4223999996
 10
121802.73249999993
 20
1217058.3935000002
 10
121804.25980000012
 20
1217058.6789999995
 10
121806.73979999963
 20
1217058.6228
 10
121808.26709999982
 20
1217058.9082999993
 10
121810.65629999992
 20
1217058.3739
 10
121813.70179999992
 20
1217058.545
 10
121818.90000000037
 20
1217058.3471000008
 10
121823.87999999989
 20
1217059.1147000007
 10
121825.15820000041
 20
1217059.0057999995
 10
121827.54550000001
 20
1217058.3913000003
 10
121827.8618999999
 20
1217058.2239999995
 10
121828.16559999995
 20
1217057.4967999998
 10
121828.48010000028
 20
1217057.2495000008
 10
121830.80379999988
 20
1217057.3570000008
 10
121831.85470000003
 20
1217057.8134000003
 10
121833.94379999954
 20
1217058.1662000008
 10
121834.89470000006
 20
1217057.7445
 10
121835.36569999997
 20
1217057.3335999995
 10
121837.11479999963
 20
1217056.8136
 10
121837.89309999999
 20
1217055.8355
 10
121838.27130000014
 20
1217054.8663999997
 10
121838.5876000002
 20
1217054.6992000006
 10
121838.73319999967
 20
1217054.0555000007
 10
121839.3677000003
 20
1217053.801000001
 10
121839.67499999981
 20
1217053.2337999996
 10
121842.70239999983
 20
1217052.6049000006
 10
121844.5242999997
 20
1217051.7632
 10
121845.71700000018
 20
1217051.4159999993
 10
121846.52070000023
 20
1217051.5578000005
 10
121848.6007000003
 20
1217051.5107000005
 10
121849.08430000022
 20
1217051.6598000005
 10
121849.39890000038
 20
1217051.4124999996
 10
121850.59350000042
 20
1217051.1454000007
 10
121851.7790000001
 20
1217050.4781999998
 10
121853.45359999966
 20
1217050.1999999993
 10
121853.93539999984
 20
1217050.269200001
 10
121855.15529999975
 20
1217051.1219999995
 10
121856.11890000012
 20
1217051.2601999994
 10
121856.61160000041
 20
1217051.8092999998
 10
121858.22439999972
 20
1217052.3331000004
 10
121858.63350000046
 20
1217052.7239999995
 10
121859.1370000001
 20
1217053.7532000002
 10
121859.62249999959
 20
1217053.9823000003
 10
121860.11699999962
 20
1217054.6114000008
 10
121861.00600000005
 20
1217054.9914999995
 10
121861.42059999984
 20
1217055.6224000007
 10
121861.82419999968
 20
1217055.7732999995
 10
121862.2368999999
 20
1217056.3242000006
 10
121863.60599999968
 20
1217056.6934999991
 10
121864.49870000035
 20
1217057.2336
 10
121865.22229999956
 20
1217057.3772
 10
121865.54959999956
 20
1217057.6898999996
 10
121866.75870000012
 20
1217058.0627999995
 10
121867.01319999993
 20
1217058.6973
 10
121867.58050000016
 20
1217059.0045999996
 10
121867.83669999987
 20
1217059.7192000002
 10
121868.39859999996
 20
1217059.7864999995
 10
121868.56950000022
 20
1217060.2628000006
 10
121869.21490000002
 20
1217060.4883999992
 10
121869.62939999998
 20
1217061.1194000002
 10
121871.08029999956
 20
1217061.5667000003
 10
121872.30939999968
 20
1217062.819599999
 10
121872.91110000014
 20
1217064.6468000002
 10
121873.32380000036
 20
1217065.1976999994
 10
121873.60190000013
 20
1217066.8723000009
 10
121873.76910000015
 20
1217067.1886999998
 10
121874.33820000011
 20
1217067.5759999994
 10
121874.43090000004
 20
1217068.134299999
 10
121875.48720000032
 20
1217068.8307000007
 10
121876.24170000013
 20
1217070.3343000002
 10
121877.61079999991
 20
1217070.7035000008
 10
121878.26169999968
 20
1217071.1690999996
 10
121878.78160000034
 20
1217072.9181999993
 10
121879.18510000035
 20
1217073.0691999998
 10
121879.76699999999
 20
1217074.0165
 10
121880.74149999954
 20
1217074.6347000003
 10
121880.91060000006
 20
1217075.0310999993
 10
121881.48149999976
 20
1217075.4984000009
 10
121883.23419999983
 20
1217075.1384999994
 10
121884.25970000029
 20
1217074.4748999998
 10
121885.13609999977
 20
1217074.2949
 10
121887.29789999966
 20
1217074.3259999994
 10
121888.50889999978
 20
1217074.7787999995
 10
121890.35790000018
 20
1217075.1371
 10
121891.14699999988
 20
1217074.6389000006
 10
121891.53259999957
 20
1217073.9899000004
 10
121893.83990000002
 20
1217073.3772999998
 10
121894.30900000036
 20
1217072.8863999993
 10
121894.68539999984
 20
1217071.8373000007
 10
121896.34190000035
 20
1217070.759299999
 10
121900.08930000011
 20
1217070.1139000002
 10
121901.62189999968
 20
1217070.6394999996
 10
121902.82380000036
 20
1217070.6922999993
 10
121904.01470000017
 20
1217070.2651000004
 10
121905.1129999999
 20
1217069.2796999998
 10
121906.14030000009
 20
1217068.6961000003
 10
121907.0203999998
 20
1217068.6762000006
 10
121907.82940000016
 20
1217069.0581
 10
121908.32029999979
 20
1217069.5272000004
 10
121909.12760000024
 20
1217069.8290999997
 10
121910.17109999992
 20
1217069.9655000009
 10
121911.36760000046
 20
1217069.7783000004
 10
121911.77120000031
 20
1217069.9291999992
 10
121913.53309999965
 20
1217069.9693
 10
121914.39309999999
 20
1217069.0692999996
 10
121915.9877000004
 20
1217068.7930999994
 10
121916.85500000045
 20
1217068.2130999994
 10
121917.89499999955
 20
1217068.1896000002
 10
121920.86950000003
 20
1217068.7624999993
 10
121924.6277999999
 20
1217068.5972000007
 10
121924.94049999956
 20
1217068.2699999996
 10
121925.15689999983
 20
1217067.2246000003
 10
121925.85699999984
 20
1217066.3281999994
 10
121926.64609999955
 20
1217065.8301
 10
121927.99899999984
 20
1217065.4792
 10
121929.43900000025
 20
1217065.4465999994
 10
121930.97520000022
 20
1217066.1322000008
 10
121931.7098000003
 20
1217066.7557999995
 10
121933.38069999963
 20
1217066.3178000003
 10
121935.0625
 20
1217066.3597
 10
121935.86980000045
 20
1217066.6615999993
 10
121937.78079999983
 20
1217066.2181000002
 10
121938.80810000002
 20
1217065.6345000006
 10
121939.84449999966
 20
1217065.4507999998
 10
121940.87179999985
 20
1217064.8673
 10
121942.3136
 20
1217064.9146999996
 10
121943.74459999986
 20
1217064.4820000008
 10
121945.90460000001
 20
1217064.4330000002
 10
121946.22279999964
 20
1217064.3457999993
 10
121947.16469999962
 20
1217063.5240000002
 10
121947.55559999961
 20
1217063.1149000004
 10
121947.85929999966
 20
1217062.3877000008
 10
121950.08299999963
 20
1217061.6169000007
 10
121950.86670000013
 20
1217060.8787999991
 10
121950.93039999995
 20
1217060.1568999998
 10
121950.59949999955
 20
1217059.6842
 10
121950.59229999967
 20
1217059.3641999997
 10
121950.87959999964
 20
1217057.9168999996
 10
121951.1941999998
 20
1217057.6697000004
 10
121951.33600000013
 20
1217056.8660000004
 10
121951.96339999977
 20
1217056.2915000003
 10
121952.51970000006
 20
1217056.1187999994
 10
121953.31969999988
 20
1217056.1007000003
 10
121954.53969999962
 20
1217056.9535000008
 10
121954.78689999972
 20
1217057.2679999992
 10
121955.05059999973
 20
1217058.3026
 10
121956.51049999986
 20
1217059.1500000004
 10
121956.67599999998
 20
1217059.3862999994
 10
121956.85410000011
 20
1217060.1827000007
 10
121956.96659999993
 20
1217060.2903000005
 10
121957.70849999972
 20
1217062.5646000002
 10
121959.53920000046
 20
1217065.6447
 10
121960.2246000003
 20
1217067.6303000003
 10
121960.4935999997
 20
1217068.9048999995
 10
121960.30989999976
 20
1217071.3903
 10
121961.09690000024
 20
1217074.3340000007
 10
121961.35309999995
 20
1217078.5704999994
 10
121962.16390000004
 20
1217079.0324000008
 10
121961.94739999995
 20
1217080.0778
 10
121962.04729999974
 20
1217084.4779000003
 10
121962.29629999958
 20
1217084.8724000007
 10
121962.40350000001
 20
1217086.0705999993
 10
121963.7433000002
 20
1217088.6817000005
 10
121964.03780000005
 20
1217091.076199999
 10
121964.18439999968
 20
1217101.0781999994
 10
121965.00069999974
 20
1217101.7799999993
 10
121964.53340000007
 20
1217102.3509
 10
121964.00250000041
 20
1217103.6436
 10
121967.07510000002
 20
1217105.0146999992
 10
121970.03509999998
 20
1217104.9476999994
 10
121970.12789999973
 20
1217105.5057999995
 10
121971.66970000044
 20
1217106.4313999992
 10
121973.42599999998
 20
1217106.2314999998
 10
121976.13159999996
 20
1217105.5298999995
 10
121982.61349999998
 20
1217105.4628999997
 10
121984.5262000002
 20
1217105.0995000005
 10
121986.6063000001
 20
1217105.0523000006
 10
121988.19900000002
 20
1217104.6960000005
 10
121989.56269999966
 20
1217104.8252000008
 10
121994.60089999996
 20
1217104.6308999993
 10
121995.16820000019
 20
1217104.9382000007
 10
121997.56819999963
 20
1217104.8838
 10
122001.1501000002
 20
1217104.0022999998
 10
122007.13750000019
 20
1217103.3061999995
 10
122010.24490000028
 20
1217102.6755
 10
122014.55759999994
 20
1217102.2576000001
 10
122020.56309999991
 20
1217102.3615000006
 10
122024.15230000019
 20
1217101.799900001
 10
122026.13779999968
 20
1217101.1147000007
 10
122028.13790000044
 20
1217101.0692999996
 10
122028.77419999987
 20
1217100.8948
 10
122030.85599999968
 20
1217100.9276
 10
122031.79389999993
 20
1217100.6467000004
  0
LWPOLYLINE
  5
35
330
17
100
AcDbEntity
  8
0
100
AcDbPolyline
 90
1556
 70
1
 10
121791.52639999986
 20
1217518.2491999995
 10
121796.24120000005
 20
1217515.1702999994
 10
121796.1780000003
 20
1217514.3017999995
 10
121796.48159999959
 20
1217513.5745
 10
121796.79619999975
 20
1217513.3271999992
 10
121798.62349999975
 20
1217512.7255000006
 10
121799.08899999969
 20
1217512.0746
 10
121800.45449999999
 20
1217512.2838000003
 10
121800.7516999999
 20
1217512.2248
 10
122166.88540000003
 20
1217273.1283999998
 10
122031.79389999993
 20
1217100.6467000004
 10
122030.85599999968
 20
1217100.9276
 10
122028.77419999987
 20
1217100.8948
 10
122028.13790000044
 20
1217101.0692999996
 10
122026.13779999968
 20
1217101.1147000007
 10
122024.15230000019
 20
1217101.799900001
 10
122020.56309999991
 20
1217102.3615000006
 10
122014.55759999994
 20
1217102.2576000001
 10
122010.24490000028
 20
1217102.6755
 10
122007.13750000019
 20
1217103.3061999995
 10
122001.1501000002
 20
1217104.0022999998
 10
121997.56819999963
 20
1217104.8838
 10
121995.16820000019
 20
1217104.9382000007
 10
121994.60089999996
 20
1217104.6308999993
 10
121989.56269999966
 20
1217104.8252000008
 10
121988.19900000002
 20
1217104.6960000005
 10
121986.6063000001
 20
1217105.0523000006
 10
121984.5262000002
 20
1217105.0995000005
 10
121982.61349999998
 20
1217105.4628999997
 10
121976.13159999996
 20
1217105.5298999995
 10
121973.42599999998
 20
1217106.2314999998
 10
121971.66970000044
 20
1217106.4313999992
 10
121970.12789999973
 20
1217105.5057999995
 10
121970.03509999998
 20
1217104.9476999994
 10
121967.07510000002
 20
1217105.0146999992
 10
121964.00250000041
 20
1217103.6436
 10
121964.53340000007
 20
1217102.3509
 10
121965.00069999974
 20
1217101.7799999993
 10
121964.18439999968
 20
1217101.0781999994
 10
121964.03780000005
 20
1217091.076199999
 10
121963.7433000002
 20
1217088.6817000005
 10
121962.40350000001
 20
1217086.0705999993
 10
121962.29629999958
 20
1217084.8724000007
 10
121962.04729999974
 20
1217084.4779000003
 10
121961.94739999995
 20
1217080.0778
 10
121962.16390000004
 20
1217079.0324000008
 10
121961.35309999995
 20
1217078.5704999994
 10
121961.09690000024
 20
1217074.3340000007
 10
121960.30989999976
 20
1217071.3903
 10
121960.4935999997
 20
1217068.9048999995
 10
121960.2246000003
 20
1217067.6303000003
 10
121959.53920000046
 20
1217065.6447
 10
121957.70849999972
 20
1217062.5646000002
 10
121956.96659999993
 20
1217060.2903000005
 10
121956.85410000011
 20
1217060.1827000007
 10
121956.67599999998
 20
1217059.3862999994
 10
121956.51049999986
 20
1217059.1500000004
 10
121955.05059999973
 20
1217058.3026
 10
121954.78689999972
 20
1217057.2679999992
 10
121954.53969999962
 20
1217056.9535000008
 10
121953.31969999988
 20
1217056.1007000003
 10
121952.51970000006
 20
1217056.1187999994
 10
121951.96339999977
 20
1217056.2915000003
 10
121951.33600000013
 20
1217056.8660000004
 10
121951.1941999998
 20
1217057.6697000004
 10
121950.87959999964
 20
1217057.9168999996
 10
121950.59229999967
 20
1217059.3641999997
 10
121950.59949999955
 20
1217059.6842
 10
121950.93039999995
 20
1217060.1568999998
 10
121950.86670000013
 20
1217060.8787999991
 10
121950.08299999963
 20
1217061.6169000007
 10
121947.85929999966
 20
1217062.3877000008
 10
121947.55559999961
 20
1217063.1149000004
 10
121947.16469999962
 20
1217063.5240000002
 10
121946.22279999964
 20
1217064.3457999993
 10
121945.90460000001
 20
1217064.4330000002
 10
121943.74459999986
 20
1217064.4820000008
 10
121942.3136
 20
1217064.9146999996
 10
121940.87179999985
 20
1217064.8673
 10
121939.84449999966
 20
1217065.4507999998
 10
121938.80810000002
 20
1217065.6345000006
 10
121937.78079999983
 20
1217066.2181000002
 10
121935.86980000045
 20
1217066.6615999993
 10
121935.0625
 20
1217066.3597
 10
121933.38069999963
 20
1217066.3178000003
 10
121931.7098000003
 20
1217066.7557999995
 10
121930.97520000022
 20
1217066.1322000008
 10
121929.43900000025
 20
1217065.4465999994
 10
121927.99899999984
 20
1217065.4792
 10
121926.64609999955
 20
1217065.8301
 10
121925.85699999984
 20
1217066.3281999994
 10
121925.15689999983
 20
1217067.2246000003
 10
121924.94049999956
 20
1217068.2699999996
 10
121924.6277999999
 20
1217068.5972000007
 10
121920.86950000003
 20
1217068.7624999993
 10
121917.89499999955
 20
1217068.1896000002
 10
121916.85500000045
 20
1217068.2130999994
 10
121915.9877000004
 20
1217068.7930999994
 10
121914.39309999999
 20
1217069.0692999996
 10
121913.53309999965
 20
1217069.9693
 10
121911.77120000031
 20
1217069.9291999992
 10
121911.36760000046
 20
1217069.7783000004
 10
121910.17109999992
 20
1217069.9655000009
 10
121909.12760000024
 20
1217069.8290999997
 10
121908.32029999979
 20
1217069.5272000004
 10
121907.82940000016
 20
1217069.0581
 10
121907.0203999998
 20
1217068.6762000006
 10
121906.14030000009
 20
1217068.6961000003
 10
121905.1129999999
 20
1217069.2796999998
 10
121904.01470000017
 20
1217070.2651000004
 10
121902.82380000036
 20
1217070.6922999993
 10
121901.62189999968
 20
1217070.6394999996
 10
121900.08930000011
 20
1217070.1139000002
 10
121896.34190000035
 20
1217070.759299999
 10
121894.68539999984
 20
1217071.8373000007
 10
121894.30900000036
 20
1217072.8863999993
 10
121893.83990000002
 20
1217073.3772999998
 10
121891.53259999957
 20
1217073.9899000004
 10
121891.14699999988
 20
1217074.6389000006
 10
121890.35790000018
 20
1217075.1371
 10
121888.50889999978
 20
1217074.7787999995
 10
121887.29789999966
 20
1217074.3259999994
 10
121885.13609999977
 20
1217074.2949
 10
121884.25970000029
 20
1217074.4748999998
 10
121883.23419999983
 20
1217075.1384999994
 10
121881.48149999976
 20
1217075.4984000009
 10
121880.91060000006
 20
1217075.0310999993
 10
121880.74149999954
 20
1217074.6347000003
 10
121879.76699999999
 20
1217074.0165
 10
121879.18510000035
 20
1217073.0691999998
 10
121878.78160000034
 20
1217072.9181999993
 10
121878.26169999968
 20
1217071.1690999996
 10
121877.61079999991
 20
1217070.7035000008
 10
121876.24170000013
 20
1217070.3343000002
 10
121875.48720000032
 20
1217068.8307000007
 10
121874.43090000004
 20
1217068.134299999
 10
121874.33820000011
 20
1217067.5759999994
 10
121873.76910000015
 20
1217067.1886999998
 10
121873.60190000013
 20
1217066.8723000009
 10
121873.32380000036
 20
1217065.1976999994
 10
121872.91110000014
 20
1217064.6468000002
 10
121872.30939999968
 20
1217062.819599999
 10
121871.08029999956
 20
1217061.5667000003
 10
121869.62939999998
 20
1217061.1194000002
 10
121869.21490000002
 20
1217060.4883999992
 10
121868.56950000022
 20
1217060.2628000006
 10
121868.39859999996
 20
1217059.7864999995
 10
121867.83669999987
 20
1217059.7192000002
 10
121867.58050000016
 20
1217059.0045999996
 10
121867.01319999993
 20
1217058.6973
 10
121866.75870000012
 20
1217058.0627999995
 10
121865.54959999956
 20
1217057.6898999996
 10
121865.22229999956
 20
1217057.3772
 10
121864.49870000035
 20
1217057.2336
 10
121863.60599999968
 20
1217056.6934999991
 10
121862.2368999999
 20
1217056.3242000006
 10
121861.82419999968
 20
1217055.7732999995
 10
121861.42059999984
 20
1217055.6224000007
 10
121861.00600000005
 20
1217054.9914999995
 10
121860.11699999962
 20
1217054.6114000008
 10
121859.62249999959
 20
1217053.9823000003
 10
121859.1370000001
 20
1217053.7532000002
 10
121858.63350000046
 20
1217052.7239999995
 10
121858.22439999972
 20
1217052.3331000004
 10
121856.61160000041
 20
1217051.8092999998
 10
121856.11890000012
 20
1217051.2601999994
 10
121855.15529999975
 20
1217051.1219999995
 10
121853.93539999984
 20
1217050.269200001
 10
121853.45359999966
 20
1217050.1999999993
 10
121851.7790000001
 20
1217050.4781999998
 10
121850.59350000042
 20
1217051.1454000007
 10
121849.39890000038
 20
1217051.4124999996
 10
121849.08430000022
 20
1217051.6598000005
 10
121848.6007000003
 20
1217051.5107000005
 10
121846.52070000023
 20
1217051.5578000005
 10
121845.71700000018
 20
1217051.4159999993
 10
121844.5242999997
 20
1217051.7632
 10
121842.70239999983
 20
1217052.6049000006
 10
121839.67499999981
 20
1217053.2337999996
 10
121839.3677000003
 20
1217053.801000001
 10
121838.73319999967
 20
1217054.0555000007
 10
121838.5876000002
 20
1217054.6992000006
 10
121838.27130000014
 20
1217054.8663999997
 10
121837.89309999999
 20
1217055.8355
 10
121837.11479999963
 20
1217056.8136
 10
121835.36569999997
 20
1217057.3335999995
 10
121834.89470000006
 20
1217057.7445
 10
121833.94379999954
 20
1217058.1662000008
 10
121831.85470000003
 20
1217057.8134000003
 10
121830.80379999988
 20
1217057.3570000008
 10
121828.48010000028
 20
1217057.2495000008
 10
121828.16559999995
 20
1217057.4967999998
 10
121827.8618999999
 20
1217058.2239999995
 10
121827.54550000001
 20
1217058.3913000003
 10
121825.15820000041
 20
1217059.0057999995
 10
121823.87999999989
 20
1217059.1147000007
 10
121818.90000000037
 20
1217058.3471000008
 10
121813.70179999992
 20
1217058.545
 10
121810.65629999992
 20
1217058.3739
 10
121808.26709999982
 20
1217058.9082999993
 10
121806.73979999963
 20
1217058.6228
 10
121804.25980000012
 20
1217058.6789999995
 10
121802.73249999993
 20
1217058.3935000002
 10
121801.45249999966
 20
1217058.4223999996
 10
121800.40160000045
 20
1217057.966
 10
121799.75980000012
 20
1217057.9005999994
 10
121797.60340000037
 20
1217058.1095000003
 10
121796.4924999997
 20
1217058.5349000003
 10
121794.65240000002
 20
1217058.5766000003
 10
121793.93609999958
 20
1217058.7529000007
 10
121793.19790000003
 20
1217057.9692000002
 10
121792.47059999965
 20
1217057.6655000001
 10
121789.98149999976
 20
1217057.3216999993
 10
121787.9905000003
 20
1217057.7671000008
 10
121787.66700000037
 20
1217057.6143999994
 10
121786.46690000035
 20
1217057.6415999997
 10
121785.25239999965
 20
1217057.0287999995
 10
121780.93599999975
 20
1217057.2866999991
 10
121780.20870000031
 20
1217056.9828999992
 10
121778.84869999997
 20
1217057.0139000006
 10
121778.68510000035
 20
1217056.8574
 10
121778.57239999995
 20
1217055.4192999993
 10
121778.79970000032
 20
1217054.8538000006
 10
121778.8543999996
 20
1217053.731899999
 10
121778.5234000003
 20
1217053.2591999993
 10
121777.87619999982
 20
1217052.9537000004
 10
121776.75260000024
 20
1217052.8191
 10
121775.37619999982
 20
1217052.1298999991
 10
121773.44900000002
 20
1217051.8533999994
 10
121772.80169999972
 20
1217051.5479000006
 10
121770.30709999986
 20
1217050.9640999995
 10
121768.94710000046
 20
1217050.9949999992
 10
121767.36529999971
 20
1217051.8312999997
 10
121764.41970000044
 20
1217052.5383000001
 10
121761.81410000008
 20
1217054.1182000004
 10
121757.09229999967
 20
1217054.1451999992
 10
121755.89589999989
 20
1217054.3323999997
 10
121755.50140000042
 20
1217054.5813999996
 10
121753.81589999981
 20
1217054.3795999996
 10
121752.70849999972
 20
1217054.9649
 10
121752.41390000004
 20
1217056.0921999998
 10
121751.70110000018
 20
1217056.4286000002
 10
121748.65020000003
 20
1217056.0174000002
 10
121747.6830000002
 20
1217055.7192000002
 10
121746.64659999963
 20
1217055.9027999993
 10
121746.3320000004
 20
1217056.1500000004
 10
121746.10840000026
 20
1217056.8754999992
 10
121746.13549999986
 20
1217058.0755000003
 10
121745.52099999972
 20
1217059.210000001
 10
121745.30630000029
 20
1217060.3355
 10
121744.67360000033
 20
1217060.67
 10
121744.36440000031
 20
1217061.1572999991
 10
121743.96619999968
 20
1217061.2463000007
 10
121743.58069999982
 20
1217061.8954000007
 10
121743.3406999996
 20
1217061.9008000009
 10
121742.79700000025
 20
1217062.6335000005
 10
121741.9989
 20
1217062.7315999996
 10
121739.3515999997
 20
1217062.4715
 10
121738.87700000033
 20
1217062.7224000003
 10
121737.99880000018
 20
1217062.8223
 10
121735.51879999973
 20
1217062.8785999995
 10
121734.39510000031
 20
1217062.7438999992
 10
121734.06960000005
 20
1217062.5111999996
 10
121733.89879999962
 20
1217062.0348000005
 10
121732.69330000039
 20
1217061.8220000006
 10
121730.78060000017
 20
1217062.1855999995
 10
121729.17870000005
 20
1217062.1417999994
 10
121727.82780000009
 20
1217062.5726999994
 10
121727.26779999956
 20
1217062.5853000004
 10
121726.0569000002
 20
1217062.1325000003
 10
121724.30040000007
 20
1217062.3323999997
 10
121723.4804999996
 20
1217061.4705999997
 10
121722.5206000004
 20
1217061.4923
 10
121721.33320000023
 20
1217062.079500001
 10
121720.85319999978
 20
1217062.0903999992
 10
121719.16229999997
 20
1217061.6483999994
 10
121717.8822999997
 20
1217061.6775000002
 10
121715.79320000019
 20
1217061.3246
 10
121714.43319999985
 20
1217061.3554999996
 10
121712.5203999998
 20
1217061.7190000005
 10
121710.93670000043
 20
1217062.4751999993
 10
121708.7675999999
 20
1217062.1241999995
 10
121702.76750000007
 20
1217062.2601999994
 10
121702.2165000001
 20
1217062.6729000006
 10
121701.99110000022
 20
1217063.3182999995
 10
121700.15469999984
 20
1217063.5200999994
 10
121698.81460000016
 20
1217064.4309
 10
121695.20010000002
 20
1217063.8725000005
 10
121693.53450000007
 20
1217064.5505999997
 10
121693.30179999955
 20
1217064.8760000002
 10
121692.1127000004
 20
1217065.383199999
 10
121691.64180000033
 20
1217065.7941999994
 10
121690.60360000003
 20
1217065.8977000006
 10
121686.80719999969
 20
1217064.3828999996
 10
121685.68169999961
 20
1217064.168299999
 10
121685.3563000001
 20
1217063.9355999995
 10
121683.50910000037
 20
1217063.6571999993
 10
121682.3655000003
 20
1217062.6426
 10
121682.03280000016
 20
1217062.0898000002
 10
121681.22190000024
 20
1217061.6280000005
 10
121678.34910000023
 20
1217062.0132999998
 10
121676.51999999955
 20
1217062.5350000001
 10
121674.78529999964
 20
1217063.6949000005
 10
121672.71609999985
 20
1217064.2221000008
 10
121672.40160000045
 20
1217064.4693
 10
121669.2070000004
 20
1217064.7818
 10
121668.57419999968
 20
1217065.1163999997
 10
121667.51410000026
 20
1217067.7818
 10
121667.27950000018
 20
1217068.0272000004
 10
121667.05950000044
 20
1217068.9126999993
 10
121667.16299999971
 20
1217069.9508999996
 10
121667.03019999992
 20
1217071.1546
 10
121666.49739999976
 20
1217072.3673
 10
121666.1847000001
 20
1217072.6944999993
 10
121665.55009999964
 20
1217072.948999999
 10
121664.43010000046
 20
1217072.9744000006
 10
121664.02460000012
 20
1217072.7434999999
 10
121663.38470000029
 20
1217072.7579999994
 10
121662.99370000046
 20
1217073.1670999993
 10
121660.84999999963
 20
1217073.9360000007
 10
121659.40089999977
 20
1217073.5687000006
 10
121659.23539999966
 20
1217073.3322
 10
121658.83550000004
 20
1217073.3412999995
 10
121658.37179999985
 20
1217074.0722000003
 10
121658.05360000022
 20
1217074.1593999993
 10
121657.0334999999
 20
1217075.0631000008
 10
121656.88260000013
 20
1217075.4666000009
 10
121656.1699000001
 20
1217075.8029999994
 10
121655.87700000033
 20
1217077.0102999993
 10
121654.86060000025
 20
1217078.0738999993
 10
121654.79150000028
 20
1217078.5557000004
 10
121654.5569000002
 20
1217078.8012000006
 10
121651.67870000005
 20
1217078.9463999998
 10
121648.63499999978
 20
1217078.8553
 10
121647.34229999967
 20
1217078.3243000004
 10
121643.97499999963
 20
1217078.0804999992
 10
121641.27309999987
 20
1217078.9420999996
 10
121640.96219999995
 20
1217079.3494000006
 10
121640.74210000038
 20
1217080.2348999996
 10
121639.86569999997
 20
1217080.4147999994
 10
121638.73660000041
 20
1217080.0402000006
 10
121637.69840000011
 20
1217080.1437
 10
121637.31840000022
 20
1217081.0328000002
 10
121637.2527999999
 20
1217081.6746999994
 10
121636.78019999992
 20
1217082.0055999998
 10
121635.02010000031
 20
1217082.0453999992
 10
121634.2274000002
 20
1217082.3836000003
 10
121633.03100000042
 20
1217082.5708000008
 10
121632.30740000028
 20
1217082.427100001
 10
121629.67100000009
 20
1217082.6469999999
 10
121627.98730000015
 20
1217082.5251000002
 10
121627.75270000007
 20
1217082.7704000007
 10
121627.76360000018
 20
1217083.2504999992
 10
121628.20349999983
 20
1217085.0013999995
 10
121628.13439999986
 20
1217085.4833000004
 10
121626.94350000005
 20
1217085.9103999995
 10
121625.4252000004
 20
1217086.0250000004
 10
121625.11969999969
 20
1217086.6721
 10
121625.05429999996
 20
1217087.3139999993
 10
121624.19230000023
 20
1217088.1338999998
 10
121622.03770000022
 20
1217088.4229000006
 10
121619.70500000007
 20
1217087.9155000001
 10
121619.06510000024
 20
1217087.9299999997
 10
121618.11230000015
 20
1217088.2717000004
 10
121616.93219999969
 20
1217089.1789999995
 10
121615.42669999972
 20
1217089.8534999993
 10
121613.1174999997
 20
1217090.386
 10
121612.15759999957
 20
1217090.4078000002
 10
121609.37559999991
 20
1217091.2712999992
 10
121607.70100000035
 20
1217091.5493
 10
121606.09920000006
 20
1217091.5056999996
 10
121603.20650000032
 20
1217091.0109
 10
121601.17569999956
 20
1217089.6963
 10
121599.39749999996
 20
1217088.9361000005
 10
121596.75200000033
 20
1217088.7558999993
 10
121595.78289999999
 20
1217088.3776999991
 10
121594.57930000033
 20
1217088.2448999994
 10
121592.57749999966
 20
1217088.2102000006
 10
121590.50289999973
 20
1217088.4974000007
 10
121589.85190000013
 20
1217088.0318999998
 10
121589.76470000017
 20
1217087.7137000002
 10
121586.40649999958
 20
1217087.8698999994
 10
121586.07919999957
 20
1217087.5570999999
 10
121585.43379999977
 20
1217087.3315999992
 10
121584.9411000004
 20
1217086.7825000007
 10
121584.45739999972
 20
1217086.6333000008
 10
121584.20660000015
 20
1217086.1588000003
 10
121582.99390000012
 20
1217085.6260000002
 10
121581.94840000011
 20
1217085.4094999991
 10
121580.9720999999
 20
1217084.7113000005
 10
121579.51939999964
 20
1217084.1840000004
 10
121578.78490000032
 20
1217083.5603
 10
121578.53029999975
 20
1217082.9256999996
 10
121578.04310000036
 20
1217082.6165999994
 10
121577.53589999955
 20
1217081.4275000002
 10
121575.04849999957
 20
1217081.1635999996
 10
121573.67949999962
 20
1217080.794399999
 10
121573.35230000038
 20
1217080.4816999994
 10
121573.17949999962
 20
1217079.9253000002
 10
121572.85410000011
 20
1217079.6926000006
 10
121570.7594999997
 20
1217079.0997000001
 10
121570.3432
 20
1217078.3888000008
 10
121569.29600000009
 20
1217078.0923999995
 10
121568.71970000025
 20
1217077.3849999998
 10
121566.30869999994
 20
1217076.9594999999
 10
121565.98330000043
 20
1217076.7267000005
 10
121565.72879999969
 20
1217076.0921999998
 10
121564.51970000006
 20
1217075.7193
 10
121563.78340000007
 20
1217075.0155999996
 10
121563.06149999984
 20
1217074.9519999996
 10
121562.32699999958
 20
1217074.3282999992
 10
121559.60699999984
 20
1217074.3899000008
 10
121558.79059999995
 20
1217073.6881000008
 10
121557.90890000015
 20
1217073.6280000005
 10
121556.32519999985
 20
1217074.3841999993
 10
121555.13239999954
 20
1217074.7314999998
 10
121551.52689999994
 20
1217074.5731000006
 10
121549.17059999984
 20
1217073.0255999994
 10
121548.67599999998
 20
1217072.3965000007
 10
121548.11060000025
 20
1217072.1691999994
 10
121547.03610000014
 20
1217070.672700001
 10
121545.49799999967
 20
1217069.9071999993
 10
121545.08889999986
 20
1217069.5163000003
 10
121544.20170000009
 20
1217069.2161999997
 10
121543.78529999964
 20
1217068.5053000003
 10
121542.65259999968
 20
1217067.9706999995
 10
121541.45079999976
 20
1217067.9178999998
 10
121539.19990000036
 20
1217067.4886000007
 10
121538.2399000004
 20
1217067.510399999
 10
121537.92349999957
 20
1217067.6776
 10
121537.45440000016
 20
1217068.1686000004
 10
121537.22709999979
 20
1217068.7339999992
 10
121534.2433000002
 20
1217071.2829
 10
121532.2341
 20
1217070.928200001
 10
121531.82500000019
 20
1217070.5373
 10
121529.8141999999
 20
1217070.1026000008
 10
121528.43780000042
 20
1217069.4134
 10
121526.52869999968
 20
1217069.9370000008
 10
121526.21600000001
 20
1217070.2642
 10
121526.07039999962
 20
1217070.9078000002
 10
121526.12299999967
 20
1217073.2279000003
 10
121524.60300000012
 20
1217073.2623999994
 10
121524.55389999971
 20
1217074.6240999997
 10
121523.83930000011
 20
1217074.8805
 10
121523.70650000032
 20
1217076.0842000004
 10
121523.16459999979
 20
1217076.8968000002
 10
121523.01730000041
 20
1217077.4605
 10
121521.74089999963
 20
1217077.6494999994
 10
121520.37359999958
 20
1217077.3604000006
 10
121519.58090000041
 20
1217077.6985
 10
121519.12270000018
 20
1217078.6692999993
 10
121519.06259999983
 20
1217079.5512000006
 10
121518.50619999971
 20
1217079.7237999998
 10
121517.95880000014
 20
1217080.296599999
 10
121517.57699999958
 20
1217081.1055999994
 10
121516.70249999966
 20
1217081.3655999992
 10
121516.98959999997
 20
1217083.4401999991
 10
121516.7659
 20
1217084.1656
 10
121516.13499999978
 20
1217084.5801
 10
121515.25860000029
 20
1217084.7600999996
 10
121514.46760000009
 20
1217085.178200001
 10
121512.38760000002
 20
1217085.2254000008
 10
121510.96750000026
 20
1217086.1381
 10
121510.69649999961
 20
1217088.3052999992
 10
121510.22549999971
 20
1217088.7161999997
 10
121509.69089999981
 20
1217089.8488999996
 10
121508.90550000034
 20
1217090.507099999
 10
121506.81269999966
 20
1217089.9941000007
 10
121504.64719999954
 20
1217089.803200001
 10
121502.29999999981
 20
1217088.6557
 10
121501.9637000002
 20
1217087.943
 10
121501.72009999957
 20
1217087.7884
 10
121499.71640000027
 20
1217087.673800001
 10
121498.60539999977
 20
1217088.0990999993
 10
121498.22360000014
 20
1217088.9081999995
 10
121498.67250000034
 20
1217091.0591000002
 10
121498.53980000038
 20
1217092.2628000006
 10
121497.90510000009
 20
1217092.5173000004
 10
121495.26510000043
 20
1217092.5771999992
 10
121492.16870000027
 20
1217093.6878999993
 10
121488.42129999958
 20
1217094.3331000004
 10
121485.68319999985
 20
1217093.5947999991
 10
121484.80310000014
 20
1217093.6147000007
 10
121481.63210000005
 20
1217094.9671999998
 10
121481.16119999997
 20
1217095.3782000002
 10
121479.65029999986
 20
1217095.8125999998
 10
121477.14460000023
 20
1217098.2707000002
 10
121476.3518000003
 20
1217098.6088999994
 10
121473.39180000033
 20
1217098.6758999992
 10
121472.42449999973
 20
1217098.3775999993
 10
121470.7427000003
 20
1217098.3356999997
 10
121469.69359999988
 20
1217097.9593000002
 10
121467.12449999992
 20
1217097.6173
 10
121466.63910000026
 20
1217097.3882
 10
121465.80640000012
 20
1217095.9662999995
 10
121464.52280000038
 20
1217095.8354000002
 10
121462.82830000017
 20
1217095.2334000003
 10
121459.62100000028
 20
1217094.9858999997
 10
121458.4009999996
 20
1217094.1330999993
 10
121457.82650000043
 20
1217093.5058999993
 10
121457.02460000012
 20
1217093.4439000003
 10
121456.13009999972
 20
1217092.8238999993
 10
121454.93010000046
 20
1217092.8510999996
 10
121453.7137000002
 20
1217092.1582999993
 10
121452.67019999959
 20
1217092.0219
 10
121452.10109999962
 20
1217091.6345000006
 10
121451.62650000025
 20
1217091.885399999
 10
121450.98649999965
 20
1217091.8999000005
 10
121450.41930000018
 20
1217091.5925999992
 10
121448.89190000016
 20
1217091.3070999999
 10
121446.16830000002
 20
1217091.2087999992
 10
121444.71920000017
 20
1217090.8413999993
 10
121442.15189999994
 20
1217090.5793999992
 10
121441.1774000004
 20
1217089.9612000007
 10
121440.76649999991
 20
1217089.4902
 10
121437.93929999974
 20
1217088.353599999
 10
121435.99019999988
 20
1217087.1172000002
 10
121434.54119999986
 20
1217086.7498000003
 10
121433.07579999976
 20
1217085.6624999996
 10
121429.76300000027
 20
1217084.2968000006
 10
121428.6266999999
 20
1217083.6021999996
 10
121426.22119999956
 20
1217083.4166
 10
121425.73579999991
 20
1217083.1874000002
 10
121424.66860000044
 20
1217082.0109
 10
121424.50860000029
 20
1217082.0145999994
 10
121423.92499999981
 20
1217080.9872999992
 10
121422.79590000026
 20
1217080.6127000004
 10
121422.54870000016
 20
1217080.2981000002
 10
121421.90139999986
 20
1217079.9925999995
 10
121421.32510000002
 20
1217079.2852999996
 10
121420.35599999968
 20
1217078.9070999995
 10
121419.86689999979
 20
1217078.5178999994
 10
121418.74149999954
 20
1217078.3033000007
 10
121418.17239999957
 20
1217077.9159999993
 10
121416.72149999999
 20
1217077.4685999993
 10
121414.55420000013
 20
1217077.1975999996
 10
121413.7433000002
 20
1217076.7357
 10
121413.49419999961
 20
1217076.3410999998
 10
121412.76879999973
 20
1217076.1174999997
 10
121411.79430000018
 20
1217075.4992999993
 10
121408.32519999985
 20
1217074.2972
 10
121405.92150000017
 20
1217074.1916000005
 10
121405.03610000014
 20
1217073.9715
 10
121404.29609999992
 20
1217073.1077999994
 10
121403.64520000014
 20
1217072.6423000004
 10
121402.36519999988
 20
1217072.6713999994
 10
121398.75430000015
 20
1217072.2729000002
 10
121397.01970000006
 20
1217073.4328000005
 10
121396.64869999979
 20
1217074.7219999991
 10
121396.0996000003
 20
1217075.2146000005
 10
121395.88860000018
 20
1217076.5000999998
 10
121394.55030000024
 20
1217077.4910000004
 10
121394.16660000011
 20
1217078.2200000007
 10
121393.2193
 20
1217078.8017999995
 10
121392.60109999962
 20
1217079.7763
 10
121391.57550000027
 20
1217080.4398999996
 10
121391.1155000003
 20
1217081.3307000007
 10
121390.6445000004
 20
1217081.7416999992
 10
121390.57909999974
 20
1217082.3834000006
 10
121390.8245000001
 20
1217082.6180000007
 10
121390.94799999986
 20
1217084.5362999998
 10
121390.81709999964
 20
1217085.8199000005
 10
121390.44240000006
 20
1217086.948999999
 10
121390.48780000024
 20
1217088.948999999
 10
121389.78050000034
 20
1217089.5252999999
 10
121388.35309999995
 20
1217090.1180000007
 10
121388.1222000001
 20
1217090.5233999994
 10
121388.06570000015
 20
1217091.5651999991
 10
121387.35479999986
 20
1217091.9814999998
 10
121386.7966
 20
1217092.0743000004
 10
121386.48749999981
 20
1217092.5614999998
 10
121386.0800999999
 20
1217095.7723999992
 10
121386.20540000033
 20
1217097.7707000002
 10
121386.62170000002
 20
1217098.4815999996
 10
121386.6651999997
 20
1217100.4015999995
 10
121386.27610000037
 20
1217100.8906999994
 10
121385.8797000004
 20
1217101.0598000009
 10
121385.97970000003
 20
1217101.9379999992
 10
121385.42870000005
 20
1217102.3507000003
 10
121385.13949999958
 20
1217103.7180000003
 10
121384.74859999958
 20
1217104.1270000003
 10
121384.79399999976
 20
1217106.1271000002
 10
121384.57749999966
 20
1217107.1724999994
 10
121383.72470000014
 20
1217108.3925
 10
121382.6919999998
 20
1217108.7360999994
 10
121381.58650000021
 20
1217109.4013999999
 10
121381.36280000024
 20
1217110.1269000005
 10
121380.33359999955
 20
1217110.6305
 10
121379.7134999996
 20
1217111.5250000004
 10
121378.59350000042
 20
1217111.5503000002
 10
121377.64800000004
 20
1217112.2120999992
 10
121377.19159999955
 20
1217113.2631
 10
121376.98070000019
 20
1217114.5484999996
 10
121376.07859999966
 20
1217117.1303000003
 10
121376.16949999984
 20
1217117.6085
 10
121376.82230000012
 20
1217118.1539999992
 10
121377.73840000015
 20
1217119.7339999992
 10
121378.2583999997
 20
1217121.4832000006
 10
121378.90919999965
 20
1217121.9486999996
 10
121379.1492999997
 20
1217121.9431999996
 10
121379.4963999996
 20
1217123.136
 10
121379.98199999984
 20
1217123.3652
 10
121380.47829999961
 20
1217124.0743000004
 10
121381.12729999982
 20
1217124.4597999994
 10
121381.29640000034
 20
1217124.8562000003
 10
121381.94550000038
 20
1217125.2415999994
 10
121382.20179999992
 20
1217125.9562
 10
121383.18169999961
 20
1217126.8145000003
 10
121382.9852
 20
1217128.7399000004
 10
121382.54339999985
 20
1217130.4308000002
 10
121382.31060000043
 20
1217130.7562000006
 10
121382.5850999998
 20
1217132.2708
 10
121382.02869999968
 20
1217132.4436000008
 10
121381.32679999992
 20
1217133.2599
 10
121381.0429999996
 20
1217134.8672000002
 10
121381.07749999966
 20
1217136.3871999998
 10
121381.34470000025
 20
1217137.581700001
 10
121382.84819999989
 20
1217140.3490999993
 10
121383.20260000043
 20
1217141.8619999997
 10
121383.86450000014
 20
1217142.8073999994
 10
121383.97530000005
 20
1217144.1656999998
 10
121383.75879999995
 20
1217145.211100001
 10
121384.16970000044
 20
1217145.682
 10
121384.18059999961
 20
1217146.1620000005
 10
121383.73149999976
 20
1217147.5329999998
 10
121382.37509999983
 20
1217147.7237999998
 10
121381.51130000036
 20
1217148.4637000002
 10
121381.53309999965
 20
1217149.4236999992
 10
121381.94579999987
 20
1217149.9746000003
 10
121382.18759999983
 20
1217150.0492000002
 10
121382.88389999978
 20
1217152.514799999
 10
121382.51470000017
 20
1217153.8838999998
 10
121381.80730000045
 20
1217154.4602000006
 10
121381.65460000001
 20
1217154.7838000003
 10
121381.85089999996
 20
1217156.3802000005
 10
121381.62540000025
 20
1217157.0255999994
 10
121380.91089999955
 20
1217157.2819999997
 10
121380.20710000023
 20
1217158.0183000006
 10
121379.98159999959
 20
1217158.6636999995
 10
121379.58710000012
 20
1217158.9127999991
 10
121379.35979999974
 20
1217159.4781999998
 10
121382.22690000013
 20
1217162.3748000003
 10
121385.6922000004
 20
1217166.9386999998
 10
121388.57210000046
 20
1217166.8734000009
 10
121397.92669999972
 20
1217169.9430999998
 10
121413.41700000037
 20
1217182.3988000005
 10
121418.88019999955
 20
1217190.3592000008
 10
121420.79640000034
 20
1217193.6775000002
 10
121431.29559999984
 20
1217208.4074000008
 10
121442.19319999963
 20
1217219.5263999999
 10
121447.16559999995
 20
1217227.0176999997
 10
121451.59219999984
 20
1217238.6834999993
 10
121453.07739999983
 20
1217244.1728000008
 10
121454.8498999998
 20
1217248.2148000002
 10
121455.4115000004
 20
1217251.8038999997
 10
121453.9330000002
 20
1217257.2003000006
 10
121442.90890000015
 20
1217261.6923999991
 10
121432.25160000008
 20
1217275.301000001
 10
121428.94749999978
 20
1217281.3791000005
 10
121427.05099999998
 20
1217285.9845000003
 10
121425.85800000001
 20
1217289.8534999993
 10
121424.84509999957
 20
1217291.0770999994
 10
121423.32500000019
 20
1217294.6334000006
 10
121420.79729999974
 20
1217299.6533000004
 10
121420.44450000022
 20
1217301.7423999999
 10
121420.54440000001
 20
1217302.6206
 10
121418.52950000018
 20
1217304.2171
 10
121418.72229999956
 20
1217306.9842000008
 10
121417.5038999999
 20
1217309.7333000004
 10
121417.36209999956
 20
1217310.5369000006
 10
121417.54559999984
 20
1217311.5732000005
 10
121418.1453999998
 20
1217312.4301999994
 10
121418.2873999998
 20
1217312.5168999992
 10
121419.6183000002
 20
1217314.7280000001
 10
121419.99260000046
 20
1217317.1207999997
 10
121420.17150000017
 20
1217317.5068999995
 10
121420.40350000001
 20
1217317.5917000007
 10
121420.46549999993
 20
1217318.1206
 10
121420.66530000046
 20
1217318.5461999997
 10
121420.99980000034
 20
1217319.1789999995
 10
121421.73070000019
 20
1217319.6426999997
 10
121421.82340000011
 20
1217320.2008999996
 10
121422.63790000044
 20
1217320.8226999994
 10
121422.57060000021
 20
1217321.3846000005
 10
121423.2921000002
 20
1217322.3187000006
 10
121423.80140000023
 20
1217322.7173999995
 10
121423.91569999978
 20
1217323.3451000005
 10
121424.14910000004
 20
1217323.9301999994
 10
121424.2341
 20
1217324.1482999995
 10
121424.55950000044
 20
1217324.3811000008
 10
121424.74450000003
 20
1217325.0373
 10
121425.15130000003
 20
1217325.7684000004
 10
121425.39400000032
 20
1217325.8828999996
 10
121425.43149999995
 20
1217326.2123000007
 10
121427.0175999999
 20
1217326.8867000006
 10
121428.21939999983
 20
1217326.9395000003
 10
121430.39030000009
 20
1217327.3706
 10
121430.55389999971
 20
1217327.5270000007
 10
121430.6810999997
 20
1217329.6051000003
 10
121430.49199999962
 20
1217330.0897000004
 10
121431.1827999996
 20
1217330.554300001
 10
121431.35190000013
 20
1217330.9507
 10
121432.23739999998
 20
1217331.1708000004
 10
121433.5410000002
 20
1217332.1818000004
 10
121434.26649999991
 20
1217332.4055000003
 10
121434.85010000039
 20
1217333.4328000005
 10
121435.25549999997
 20
1217333.6636999995
 10
121435.58999999985
 20
1217334.2963999994
 10
121436.98809999973
 20
1217335.9455999993
 10
121437.82440000027
 20
1217337.5274999999
 10
121438.26429999992
 20
1217339.2784000002
 10
121437.05310000014
 20
1217342.3476
 10
121436.33469999954
 20
1217345.9657000005
 10
121435.86739999987
 20
1217346.5365999993
 10
121435.57100000046
 20
1217347.583900001
 10
121434.95270000026
 20
1217348.5582999997
 10
121433.23080000002
 20
1217350.2783000004
 10
121431.5689000003
 20
1217351.1163999997
 10
121430.1361999996
 20
1217351.4691000003
 10
121428.87069999985
 20
1217352.1380000003
 10
121428.40330000035
 20
1217352.708900001
 10
121427.61419999972
 20
1217353.2070000004
 10
121427.53959999979
 20
1217353.4488999993
 10
121426.59410000034
 20
1217354.1107
 10
121425.34499999974
 20
1217355.4997000005
 10
121424.39580000006
 20
1217356.0014999993
 10
121423.20129999984
 20
1217356.2687
 10
121422.81390000042
 20
1217356.8377999999
 10
121422.41930000018
 20
1217357.0868999995
 10
121421.42839999963
 20
1217359.2704000007
 10
121421.1118999999
 20
1217359.4376999997
 10
121420.72829999961
 20
1217360.1667999998
 10
121419.87000000011
 20
1217361.1467000004
 10
121419.47360000014
 20
1217361.3158
 10
121419.16260000039
 20
1217361.7230999991
 10
121418.36990000028
 20
1217362.0612000003
 10
121417.33169999998
 20
1217362.1646999996
 10
121416.7807
 20
1217362.5774000008
 10
121415.34619999956
 20
1217362.8500999995
 10
121414.39529999997
 20
1217363.2718000002
 10
121412.55530000012
 20
1217363.3135000002
 10
121411.84619999956
 20
1217363.8099000007
 10
121407.44969999976
 20
1217364.0697000008
 10
121407.06240000017
 20
1217364.638699999
 10
121406.34779999964
 20
1217364.8950999994
 10
121406.03859999962
 20
1217365.3824000005
 10
121402.9386
 20
1217366.3330000006
 10
121402.6222000001
 20
1217366.5002999995
 10
121402.39489999972
 20
1217367.0658
 10
121401.59850000031
 20
1217367.2438999992
 10
121401.21119999979
 20
1217367.8128999993
 10
121401.07120000012
 20
1217368.6965999994
 10
121400.76389999967
 20
1217369.2638000008
 10
121398.62189999968
 20
1217370.1128000002
 10
121397.84370000008
 20
1217371.091
 10
121397.13279999979
 20
1217371.5073000006
 10
121396.75090000033
 20
1217372.3164000008
 10
121395.72169999965
 20
1217372.8200000003
 10
121395.33440000005
 20
1217373.3890000004
 10
121391.75069999974
 20
1217374.1907000002
 10
121391.37069999985
 20
1217375.0798000004
 10
121390.89790000021
 20
1217375.4105999991
 10
121390.68690000009
 20
1217376.6961000003
 10
121390.21600000001
 20
1217377.1070000008
 10
121389.93589999992
 20
1217378.8741999995
 10
121388.50860000029
 20
1217379.4669000003
 10
121387.82110000029
 20
1217380.9232
 10
121386.71920000017
 20
1217381.7486000005
 10
121385.6847000001
 20
1217382.0121999998
 10
121385.38470000029
 20
1217382.8994999994
 10
121385.07189999986
 20
1217383.2267000005
 10
121383.79910000041
 20
1217383.5757
 10
121383.48639999982
 20
1217383.9030000009
 10
121382.84819999989
 20
1217383.9975000005
 10
121382.37550000008
 20
1217384.328400001
 10
121382.26630000025
 20
1217386.5721000005
 10
121381.20419999957
 20
1217389.1575000007
 10
121379.93510000035
 20
1217389.6664000005
 10
121379.17679999955
 20
1217391.5247000009
 10
121378.46219999995
 20
1217391.7809999995
 10
121377.53120000008
 20
1217393.0826999992
 10
121376.57849999983
 20
1217393.4245999996
 10
121376.10929999966
 20
1217393.9154000003
 10
121375.49650000036
 20
1217395.1298999991
 10
121375.4274000004
 20
1217395.6117000002
 10
121375.5365000004
 20
1217396.8900000006
 10
121376.37629999965
 20
1217398.6317999996
 10
121377.6799999997
 20
1217399.6427999996
 10
121378.40539999958
 20
1217399.8664999995
 10
121378.5725999996
 20
1217400.1829000004
 10
121379.29810000025
 20
1217400.4066000003
 10
121380.0399000002
 20
1217401.3502999991
 10
121380.21439999994
 20
1217401.9866000004
 10
121380.93800000008
 20
1217402.1303000003
 10
121381.75430000015
 20
1217402.8323
 10
121381.77070000023
 20
1217403.5523000006
 10
121382.02699999977
 20
1217404.2667999994
 10
121382.43240000028
 20
1217404.4977000002
 10
121383.6177000003
 20
1217407.3523999993
 10
121384.18680000026
 20
1217407.7397000007
 10
121385.01939999964
 20
1217409.1615999993
 10
121385.71030000038
 20
1217411.3871
 10
121386.04289999977
 20
1217411.9397999998
 10
121386.69570000004
 20
1217412.4853000008
 10
121387.04279999994
 20
1217413.6780999992
 10
121387.29009999987
 20
1217413.9926999994
 10
121387.31010000035
 20
1217414.8726000004
 10
121387.73539999966
 20
1217415.9836999997
 10
121388.72989999969
 20
1217417.481899999
 10
121389.38260000013
 20
1217418.0274
 10
121390.26059999969
 20
1217421.4493000004
 10
121390.83139999956
 20
1217421.9166
 10
121391.08600000013
 20
1217422.5512000006
 10
121391.73869999964
 20
1217423.0966999996
 10
121392.3024000004
 20
1217423.2440000009
 10
121395.72970000003
 20
1217422.6060000006
 10
121398.14969999995
 20
1217423.4316000007
 10
121398.32060000021
 20
1217423.9079999998
 10
121398.72780000046
 20
1217424.2189000007
 10
121399.14410000015
 20
1217424.9298999999
 10
121399.40409999993
 20
1217425.8045000006
 10
121400.6222000001
 20
1217426.577299999
 10
121400.96219999995
 20
1217427.4499999993
 10
121401.6149000004
 20
1217427.9955000002
 10
121402.20930000022
 20
1217429.5028000008
 10
121403.9020999996
 20
1217430.0248000007
 10
121404.88929999992
 20
1217431.2029999997
 10
121405.3711000001
 20
1217431.2720999997
 10
121405.87289999984
 20
1217432.2213000003
 10
121406.52560000028
 20
1217432.7667999994
 10
121407.12550000008
 20
1217434.5141000003
 10
121408.01630000025
 20
1217434.9741999991
 10
121408.27089999989
 20
1217435.6086999997
 10
121408.67640000023
 20
1217435.8396000005
 10
121408.85809999984
 20
1217436.7961
 10
121408.91610000003
 20
1217439.3561000004
 10
121409.08880000003
 20
1217439.9124999996
 10
121410.48149999976
 20
1217441.3216999993
 10
121410.73419999983
 20
1217441.8761999998
 10
121411.46509999968
 20
1217442.3399999999
 10
121412.56680000015
 20
1217445.0362999998
 10
121413.30669999961
 20
1217445.9001000002
 10
121414.1157999998
 20
1217446.2818999998
 10
121415.27749999985
 20
1217448.0965
 10
121416.08660000004
 20
1217448.4783999994
 10
121416.66289999988
 20
1217449.1857999992
 10
121417.06659999955
 20
1217449.3366999999
 10
121417.48110000044
 20
1217449.9675999992
 10
121418.04470000044
 20
1217450.1149000004
 10
121419.02280000038
 20
1217450.8932000007
 10
121419.34460000042
 20
1217450.9659000002
 10
121419.76099999994
 20
1217451.6768999994
 10
121419.18620000035
 20
1217454.5713999998
 10
121418.79530000035
 20
1217454.9804999996
 10
121418.72989999969
 20
1217455.6223000009
 10
121418.09350000042
 20
1217455.7968000006
 10
121417.70969999954
 20
1217456.5259000007
 10
121418.22780000046
 20
1217458.1951000001
 10
121418.17690000031
 20
1217459.4769000001
 10
121418.0223000003
 20
1217459.7204999998
 10
121417.46410000045
 20
1217459.8132000007
 10
121416.99500000011
 20
1217460.3039999995
 10
121416.48570000008
 20
1217462.5568000004
 10
121416.5038999999
 20
1217463.3567999993
 10
121416.83660000004
 20
1217463.9094999991
 10
121417.64749999996
 20
1217464.3714000005
 10
121417.98199999984
 20
1217465.0042000003
 10
121419.13279999979
 20
1217466.3388999999
 10
121419.52350000013
 20
1217469.4517
 10
121419.47439999972
 20
1217470.8134000003
 10
121418.40519999992
 20
1217473.0789
 10
121418.09059999976
 20
1217473.3260999992
 10
121417.78509999998
 20
1217473.9734000005
 10
121417.56500000041
 20
1217474.8587999996
 10
121416.77770000044
 20
1217475.4370000008
 10
121415.6649000002
 20
1217475.7824000008
 10
121415.19940000027
 20
1217476.4332999997
 10
121414.96129999962
 20
1217476.5187
 10
121414.22840000037
 20
1217479.4968999997
 10
121413.05370000005
 20
1217480.6440999992
 10
121412.90460000001
 20
1217481.1276999991
 10
121412.92090000026
 20
1217481.8476999998
 10
121413.44620000012
 20
1217483.8367999997
 10
121413.78320000041
 20
1217484.616800001
 10
121444.84970000014
 20
1217517.0609000009
 10
121444.85560000036
 20
1217517.0627999995
 10
121446.05740000028
 20
1217517.1155999992
 10
121447.4029000001
 20
1217516.4448000006
 10
121448.42659999989
 20
1217515.7010999992
 10
121448.98300000001
 20
1217515.5285
 10
121449.45399999991
 20
1217515.1175999995
 10
121450.16849999968
 20
1217514.861300001
 10
121451.65770000033
 20
1217513.4667000007
 10
121456.10149999987
 20
1217511.7652000003
 10
121459.15600000042
 20
1217512.3363000005
 10
121460.69049999956
 20
1217512.9419
 10
121464.6941999998
 20
1217513.0111999996
 10
121467.42509999964
 20
1217513.4296000004
 10
121468.3125
 20
1217513.7295999993
 10
121472.07430000044
 20
1217513.7243000008
 10
121474.7324000001
 20
1217514.4645000007
 10
121475.78509999998
 20
1217515.0010000002
 10
121477.0669999998
 20
1217515.0518999994
 10
121478.33430000022
 20
1217514.4629999995
 10
121479.29250000045
 20
1217514.3611999992
 10
121480.40350000001
 20
1217513.9356999993
 10
121480.78890000004
 20
1217513.2866999991
 10
121480.90359999985
 20
1217511.2829999998
 10
121481.70000000019
 20
1217511.1049000006
 10
121482.26730000041
 20
1217511.4122000001
 10
121482.98180000018
 20
1217511.1557999998
 10
121483.21640000027
 20
1217510.9104999993
 10
121483.28560000006
 20
1217510.4286000002
 10
121484.00009999983
 20
1217510.1722999997
 10
121483.9729000004
 20
1217508.9723000005
 10
121484.28380000032
 20
1217508.5649999995
 10
121485.08380000014
 20
1217508.5469000004
 10
121485.48919999972
 20
1217508.7777999993
 10
121487.24569999985
 20
1217508.5779
 10
121488.13289999962
 20
1217508.8780000005
 10
121488.36930000037
 20
1217508.7125000004
 10
121490.28390000015
 20
1217508.4289999995
 10
121491.23300000001
 20
1217507.9272000007
 10
121491.95299999975
 20
1217507.9109000005
 10
121492.92030000035
 20
1217508.2092000004
 10
121493.55669999961
 20
1217508.0347000007
 10
121493.94400000013
 20
1217507.4655000009
 10
121494.50030000042
 20
1217507.2928999998
 10
121503.22049999982
 20
1217507.0953000002
 10
121503.93690000009
 20
1217506.9189
 10
121504.56599999964
 20
1217506.4243
 10
121505.60230000038
 20
1217506.2408000007
 10
121507.13329999987
 20
1217506.6864
 10
121507.6205000002
 20
1217506.9954000004
 10
121508.74600000028
 20
1217507.2101000007
 10
121508.99689999968
 20
1217507.6845999993
 10
121509.56230000034
 20
1217507.9119000006
 10
121510.05869999994
 20
1217508.6209999993
 10
121511.26599999983
 20
1217508.913899999
 10
121511.3496000003
 20
1217509.0721000005
 10
121513.36409999989
 20
1217509.6667999998
 10
121513.4478000002
 20
1217509.8248999994
 10
121515.21679999959
 20
1217510.1850000005
 10
121515.79320000019
 20
1217510.8923000004
 10
121516.84590000007
 20
1217511.4287999999
 10
121517.09310000017
 20
1217511.7434
 10
121518.14219999965
 20
1217512.1197999995
 10
121518.9422000004
 20
1217512.1016000006
 10
121520.2949000001
 20
1217511.7508000005
 10
121521.17499999981
 20
1217511.7309000008
 10
121521.58040000033
 20
1217511.9618999995
 10
121522.85680000018
 20
1217511.7728000004
 10
121523.25860000029
 20
1217511.8436999992
 10
121523.42949999962
 20
1217512.3201000001
 10
121520.87119999994
 20
1217512.4582000002
 10
121514.99299999978
 20
1217514.4323999994
 10
121512.57639999967
 20
1217517.2885999996
 10
121511.09240000043
 20
1217522.4449000005
 10
121510.95409999974
 20
1217523.4085000008
 10
121514.25210000016
 20
1217527.6560999993
 10
121515.3683000002
 20
1217530.9925999995
 10
121515.7246000003
 20
1217532.5853000004
 10
121515.08249999955
 20
1217536.0417
 10
121519.98900000006
 20
1217551.2184999995
 10
121521.73979999963
 20
1217554.3005
 10
121523.81960000005
 20
1217557.7752
 10
121529.76279999968
 20
1217565.7247000001
 10
121532.60989999957
 20
1217567.7412999999
 10
121544.42789999954
 20
1217573.5566000007
 10
121548.98419999983
 20
1217576.8150999993
 10
121553.3496000003
 20
1217578.7171999998
 10
121558.22599999979
 20
1217578.4465999994
 10
121558.54420000035
 20
1217578.3593000006
 10
121558.61880000029
 20
1217578.1174999997
 10
121562.13879999984
 20
1217578.0376999993
 10
121565.16440000013
 20
1217577.3288000003
 10
121567.78259999957
 20
1217576.3090000004
 10
121569.12810000032
 20
1217575.6380000003
 10
121571.64639999997
 20
1217573.7400000002
 10
121574.23020000011
 20
1217571.2002000008
 10
121574.68489999976
 20
1217570.0691999998
 10
121574.59949999955
 20
1217569.8310000002
 10
121573.64670000039
 20
1217570.1729000006
 10
121573.39979999978
 20
1217562.8146000002
 10
121572.33469999954
 20
1217558.1963
 10
121573.28259999957
 20
1217547.0489000008
 10
121573.20660000015
 20
1217540.1669999994
 10
121572.9068
 20
1217537.5325000007
 10
121572.78529999964
 20
1217532.1722999997
 10
121576.0708999997
 20
1217528.8160999995
 10
121576.22190000024
 20
1217528.4124999996
 10
121575.79459999967
 20
1217527.2215999998
 10
121572.60030000005
 20
1217524.0121999998
 10
121570.96609999985
 20
1217519.0066999998
 10
121567.00069999974
 20
1217517.0954999998
 10
121564.48249999993
 20
1217515.4715999998
 10
121563.58729999978
 20
1217515.2618000004
 10
121564.9497999996
 20
1217514.9008000009
 10
121567.34619999956
 20
1217514.6864
 10
121567.83530000038
 20
1217515.0755000003
 10
121570.65170000028
 20
1217515.7320000008
 10
121575.37349999975
 20
1217515.705
 10
121575.68269999977
 20
1217515.2177000009
 10
121576.94089999981
 20
1217514.2287000008
 10
121577.40639999975
 20
1217513.5779
 10
121577.88100000005
 20
1217513.3268999998
 10
121580.52830000035
 20
1217513.5870999992
 10
121582.45920000039
 20
1217514.023600001
 10
121584.45920000039
 20
1217513.9782999996
 10
121586.78830000013
 20
1217514.3257
 10
121589.10099999979
 20
1217513.9530999996
 10
121589.73739999998
 20
1217513.7785999998
 10
121590.20839999989
 20
1217513.3676999994
 10
121591.00480000023
 20
1217513.1896000002
 10
121591.96480000019
 20
1217513.1678
 10
121593.8975999998
 20
1217513.6842999998
 10
121594.52670000028
 20
1217513.1897999998
 10
121594.67399999965
 20
1217512.6261
 10
121596.03399999999
 20
1217512.5953000002
 10
121596.60120000038
 20
1217512.9025999997
 10
121597.32120000012
 20
1217512.8862999994
 10
121600.11039999966
 20
1217512.3429000005
 10
121600.52489999961
 20
1217512.9737
 10
121602.55030000024
 20
1217514.0483999997
 10
121603.45940000005
 20
1217515.3085999992
 10
121604.1830000002
 20
1217515.4521999992
 10
121604.50659999996
 20
1217515.6050000004
 10
121604.67389999982
 20
1217515.9212999996
 10
121606.99390000012
 20
1217515.8687999994
 10
121608.1975999996
 20
1217516.0015999991
 10
121608.92659999989
 20
1217516.3851999994
 10
121611.48660000041
 20
1217516.3271999992
 10
121613.11029999983
 20
1217517.3310000002
 10
121614.23390000034
 20
1217517.4655000009
 10
121614.55929999985
 20
1217517.6983000003
 10
121614.81570000015
 20
1217518.4127999991
 10
121615.7901999997
 20
1217519.0311999992
 10
121616.12829999998
 20
1217519.8238999993
 10
121617.67009999976
 20
1217520.7493999992
 10
121617.76279999968
 20
1217521.3077000007
 10
121618.17360000033
 20
1217521.7785999998
 10
121619.38279999979
 20
1217522.1513
 10
121621.14279999956
 20
1217522.1115000006
 10
121621.87189999968
 20
1217522.4951000009
 10
121622.75189999957
 20
1217522.4751999993
 10
121623.48280000035
 20
1217522.9388999995
 10
121624.36459999997
 20
1217522.9989
 10
121624.69369999971
 20
1217523.3916999996
 10
121625.09729999956
 20
1217523.5427
 10
121626.60649999976
 20
1217523.0282000005
 10
121627.88999999966
 20
1217523.1590999998
 10
121628.29729999974
 20
1217523.4700000007
 10
121628.63179999962
 20
1217524.1029000003
 10
121629.35539999977
 20
1217524.2465000004
 10
121629.84269999992
 20
1217524.5556000005
 10
121630.04270000011
 20
1217526.3121000007
 10
121631.00989999995
 20
1217526.6103000008
 10
121632.44089999981
 20
1217526.1776
 10
121634.84269999992
 20
1217526.2031999994
 10
121635.38999999966
 20
1217525.6305
 10
121637.23000000045
 20
1217525.5888
 10
121637.38640000019
 20
1217525.4252000004
 10
121637.44280000031
 20
1217524.3834000006
 10
121637.98469999991
 20
1217523.5705999993
 10
121638.01580000017
 20
1217521.4088000003
 10
121638.48479999974
 20
1217520.9178999998
 10
121638.71210000012
 20
1217520.352499999
 10
121638.82500000019
 20
1217518.2687999997
 10
121638.5943
 20
1217515.1524
 10
121638.73070000019
 20
1217514.1087999996
 10
121638.9561999999
 20
1217513.4633000009
 10
121639.35259999987
 20
1217513.2941999994
 10
121639.39269999973
 20
1217511.5324000008
 10
121639.92920000013
 20
1217510.479699999
 10
121639.91830000002
 20
1217509.9997000005
 10
121640.14919999987
 20
1217509.5942000002
 10
121641.4983000001
 20
1217509.0834999997
 10
121642.38190000039
 20
1217509.2235000003
 10
121644.93829999957
 20
1217509.0054000001
 10
121645.82749999966
 20
1217509.3855000008
 10
121646.78569999989
 20
1217509.2837000005
 10
121647.25480000023
 20
1217508.7928999998
 10
121647.32579999976
 20
1217508.3911000006
 10
121647.14400000032
 20
1217507.4345999993
 10
121647.18769999966
 20
1217505.832800001
 10
121646.92420000024
 20
1217504.7982
 10
121647.61149999965
 20
1217503.3419000003
 10
121652.7352
 20
1217503.3859
 10
121654.40979999956
 20
1217503.1076999996
 10
121654.82249999978
 20
1217503.6587000005
 10
121655.14609999955
 20
1217503.8114999998
 10
121655.2388000004
 20
1217504.3695999999
 10
121655.7405000003
 20
1217505.3188000005
 10
121656.80229999963
 20
1217506.2552000005
 10
121656.89499999955
 20
1217506.8134000003
 10
121657.39499999955
 20
1217507.6824999992
 10
121657.96580000035
 20
1217508.1498000007
 10
121658.4495000001
 20
1217508.2990000006
 10
121658.8677000003
 20
1217509.0899
 10
121659.43670000043
 20
1217509.4772999994
 10
121660.53839999996
 20
1217512.1736999992
 10
121660.94560000021
 20
1217512.4847
 10
121662.35280000046
 20
1217514.5339000002
 10
121662.83999999985
 20
1217514.8429000005
 10
121663.09640000015
 20
1217515.5574999992
 10
121664.47269999981
 20
1217516.2467
 10
121664.80719999969
 20
1217516.8794999998
 10
121666.68350000028
 20
1217518.4376999997
 10
121667.10890000034
 20
1217519.5486999992
 10
121667.92889999971
 20
1217520.4105999991
 10
121668.59970000014
 20
1217521.7561000008
 10
121669.00879999995
 20
1217522.1470999997
 10
121670.52689999994
 20
1217522.0325000007
 10
121673.15070000011
 20
1217521.2526999991
 10
121673.95249999966
 20
1217521.3146000002
 10
121675.46530000027
 20
1217520.9601000007
 10
121680.49810000043
 20
1217520.5259000007
 10
121681.14180000033
 20
1217520.6713999994
 10
121681.72169999965
 20
1217521.5386999995
 10
121682.36710000038
 20
1217521.7642
 10
121682.69440000039
 20
1217522.0768999998
 10
121684.21439999994
 20
1217522.0425000004
 10
121687.5636
 20
1217521.486300001
 10
121688.33820000011
 20
1217520.3482000008
 10
121689.13269999996
 20
1217520.0899999999
 10
121689.8546000002
 20
1217520.1535999998
 10
121692.72559999954
 20
1217519.6884000003
 10
121694.88559999969
 20
1217519.6394999996
 10
121695.45650000032
 20
1217520.1066999994
 10
121697.36930000037
 20
1217519.7432000004
 10
121698.65110000037
 20
1217519.7941999994
 10
121699.22929999977
 20
1217520.5814999994
 10
121701.17650000006
 20
1217521.738
 10
121702.17090000026
 20
1217523.2361999992
 10
121702.7399000004
 20
1217523.6236000005
 10
121703.15270000044
 20
1217524.1744999997
 10
121703.6381000001
 20
1217524.4036999997
 10
121704.15620000008
 20
1217526.0727999993
 10
121705.05979999993
 20
1217527.0928000007
 10
121706.19429999962
 20
1217527.7074999996
 10
121707.44689999986
 20
1217530.0002999995
 10
121707.93960000016
 20
1217530.5494
 10
121708.6668999996
 20
1217530.8531
 10
121709.02489999961
 20
1217532.5259000007
 10
121709.59769999981
 20
1217533.0732000005
 10
121709.76860000007
 20
1217533.5495999996
 10
121710.25580000039
 20
1217533.8586999997
 10
121710.5904000001
 20
1217534.4914999995
 10
121711.40490000043
 20
1217535.1132999994
 10
121715.28839999996
 20
1217536.9463
 10
121715.77940000035
 20
1217537.4155000001
 10
121717.22109999973
 20
1217537.4627999999
 10
121719.92659999989
 20
1217536.7610999998
 10
121721.43219999969
 20
1217536.0866999999
 10
121723.89950000029
 20
1217535.4704
 10
121726.43780000042
 20
1217534.452299999
 10
121728.83229999989
 20
1217534.1579999998
 10
121731.07419999968
 20
1217534.1872000005
 10
121735.69969999976
 20
1217533.4419999998
 10
121736.25609999988
 20
1217533.2693000007
 10
121736.71989999991
 20
1217532.5384
 10
121737.67619999964
 20
1217532.3565999996
 10
121737.98900000006
 20
1217532.0294000003
 10
121737.98350000009
 20
1217531.7894000001
 10
121738.45820000023
 20
1217531.5384999998
 10
121741.42349999957
 20
1217531.7114000004
 10
121741.97269999981
 20
1217531.2186999992
 10
121743.00910000037
 20
1217531.0351
 10
121743.47640000004
 20
1217530.4642999992
 10
121743.95100000035
 20
1217530.2134000007
 10
121745.38549999986
 20
1217529.9408
 10
121746.17470000032
 20
1217529.4426000006
 10
121746.97470000014
 20
1217529.4244
 10
121748.32019999996
 20
1217528.7535999995
 10
121750.94570000004
 20
1217528.0537
 10
121751.18209999986
 20
1217527.8882999998
 10
121751.40759999957
 20
1217527.2427999992
 10
121751.95669999998
 20
1217526.7500999998
 10
121753.23670000024
 20
1217526.7212000005
 10
121754.59130000044
 20
1217526.4503000006
 10
121755.05310000014
 20
1217525.6393999998
 10
121755.26049999986
 20
1217524.1940000001
 10
121755.81329999957
 20
1217523.861300001
 10
121756.12060000002
 20
1217523.2939999998
 10
121756.75329999998
 20
1217522.9594999999
 10
121757.29879999999
 20
1217522.3068000004
 10
121758.49519999977
 20
1217522.1195999999
 10
121760.01889999956
 20
1217522.2451000009
 10
121766.01530000009
 20
1217521.9491000008
 10
121767.12810000032
 20
1217521.6037000008
 10
121770.00079999957
 20
1217521.2183999997
 10
121770.46270000003
 20
1217520.4075000007
 10
121772.37550000008
 20
1217520.0439999998
 10
121773.39379999973
 20
1217519.0604999997
 10
121774.67379999999
 20
1217519.0314000007
 10
121776.26659999974
 20
1217518.6752000004
 10
121778.74289999995
 20
1217518.4590000007
 10
121779.05389999971
 20
1217518.0516
 10
121780.32299999986
 20
1217517.5427
 10
121781.28309999965
 20
1217517.5209
 10
121781.92850000039
 20
1217517.7464000005
 10
121782.49940000009
 20
1217518.2137000002
 10
121784.4411000004
 20
1217519.1302000005
 10
121785.24120000005
 20
1217519.1119999997
 10
121786.19209999964
 20
1217518.6903000008
 10
121786.75219999999
 20
1217518.6776
 10
121787.5429999996
 20
1217518.2594000008
 10
121787.53940000013
 20
1217518.0995000005
 10
121788.3339999998
 20
1217517.8412999995
 10
121789.05399999954
 20
1217517.8249999993
 10
121791.2248999998
 20
1217518.2559999991
 10
121791.52639999986
 20
1217518.2491999995
 10
121543.30649999995
 20
1217474.6499000005
 10
121543.16820000019
 20
1217475.6136000007
 10
121542.21729999967
 20
1217476.0352999996
 10
121541.34100000001
 20
1217476.2151999995
 10
121540.45909999963
 20
1217476.1553000007
 10
121536.2407999998
 20
1217477.2113000005
 10
121538.20100000035
 20
1217475.4059999995
 10
121537.94820000045
 20
1217474.851399999
 10
121537.30460000038
 20
1217474.7059000004
 10
121537.13200000022
 20
1217474.1495999992
 10
121537.83380000014
 20
1217473.3333
 10
121537.09750000015
 20
1217472.6295999996
 10
121535.2555999998
 20
1217472.5912999995
 10
121534.67750000022
 20
1217471.8039999995
 10
121534.81759999972
 20
1217470.9202999994
 10
121533.1939000003
 20
1217469.9165000003
 10
121533.25580000039
 20
1217469.1147000007
 10
121531.64130000025
 20
1217468.511
 10
121531.84499999974
 20
1217466.9056000002
 10
121533.24689999968
 20
1217465.1928000003
 10
121533.48510000017
 20
1217465.1074
 10
121531.51609999966
 20
1217462.9909000006
 10
121531.94909999985
 20
1217460.9000000004
 10
121533.10369999986
 20
1217458.8728
 10
121532.98749999981
 20
1217457.2745999992
 10
121533.59659999982
 20
1217455.9000000004
 10
121533.0111999996
 20
1217454.7928
 10
121533.16029999964
 20
1217454.3091000002
 10
121532.56769999955
 20
1217452.8817999996
 10
121530.06950000022
 20
1217452.1380000003
 10
121531.42410000041
 20
1217451.8671000004
 10
121531.89690000005
 20
1217451.5362999998
 10
121532.03139999975
 20
1217450.4125999995
 10
121533.23330000043
 20
1217450.4653999992
 10
121532.31340000033
 20
1217448.7254000008
 10
121532.22250000015
 20
1217448.2471999992
 10
121532.37519999966
 20
1217447.9234999996
 10
121532.93159999978
 20
1217447.7509000003
 10
121532.92069999967
 20
1217447.2708
 10
121534.18620000035
 20
1217446.6018000003
 10
121534.5608000001
 20
1217445.4726999998
 10
121535.59539999999
 20
1217445.2092000004
 10
121535.65730000008
 20
1217444.4072999991
 10
121535.49189999979
 20
1217444.171
 10
121535.9645999996
 20
1217443.8399999999
 10
121536.10280000046
 20
1217442.8763999995
 10
121537.05559999961
 20
1217442.5347000007
 10
121537.4338999996
 20
1217441.5656000003
 10
121538.63389999978
 20
1217441.5384
 10
121539.24299999978
 20
1217440.163899999
 10
121540.2703999998
 20
1217439.5802999996
 10
121540.17949999962
 20
1217439.102
 10
121540.82679999992
 20
1217439.4076000005
 10
121541.46679999959
 20
1217439.3929999992
 10
121542.02130000014
 20
1217439.1404
 10
121546.63179999962
 20
1217448.320699999
 10
121551.36230000015
 20
1217455.737400001
 10
121551.36959999986
 20
1217456.0574999992
 10
121553.18039999995
 20
1217458.2576000001
 10
121551.45839999989
 20
1217459.977499999
 10
121553.28210000042
 20
1217459.2158000004
 10
121553.52390000038
 20
1217459.2903000005
 10
121550.77649999969
 20
1217461.6739000008
 10
121550.94189999998
 20
1217461.9101999998
 10
121549.52909999993
 20
1217463.1428999994
 10
121547.40170000028
 20
1217464.6317999996
 10
121548.23979999963
 20
1217466.2937000003
 10
121548.8853000002
 20
1217466.5193000007
 10
121551.43960000016
 20
1217469.7431000005
 10
121551.44689999986
 20
1217470.0631000008
 10
121550.96690000035
 20
1217470.073999999
 10
121550.89240000024
 20
1217470.3158
 10
121550.57419999968
 20
1217470.4030000009
 10
121550.58499999996
 20
1217470.8830999993
 10
121550.34690000024
 20
1217470.9684999995
 10
121550.12129999977
 20
1217471.614
 10
121550.54129999969
 20
1217472.4848999996
 10
121551.02670000028
 20
1217472.7139999997
 10
121551.66669999994
 20
1217472.6995
 10
121551.75219999999
 20
1217472.9376999997
 10
121551.12660000008
 20
1217473.5921999998
 10
121551.13389999978
 20
1217473.9123
 10
121550.32299999986
 20
1217473.4504000004
 10
121550.33939999994
 20
1217474.1703999992
 10
121550.7575000003
 20
1217474.9612000007
 10
121550.3629999999
 20
1217475.2103000004
 10
121550.45019999985
 20
1217475.5285
 10
121549.73020000011
 20
1217475.5449
 10
121549.41739999969
 20
1217475.8720999993
 10
121547.12459999975
 20
1217477.1248000003
 10
121546.88279999979
 20
1217477.0502000004
 10
121546.69930000044
 20
1217476.0138000008
 10
121545.80649999995
 20
1217475.4737999998
 10
121545.16289999988
 20
1217475.3281999994
 10
121544.66650000028
 20
1217474.6191000007
 10
121543.30649999995
 20
1217474.6499000005
 10
121576.20330000017
 20
1217442.8478999995
 10
121574.84869999997
 20
1217443.1186999995
 10
121574.86870000046
 20
1217443.9988000002
 10
121574.54499999993
 20
1217443.8460000008
 10
121574.29420000035
 20
1217443.3714000005
 10
121574.35429999977
 20
1217442.489600001
 10
121573.79789999966
 20
1217442.6623
 10
121572.03600000031
 20
1217442.6221999992
 10
121571.65409999993
 20
1217443.4312999994
 10
121570.1342000002
 20
1217443.4657000005
 10
121570.8378999997
 20
1217442.7292999998
 10
121570.79619999975
 20
1217440.8893999998
 10
121570.5270999996
 20
1217439.6148000006
 10
121568.59260000009
 20
1217439.0183000006
 10
121569.36349999998
 20
1217437.7201000005
 10
121569.08370000031
 20
1217435.9656000007
 10
121569.95459999982
 20
1217435.5456000008
 10
121569.94550000038
 20
1217435.1456000004
 10
121569.4274000004
 20
1217433.4765000008
 10
121569.48020000011
 20
1217432.2745999992
 10
121569.15660000034
 20
1217432.1218999997
 10
121569.29480000027
 20
1217431.1582999993
 10
121568.8766999999
 20
1217430.3673
 10
121566.82210000046
 20
1217431.5344999991
 10
121565.28390000015
 20
1217430.7688999996
 10
121564.52940000035
 20
1217429.2652000003
 10
121563.01130000036
 20
1217429.3796999995
 10
121561.22219999973
 20
1217428.1395999994
 10
121560.36039999966
 20
1217428.9594999999
 10
121558.7603000002
 20
1217428.9957999997
 10
121558.50219999999
 20
1217428.201199999
 10
121558.55319999997
 20
1217426.9192999993
 10
121556.73149999976
 20
1217424.2392999995
 10
121556.95160000026
 20
1217423.3538000006
 10
121557.18790000025
 20
1217423.1883000005
 10
121556.93879999965
 20
1217422.7938
 10
121557.00609999988
 20
1217422.2320000008
 10
121556.5970999999
 20
1217421.8410999998
 10
121555.95160000026
 20
1217421.6154999994
 10
121555.85890000034
 20
1217421.0573999994
 10
121553.23000000045
 20
1217418.0753000006
 10
121552.98460000008
 20
1217417.8407000005
 10
121552.34090000018
 20
1217417.6952999998
 10
121552.33729999978
 20
1217417.5352999996
 10
121551.12459999975
 20
1217417.0023999996
 10
121551.35010000039
 20
1217416.3570000008
 10
121551.2592000002
 20
1217415.8789000008
 10
121551.41550000012
 20
1217415.7151999995
 10
121550.76829999965
 20
1217415.4097000007
 10
121550.76290000044
 20
1217415.1697000004
 10
121551.22840000037
 20
1217414.5187999997
 10
121550.33750000037
 20
1217414.0587000009
 10
121550.55750000011
 20
1217413.1733
 10
121550.53760000039
 20
1217412.293299999
 10
121550.84300000034
 20
1217411.6459999997
 10
121552.31960000005
 20
1217409.6915000007
 10
121553.43960000016
 20
1217409.666099999
 10
121554.76879999973
 20
1217408.2752999999
 10
121556.78699999955
 20
1217409.0298999995
 10
121557.40160000045
 20
1217407.8955000006
 10
121558.90890000015
 20
1217407.301000001
 10
121559.34539999999
 20
1217405.3701000009
 10
121559.97269999981
 20
1217404.7956000008
 10
121560.18549999967
 20
1217403.5900999997
 10
121560.72910000011
 20
1217402.8574
 10
121560.62380000018
 20
1217401.7391999997
 10
121561.17470000032
 20
1217401.3265000004
 10
121561.31300000008
 20
1217400.3628000002
 10
121561.93850000016
 20
1217399.7084
 10
121562.23489999957
 20
1217398.6611000001
 10
121562.21860000025
 20
1217397.9410999995
 10
121561.81130000018
 20
1217397.6301000006
 10
121562.35500000045
 20
1217396.897500001
 10
121562.58050000016
 20
1217396.2520000003
 10
121563.15139999986
 20
1217396.7193999998
 10
121564.10960000008
 20
1217396.6175999995
 10
121565.16959999967
 20
1217397.4739999995
 10
121566.04590000026
 20
1217397.2939999998
 10
121566.93140000012
 20
1217397.5140000004
 10
121567.5859000003
 20
1217398.1395999994
 10
121568.45139999967
 20
1217397.4795999993
 10
121569.18410000019
 20
1217398.0232999995
 10
121570.93140000012
 20
1217397.4234999996
 10
121570.60599999968
 20
1217397.1907000002
 10
121570.50059999991
 20
1217396.0724999998
 10
121570.74600000028
 20
1217396.307
 10
121570.82239999995
 20
1217396.1451999992
 10
121570.49519999977
 20
1217395.8324999996
 10
121570.32239999995
 20
1217395.2761000004
 10
121568.87150000036
 20
1217394.8287000004
 10
121567.95349999983
 20
1217393.1686000004
 10
121567.70990000013
 20
1217393.0140000004
 10
121567.07529999968
 20
1217393.2686
 10
121566.32980000041
 20
1217392.1648999993
 10
121565.51900000032
 20
1217391.7029999997
 10
121565.75540000014
 20
1217391.5375999995
 10
121565.74260000046
 20
1217390.9776000008
 10
121565.31539999973
 20
1217389.7865999993
 10
121568.34300000034
 20
1217385.6359
 10
121575.04970000032
 20
1217395.4891
 10
121575.0552000003
 20
1217395.7291
 10
121575.29879999999
 20
1217395.8836000003
 10
121573.78969999962
 20
1217396.3980999999
 10
121573.31869999971
 20
1217396.8090000004
 10
121574.51510000043
 20
1217396.6217999998
 10
121575.38790000044
 20
1217396.2818
 10
121575.71329999994
 20
1217396.5145999994
 10
121584.0
 20
1217408.9734000005
 10
121586.47989999969
 20
1217412.4390999991
 10
121586.48699999973
 20
1217412.7589999996
 10
121588.72329999972
 20
1217416.0702
 10
121592.1975999996
 20
1217421.034
 10
121592.28289999999
 20
1217421.2721999995
 10
121591.10470000003
 20
1217422.2595000006
 10
121590.49010000005
 20
1217423.3939999994
 10
121589.21190000046
 20
1217423.5030000005
 10
121588.8208999997
 20
1217423.9121000003
 10
121588.6026999997
 20
1217424.8774999995
 10
121588.61899999995
 20
1217425.5975000001
 10
121589.03899999987
 20
1217426.4684999995
 10
121588.81709999964
 20
1217427.2739000004
 10
121589.47709999979
 20
1217428.1393999998
 10
121589.6643000003
 20
1217429.3357999995
 10
121590.85340000037
 20
1217428.8286000006
 10
121591.58970000036
 20
1217429.5322999991
 10
121591.6205000002
 20
1217430.8923000004
 10
121591.29679999966
 20
1217434.2613999993
 10
121591.11290000007
 20
1217436.7467999998
 10
121589.41839999985
 20
1217436.1448999997
 10
121588.2966
 20
1217436.0903999992
 10
121586.70760000031
 20
1217433.0846999995
 10
121585.81309999991
 20
1217432.4647000004
 10
121584.22219999973
 20
1217432.9010000005
 10
121581.21839999966
 20
1217434.5699000005
 10
121578.66930000018
 20
1217435.1078999992
 10
121578.60560000036
 20
1217435.8298000004
 10
121578.28920000046
 20
1217435.9969999995
 10
121578.21829999983
 20
1217436.3988000005
 10
121578.22549999971
 20
1217436.7189000007
 10
121578.55279999971
 20
1217437.0316000003
 10
121578.32540000044
 20
1217437.5971000008
 10
121578.4291000003
 20
1217438.6352999993
 10
121578.27630000003
 20
1217438.958900001
 10
121578.69259999972
 20
1217439.6698000003
 10
121578.69809999969
 20
1217439.9098000005
 10
121578.3816999998
 20
1217440.0769999996
 10
121578.64169999957
 20
1217440.9516000003
 10
121577.78340000007
 20
1217441.9316000007
 10
121576.20330000017
 20
1217442.8478999995
 10
121636.97589999996
 20
1217334.2939
 10
121635.45600000024
 20
1217334.328400001
 10
121635.12689999957
 20
1217333.9355999995
 10
121635.10690000001
 20
1217333.0556000005
 10
121638.39620000031
 20
1217329.8594000004
 10
121638.38719999976
 20
1217329.4593000002
 10
121638.63080000039
 20
1217329.6139000002
 10
121639.09269999992
 20
1217328.8029999994
 10
121646.40579999983
 20
1217323.0342999995
 10
121645.99679999985
 20
1217322.6434000004
 10
121645.51669999957
 20
1217322.6543000005
 10
121645.36220000032
 20
1217322.8979000002
 10
121643.38210000005
 20
1217323.8233000003
 10
121642.43840000033
 20
1217324.5649999995
 10
121641.81649999972
 20
1217325.3794999998
 10
121640.94379999954
 20
1217325.7194999997
 10
121640.3002000004
 20
1217325.573999999
 10
121640.37100000028
 20
1217325.1722
 10
121640.04200000037
 20
1217324.7794000003
 10
121639.8674999997
 20
1217324.1429999992
 10
121639.21839999966
 20
1217323.7575000003
 10
121637.02010000031
 20
1217325.6482999995
 10
121636.69639999978
 20
1217325.4956
 10
121636.54009999987
 20
1217325.6591999996
 10
121636.36919999961
 20
1217325.1828000005
 10
121636.21100000013
 20
1217325.2664
 10
121636.13289999962
 20
1217325.3483000007
 10
121634.46549999993
 20
1217325.9463999998
 10
121633.99459999986
 20
1217326.3572000004
 10
121632.80539999995
 20
1217326.8643999994
 10
121632.32540000044
 20
1217326.8752999995
 10
121631.83990000002
 20
1217326.6462999992
 10
121631.29270000011
 20
1217327.2190000005
 10
121631.36349999998
 20
1217326.8170999996
 10
121630.94369999971
 20
1217325.9462000001
 10
121631.4963999996
 20
1217325.613500001
 10
121631.48369999975
 20
1217325.0534000006
 10
121631.30740000028
 20
1217324.3370999992
 10
121630.89470000006
 20
1217323.7861000001
 10
121630.86930000037
 20
1217322.666099999
 10
121631.49839999992
 20
1217322.171599999
 10
121634.19849999994
 20
1217321.2300000004
 10
121632.3496000003
 20
1217317.3498
 10
121634.3788999999
 20
1217315.0626999997
 10
121638.38279999979
 20
1217311.6100999992
 10
121637.93200000003
 20
1217309.3791000005
 10
121638.17019999959
 20
1217309.2937000003
 10
121637.92839999963
 20
1217309.2191000003
 10
121638.0558000002
 20
1217307.7754999995
 10
121636.52840000018
 20
1217307.4899000004
 10
121636.52489999961
 20
1217307.3299000002
 10
121636.98849999998
 20
1217306.5989999995
 10
121638.48489999957
 20
1217305.5245999992
 10
121638.69600000046
 20
1217304.2391
 10
121639.70150000043
 20
1217302.6954999994
 10
121640.64879999962
 20
1217302.1137000006
 10
121642.8088999996
 20
1217302.0647
 10
121642.95799999963
 20
1217301.5812
 10
121644.85809999984
 20
1217300.6576000005
 10
121647.9469999997
 20
1217302.7487000003
 10
121649.91619999986
 20
1217301.3433999997
 10
121650.31989999954
 20
1217301.4943000004
 10
121650.54360000044
 20
1217300.7687999997
 10
121651.01630000025
 20
1217300.4379999992
 10
121652.30539999995
 20
1217300.8090000004
 10
121651.97449999955
 20
1217300.3362000007
 10
121651.40899999999
 20
1217300.1088999994
 10
121651.40539999958
 20
1217299.9488999993
 10
121654.74760000035
 20
1217295.5508999992
 10
121654.98759999964
 20
1217295.545499999
 10
121655.44940000027
 20
1217294.7346
 10
121657.70760000031
 20
1217295.4836999997
 10
121657.79119999986
 20
1217295.6418999992
 10
121657.4748999998
 20
1217295.8092
 10
121657.47840000037
 20
1217295.9693
 10
121657.81300000008
 20
1217296.602
 10
121658.37480000034
 20
1217296.6691999994
 10
121659.80730000045
 20
1217299.8385000005
 10
121666.57940000016
 20
1217312.571799999
 10
121667.76290000044
 20
1217315.3464000002
 10
121667.60470000003
 20
1217315.4299999997
 10
121667.69189999998
 20
1217315.7481999993
 10
121669.13360000029
 20
1217319.3175000008
 10
121667.77720000036
 20
1217319.5083000008
 10
121667.54260000028
 20
1217319.7537999991
 10
121667.64250000007
 20
1217320.6319999993
 10
121665.14780000038
 20
1217323.5700000003
 10
121664.0477
 20
1217324.4754000008
 10
121658.66949999984
 20
1217323.7969000004
 10
121651.02190000005
 20
1217328.9329000004
 10
121648.79279999994
 20
1217329.4637000002
 10
121644.85610000044
 20
1217332.3543999996
 10
121642.39059999958
 20
1217333.0505999997
 10
121642.00150000025
 20
1217333.5396999996
 10
121639.93589999992
 20
1217334.2268000003
 10
121638.95779999997
 20
1217333.4485999998
 10
121637.93780000042
 20
1217334.3520999998
 10
121637.1322999997
 20
1217334.1302000005
 10
121636.97589999996
 20
1217334.2939
  0
LWPOLYLINE
  5
36
330
17
100
AcDbEntity
  8
0
100
AcDbPolyline
 90
339
 70
1
 10
121796.24120000005
 20
1217515.1702999994
 10
121800.7516999999
 20
1217512.2248
 10
121800.45449999999
 20
1217512.2838000003
 10
121799.08899999969
 20
1217512.0746
 10
121798.62349999975
 20
1217512.7255000006
 10
121796.79619999975
 20
1217513.3271999992
 10
121796.48159999959
 20
1217513.5745
 10
121796.1780000003
 20
1217514.3017999995
 10
121796.24120000005
 20
1217515.1702999994
 10
121578.92650000006
 20
1217657.0830000006
 10
121791.52639999986
 20
1217518.2491999995
 10
121791.2248999998
 20
1217518.2559999991
 10
121789.05399999954
 20
1217517.8249999993
 10
121788.3339999998
 20
1217517.8412999995
 10
121787.53940000013
 20
1217518.0995000005
 10
121787.5429999996
 20
1217518.2594000008
 10
121786.75219999999
 20
1217518.6776
 10
121786.19209999964
 20
1217518.6903000008
 10
121785.24120000005
 20
1217519.1119999997
 10
121784.4411000004
 20
1217519.1302000005
 10
121782.49940000009
 20
1217518.2137000002
 10
121781.92850000039
 20
1217517.7464000005
 10
121781.28309999965
 20
1217517.5209
 10
121780.32299999986
 20
1217517.5427
 10
121779.05389999971
 20
1217518.0516
 10
121778.74289999995
 20
1217518.4590000007
 10
121776.26659999974
 20
1217518.6752000004
 10
121774.67379999999
 20
1217519.0314000007
 10
121773.39379999973
 20
1217519.0604999997
 10
121772.37550000008
 20
1217520.0439999998
 10
121770.46270000003
 20
1217520.4075000007
 10
121770.00079999957
 20
1217521.2183999997
 10
121767.12810000032
 20
1217521.6037000008
 10
121766.01530000009
 20
1217521.9491000008
 10
121760.01889999956
 20
1217522.2451000009
 10
121758.49519999977
 20
1217522.1195999999
 10
121757.29879999999
 20
1217522.3068000004
 10
121756.75329999998
 20
1217522.9594999999
 10
121756.12060000002
 20
1217523.2939999998
 10
121755.81329999957
 20
1217523.861300001
 10
121755.26049999986
 20
1217524.1940000001
 10
121755.05310000014
 20
1217525.6393999998
 10
121754.59130000044
 20
1217526.4503000006
 10
121753.23670000024
 20
1217526.7212000005
 10
121751.95669999998
 20
1217526.7500999998
 10
121751.40759999957
 20
1217527.2427999992
 10
121751.18209999986
 20
1217527.8882999998
 10
121750.94570000004
 20
1217528.0537
 10
121748.32019999996
 20
1217528.7535999995
 10
121746.97470000014
 20
1217529.4244
 10
121746.17470000032
 20
1217529.4426000006
 10
121745.38549999986
 20
1217529.9408
 10
121743.95100000035
 20
1217530.2134000007
 10
121743.47640000004
 20
1217530.4642999992
 10
121743.00910000037
 20
1217531.0351
 10
121741.97269999981
 20
1217531.2186999992
 10
121741.42349999957
 20
1217531.7114000004
 10
121738.45820000023
 20
1217531.5384999998
 10
121737.98350000009
 20
1217531.7894000001
 10
121737.98900000006
 20
1217532.0294000003
 10
121737.67619999964
 20
1217532.3565999996
 10
121736.71989999991
 20
1217532.5384
 10
121736.25609999988
 20
1217533.2693000007
 10
121735.69969999976
 20
1217533.4419999998
 10
121731.07419999968
 20
1217534.1872000005
 10
121728.83229999989
 20
1217534.1579999998
 10
121726.43780000042
 20
1217534.452299999
 10
121723.89950000029
 20
1217535.4704
 10
121721.43219999969
 20
1217536.0866999999
 10
121719.92659999989
 20
1217536.7610999998
 10
121717.22109999973
 20
1217537.4627999999
 10
121715.77940000035
 20
1217537.4155000001
 10
121715.28839999996
 20
1217536.9463
 10
121711.40490000043
 20
1217535.1132999994
 10
121710.5904000001
 20
1217534.4914999995
 10
121710.25580000039
 20
1217533.8586999997
 10
121709.76860000007
 20
1217533.5495999996
 10
121709.59769999981
 20
1217533.0732000005
 10
121709.02489999961
 20
1217532.5259000007
 10
121708.6668999996
 20
1217530.8531
 10
121707.93960000016
 20
1217530.5494
 10
121707.44689999986
 20
1217530.0002999995
 10
121706.19429999962
 20
1217527.7074999996
 10
121705.05979999993
 20
1217527.0928000007
 10
121704.15620000008
 20
1217526.0727999993
 10
121703.6381000001
 20
1217524.4036999997
 10
121703.15270000044
 20
1217524.1744999997
 10
121702.7399000004
 20
1217523.6236000005
 10
121702.17090000026
 20
1217523.2361999992
 10
121701.17650000006
 20
1217521.738
 10
121699.22929999977
 20
1217520.5814999994
 10
121698.65110000037
 20
1217519.7941999994
 10
121697.36930000037
 20
1217519.7432000004
 10
121695.45650000032
 20
1217520.1066999994
 10
121694.88559999969
 20
1217519.6394999996
 10
121692.72559999954
 20
1217519.6884000003
 10
121689.8546000002
 20
1217520.1535999998
 10
121689.13269999996
 20
1217520.0899999999
 10
121688.33820000011
 20
1217520.3482000008
 10
121687.5636
 20
1217521.486300001
 10
121684.21439999994
 20
1217522.0425000004
 10
121682.69440000039
 20
1217522.0768999998
 10
121682.36710000038
 20
1217521.7642
 10
121681.72169999965
 20
1217521.5386999995
 10
121681.14180000033
 20
1217520.6713999994
 10
121680.49810000043
 20
1217520.5259000007
 10
121675.46530000027
 20
1217520.9601000007
 10
121673.95249999966
 20
1217521.3146000002
 10
121673.15070000011
 20
1217521.2526999991
 10
121670.52689999994
 20
1217522.0325000007
 10
121669.00879999995
 20
1217522.1470999997
 10
121668.59970000014
 20
1217521.7561000008
 10
121667.92889999971
 20
1217520.4105999991
 10
121667.10890000034
 20
1217519.5486999992
 10
121666.68350000028
 20
1217518.4376999997
 10
121664.80719999969
 20
1217516.8794999998
 10
121664.47269999981
 20
1217516.2467
 10
121663.09640000015
 20
1217515.5574999992
 10
121662.83999999985
 20
1217514.8429000005
 10
121662.35280000046
 20
1217514.5339000002
 10
121660.94560000021
 20
1217512.4847
 10
121660.53839999996
 20
1217512.1736999992
 10
121659.43670000043
 20
1217509.4772999994
 10
121658.8677000003
 20
1217509.0899
 10
121658.4495000001
 20
1217508.2990000006
 10
121657.96580000035
 20
1217508.1498000007
 10
121657.39499999955
 20
1217507.6824999992
 10
121656.89499999955
 20
1217506.8134000003
 10
121656.80229999963
 20
1217506.2552000005
 10
121655.7405000003
 20
1217505.3188000005
 10
121655.2388000004
 20
1217504.3695999999
 10
121655.14609999955
 20
1217503.8114999998
 10
121654.82249999978
 20
1217503.6587000005
 10
121654.40979999956
 20
1217503.1076999996
 10
121652.7352
 20
1217503.3859
 10
121647.61149999965
 20
1217503.3419000003
 10
121646.92420000024
 20
1217504.7982
 10
121647.18769999966
 20
1217505.832800001
 10
121647.14400000032
 20
1217507.4345999993
 10
121647.32579999976
 20
1217508.3911000006
 10
121647.25480000023
 20
1217508.7928999998
 10
121646.78569999989
 20
1217509.2837000005
 10
121645.82749999966
 20
1217509.3855000008
 10
121644.93829999957
 20
1217509.0054000001
 10
121642.38190000039
 20
1217509.2235000003
 10
121641.4983000001
 20
1217509.0834999997
 10
121640.14919999987
 20
1217509.5942000002
 10
121639.91830000002
 20
1217509.9997000005
 10
121639.92920000013
 20
1217510.479699999
 10
121639.39269999973
 20
1217511.5324000008
 10
121639.35259999987
 20
1217513.2941999994
 10
121638.9561999999
 20
1217513.4633000009
 10
121638.73070000019
 20
1217514.1087999996
 10
121638.5943
 20
1217515.1524
 10
121638.82500000019
 20
1217518.2687999997
 10
121638.71210000012
 20
1217520.352499999
 10
121638.48479999974
 20
1217520.9178999998
 10
121638.01580000017
 20
1217521.4088000003
 10
121637.98469999991
 20
1217523.5705999993
 10
121637.44280000031
 20
1217524.3834000006
 10
121637.38640000019
 20
1217525.4252000004
 10
121637.23000000045
 20
1217525.5888
 10
121635.38999999966
 20
1217525.6305
 10
121634.84269999992
 20
1217526.2031999994
 10
121632.44089999981
 20
1217526.1776
 10
121631.00989999995
 20
1217526.6103000008
 10
121630.04270000011
 20
1217526.3121000007
 10
121629.84269999992
 20
1217524.5556000005
 10
121629.35539999977
 20
1217524.2465000004
 10
121628.63179999962
 20
1217524.1029000003
 10
121628.29729999974
 20
1217523.4700000007
 10
121627.88999999966
 20
1217523.1590999998
 10
121626.60649999976
 20
1217523.0282000005
 10
121625.09729999956
 20
1217523.5427
 10
121624.69369999971
 20
1217523.3916999996
 10
121624.36459999997
 20
1217522.9989
 10
121623.48280000035
 20
1217522.9388999995
 10
121622.75189999957
 20
1217522.4751999993
 10
121621.87189999968
 20
1217522.4951000009
 10
121621.14279999956
 20
1217522.1115000006
 10
121619.38279999979
 20
1217522.1513
 10
121618.17360000033
 20
1217521.7785999998
 10
121617.76279999968
 20
1217521.3077000007
 10
121617.67009999976
 20
1217520.7493999992
 10
121616.12829999998
 20
1217519.8238999993
 10
121615.7901999997
 20
1217519.0311999992
 10
121614.81570000015
 20
1217518.4127999991
 10
121614.55929999985
 20
1217517.6983000003
 10
121614.23390000034
 20
1217517.4655000009
 10
121613.11029999983
 20
1217517.3310000002
 10
121611.48660000041
 20
1217516.3271999992
 10
121608.92659999989
 20
1217516.3851999994
 10
121608.1975999996
 20
1217516.0015999991
 10
121606.99390000012
 20
1217515.8687999994
 10
121604.67389999982
 20
1217515.9212999996
 10
121604.50659999996
 20
1217515.6050000004
 10
121604.1830000002
 20
1217515.4521999992
 10
121603.45940000005
 20
1217515.3085999992
 10
121602.55030000024
 20
1217514.0483999997
 10
121600.52489999961
 20
1217512.9737
 10
121600.11039999966
 20
1217512.3429000005
 10
121597.32120000012
 20
1217512.8862999994
 10
121596.60120000038
 20
1217512.9025999997
 10
121596.03399999999
 20
1217512.5953000002
 10
121594.67399999965
 20
1217512.6261
 10
121594.52670000028
 20
1217513.1897999998
 10
121593.8975999998
 20
1217513.6842999998
 10
121591.96480000019
 20
1217513.1678
 10
121591.00480000023
 20
1217513.1896000002
 10
121590.20839999989
 20
1217513.3676999994
 10
121589.73739999998
 20
1217513.7785999998
 10
121589.10099999979
 20
1217513.9530999996
 10
121586.78830000013
 20
1217514.3257
 10
121584.45920000039
 20
1217513.9782999996
 10
121582.45920000039
 20
1217514.023600001
 10
121580.52830000035
 20
1217513.5870999992
 10
121577.88100000005
 20
1217513.3268999998
 10
121577.40639999975
 20
1217513.5779
 10
121576.94089999981
 20
1217514.2287000008
 10
121575.68269999977
 20
1217515.2177000009
 10
121575.37349999975
 20
1217515.705
 10
121570.65170000028
 20
1217515.7320000008
 10
121567.83530000038
 20
1217515.0755000003
 10
121567.34619999956
 20
1217514.6864
 10
121564.9497999996
 20
1217514.9008000009
 10
121563.58729999978
 20
1217515.2618000004
 10
121564.48249999993
 20
1217515.4715999998
 10
121567.00069999974
 20
1217517.0954999998
 10
121570.96609999985
 20
1217519.0066999998
 10
121572.60030000005
 20
1217524.0121999998
 10
121575.79459999967
 20
1217527.2215999998
 10
121576.22190000024
 20
1217528.4124999996
 10
121576.0708999997
 20
1217528.8160999995
 10
121572.78529999964
 20
1217532.1722999997
 10
121572.9068
 20
1217537.5325000007
 10
121573.20660000015
 20
1217540.1669999994
 10
121573.28259999957
 20
1217547.0489000008
 10
121572.33469999954
 20
1217558.1963
 10
121573.39979999978
 20
1217562.8146000002
 10
121573.64670000039
 20
1217570.1729000006
 10
121574.59949999955
 20
1217569.8310000002
 10
121574.68489999976
 20
1217570.0691999998
 10
121574.23020000011
 20
1217571.2002000008
 10
121571.64639999997
 20
1217573.7400000002
 10
121569.12810000032
 20
1217575.6380000003
 10
121567.78259999957
 20
1217576.3090000004
 10
121565.16440000013
 20
1217577.3288000003
 10
121562.13879999984
 20
1217578.0376999993
 10
121558.61880000029
 20
1217578.1174999997
 10
121558.54420000035
 20
1217578.3593000006
 10
121558.22599999979
 20
1217578.4465999994
 10
121553.3496000003
 20
1217578.7171999998
 10
121548.98419999983
 20
1217576.8150999993
 10
121544.42789999954
 20
1217573.5566000007
 10
121532.60989999957
 20
1217567.7412999999
 10
121529.76279999968
 20
1217565.7247000001
 10
121523.81960000005
 20
1217557.7752
 10
121521.73979999963
 20
1217554.3005
 10
121519.98900000006
 20
1217551.2184999995
 10
121515.08249999955
 20
1217536.0417
 10
121515.7246000003
 20
1217532.5853000004
 10
121515.3683000002
 20
1217530.9925999995
 10
121514.25210000016
 20
1217527.6560999993
 10
121510.95409999974
 20
1217523.4085000008
 10
121511.09240000043
 20
1217522.4449000005
 10
121512.57639999967
 20
1217517.2885999996
 10
121514.99299999978
 20
1217514.4323999994
 10
121520.87119999994
 20
1217512.4582000002
 10
121523.42949999962
 20
1217512.3201000001
 10
121523.25860000029
 20
1217511.8436999992
 10
121522.85680000018
 20
1217511.7728000004
 10
121521.58040000033
 20
1217511.9618999995
 10
121521.17499999981
 20
1217511.7309000008
 10
121520.2949000001
 20
1217511.7508000005
 10
121518.9422000004
 20
1217512.1016000006
 10
121518.14219999965
 20
1217512.1197999995
 10
121517.09310000017
 20
1217511.7434
 10
121516.84590000007
 20
1217511.4287999999
 10
121515.79320000019
 20
1217510.8923000004
 10
121515.21679999959
 20
1217510.1850000005
 10
121513.4478000002
 20
1217509.8248999994
 10
121513.36409999989
 20
1217509.6667999998
 10
121511.3496000003
 20
1217509.0721000005
 10
121511.26599999983
 20
1217508.913899999
 10
121510.05869999994
 20
1217508.6209999993
 10
121509.56230000034
 20
1217507.9119000006
 10
121508.99689999968
 20
1217507.6845999993
 10
121508.74600000028
 20
1217507.2101000007
 10
121507.6205000002
 20
1217506.9954000004
 10
121507.13329999987
 20
1217506.6864
 10
121505.60230000038
 20
1217506.2408000007
 10
121504.56599999964
 20
1217506.4243
 10
121503.93690000009
 20
1217506.9189
 10
121503.22049999982
 20
1217507.0953000002
 10
121494.50030000042
 20
1217507.2928999998
 10
121493.94400000013
 20
1217507.4655000009
 10
121493.55669999961
 20
1217508.0347000007
 10
121492.92030000035
 20
1217508.2092000004
 10
121491.95299999975
 20
1217507.9109000005
 10
121491.23300000001
 20
1217507.9272000007
 10
121490.28390000015
 20
1217508.4289999995
 10
121488.36930000037
 20
1217508.7125000004
 10
121488.13289999962
 20
1217508.8780000005
 10
121487.24569999985
 20
1217508.5779
 10
121485.48919999972
 20
1217508.7777999993
 10
121485.08380000014
 20
1217508.5469000004
 10
121484.28380000032
 20
1217508.5649999995
 10
121483.9729000004
 20
1217508.9723000005
 10
121484.00009999983
 20
1217510.1722999997
 10
121483.28560000006
 20
1217510.4286000002
 10
121483.21640000027
 20
1217510.9104999993
 10
121482.98180000018
 20
1217511.1557999998
 10
121482.26730000041
 20
1217511.4122000001
 10
121481.70000000019
 20
1217511.1049000006
 10
121480.90359999985
 20
1217511.2829999998
 10
121480.78890000004
 20
1217513.2866999991
 10
121480.40350000001
 20
1217513.9356999993
 10
121479.29250000045
 20
1217514.3611999992
 10
121478.33430000022
 20
1217514.4629999995
 10
121477.0669999998
 20
1217515.0518999994
 10
121475.78509999998
 20
1217515.0010000002
 10
121474.7324000001
 20
1217514.4645000007
 10
121472.07430000044
 20
1217513.7243000008
 10
121468.3125
 20
1217513.7295999993
 10
121467.42509999964
 20
1217513.4296000004
 10
121464.6941999998
 20
1217513.0111999996
 10
121460.69049999956
 20
1217512.9419
 10
121459.15600000042
 20
1217512.3363000005
 10
121456.10149999987
 20
1217511.7652000003
 10
121451.65770000033
 20
1217513.4667000007
 10
121450.16849999968
 20
1217514.861300001
 10
121449.45399999991
 20
1217515.1175999995
 10
121448.98300000001
 20
1217515.5285
 10
121448.42659999989
 20
1217515.7010999992
 10
121447.4029000001
 20
1217516.4448000006
 10
121446.05740000028
 20
1217517.1155999992
 10
121444.85560000036
 20
1217517.0627999995
 10
121444.84970000014
 20
1217517.0609000009
 10
121578.92650000006
 20
1217657.0830000006
  0
ENDSEC
  0
SECTION
  2
OBJECTS
  0
DICTIONARY
  5
A
330
0
100
AcDbDictionary
280
0
281
1
  3
ACAD_COLOR
350
B
  3
ACAD_GROUP
350
C
  3
ACAD_LAYOUT
350
D
  3
ACAD_MATERIAL
350
E
  3
ACAD_MLEADERSTYLE
350
F
  3
ACAD_MLINESTYLE
350
10
  3
ACAD_PLOTSETTINGS
350
11
  3
ACAD_PLOTSTYLENAME
350
12
  3
ACAD_SCALELIST
350
14
  3
ACAD_TABLESTYLE
350
15
  3
ACAD_VISUALSTYLE
350
16
  3
EZDXF_META
350
2D
  0
DICTIONARY
  5
B
330
A
100
AcDbDictionary
280
0
281
1
  0
DICTIONARY
  5
C
330
A
100
AcDbDictionary
280
0
281
1
  0
DICTIONARY
  5
D
330
A
100
AcDbDictionary
280
0
281
1
  3
Model
350
1A
  3
Layout1
350
1E
  0
DICTIONARY
  5
E
330
A
100
AcDbDictionary
280
0
281
1
  3
ByBlock
350
1F
  3
ByLayer
350
20
  3
Global
350
21
  0
DICTIONARY
  5
F
330
A
100
AcDbDictionary
280
0
281
1
  3
Standard
350
2C
  0
DICTIONARY
  5
10
330
A
100
AcDbDictionary
280
0
281
1
  3
Standard
350
22
  0
DICTIONARY
  5
11
330
A
100
AcDbDictionary
280
0
281
1
  0
ACDBDICTIONARYWDFLT
  5
12
330
A
100
AcDbDictionary
280
0
281
1
  3
Normal
350
13
100
AcDbDictionaryWithDefault
340
13
  0
ACDBPLACEHOLDER
  5
13
330
12
  0
DICTIONARY
  5
14
330
A
100
AcDbDictionary
280
0
281
1
  0
DICTIONARY
  5
15
330
A
100
AcDbDictionary
280
0
281
1
  0
DICTIONARY
  5
16
330
A
100
AcDbDictionary
280
0
281
1
  0
LAYOUT
  5
1A
330
D
100
AcDbPlotSettings
  1

  4
A3
  6

 40
7.5
 41
20.0
 42
7.5
 43
20.0
 44
420.0
 45
297.0
 46
0.0
 47
0.0
 48
0.0
 49
0.0
140
0.0
141
0.0
142
1.0
143
1.0
 70
1024
 72
1
 73
0
 74
5
  7

 75
16
 76
0
 77
2
 78
300
147
1.0
148
0.0
149
0.0
100
AcDbLayout
  1
Model
 70
1
 71
0
 10
0.0
 20
0.0
 11
420.0
 21
297.0
 12
0.0
 22
0.0
 32
0.0
 14
1e+20
 24
1e+20
 34
1e+20
 15
-1e+20
 25
-1e+20
 35
-1e+20
146
0.0
 13
0.0
 23
0.0
 33
0.0
 16
1.0
 26
0.0
 36
0.0
 17
0.0
 27
1.0
 37
0.0
 76
1
330
17
  0
LAYOUT
  5
1E
330
D
100
AcDbPlotSettings
  1

  4
A3
  6

 40
7.5
 41
20.0
 42
7.5
 43
20.0
 44
420.0
 45
297.0
 46
0.0
 47
0.0
 48
0.0
 49
0.0
140
0.0
141
0.0
142
1.0
143
1.0
 70
0
 72
1
 73
0
 74
5
  7

 75
16
 76
0
 77
2
 78
300
147
1.0
148
0.0
149
0.0
100
AcDbLayout
  1
Layout1
 70
1
 71
1
 10
0.0
 20
0.0
 11
420.0
 21
297.0
 12
0.0
 22
0.0
 32
0.0
 14
1e+20
 24
1e+20
 34
1e+20
 15
-1e+20
 25
-1e+20
 35
-1e+20
146
0.0
 13
0.0
 23
0.0
 33
0.0
 16
1.0
 26
0.0
 36
0.0
 17
0.0
 27
1.0
 37
0.0
 76
1
330
1B
  0
MATERIAL
  5
1F
102
{ACAD_REACTORS
330
E
102
}
330
E
100
AcDbMaterial
  1
ByBlock
  2

 70
0
 40
1.0
 71
1
 41
1.0
 91
-1023410177
 42
1.0
 72
1
  3

 73
1
 74
1
 75
1
 44
0.5
 73
0
 45
1.0
 46
1.0
 77
1
  4

 78
1
 79
1
170
1
 48
1.0
171
1
  6

172
1
173
1
174
1
140
1.0
141
1.0
175
1
  7

176
1
177
1
178
1
143
1.0
179
1
  8

270
1
271
1
272
1
145
1.0
146
1.0
273
1
  9

274
1
275
1
276
1
 42
1.0
 72
1
  3

 73
1
 74
1
 75
1
 94
63
  0
MATERIAL
  5
20
102
{ACAD_REACTORS
330
E
102
}
330
E
100
AcDbMaterial
  1
ByLayer
  2

 70
0
 40
1.0
 71
1
 41
1.0
 91
-1023410177
 42
1.0
 72
1
  3

 73
1
 74
1
 75
1
 44
0.5
 73
0
 45
1.0
 46
1.0
 77
1
  4

 78
1
 79
1
170
1
 48
1.0
171
1
  6

172
1
173
1
174
1
140
1.0
141
1.0
175
1
  7

176
1
177
1
178
1
143
1.0
179
1
  8

270
1
271
1
272
1
145
1.0
146
1.0
273
1
  9

274
1
275
1
276
1
 42
1.0
 72
1
  3

 73
1
 74
1
 75
1
 94
63
  0
MATERIAL
  5
21
102
{ACAD_REACTORS
330
E
102
}
330
E
100
AcDbMaterial
  1
Global
  2

 70
0
 40
1.0
 71
1
 41
1.0
 91
-1023410177
 42
1.0
 72
1
  3

 73
1
 74
1
 75
1
 44
0.5
 73
0
 45
1.0
 46
1.0
 77
1
  4

 78
1
 79
1
170
1
 48
1.0
171
1
  6

172
1
173
1
174
1
140
1.0
141
1.0
175
1
  7

176
1
177
1
178
1
143
1.0
179
1
  8

270
1
271
1
272
1
145
1.0
146
1.0
273
1
  9

274
1
275
1
276
1
 42
1.0
 72
1
  3

 73
1
 74
1
 75
1
 94
63
  0
MLINESTYLE
  5
22
102
{ACAD_REACTORS
330
10
102
}
330
10
100
AcDbMlineStyle
  2
Standard
 70
0
  3

 62
256
 51
90.0
 52
90.0
 71
2
 49
0.5
 62
256
  6
BYLAYER
 49
-0.5
 62
256
  6
BYLAYER
  0
MLEADERSTYLE
  5
2C
102
{ACAD_REACTORS
330
F
102
}
330
F
100
AcDbMLeaderStyle
179
2
170
2
171
1
172
0
 90
2
 40
0.0
 41
0.0
173
1
 91
-1056964608
 92
-2
290
1
 42
2.0
291
1
 43
8.0
  3
Standard
 44
4.0
300

342
29
174
1
175
1
176
0
178
1
 93
-1056964608
 45
4.0
292
0
297
0
 46
4.0
 94
-1056964608
 47
1.0
 49
1.0
140
1.0
294
1
141
0.0
177
0
142
1.0
295
0
296
0
143
3.75
271
0
272
9
273
9
  0
DICTIONARY
  5
2D
330
A
100
AcDbDictionary
280
1
281
1
  3
CREATED_BY_EZDXF
350
2E
  3
WRITTEN_BY_EZDXF
350
39
  0
DICTIONARYVAR
  5
2E
330
2D
100
DictionaryVariables
280
0
  1
1.3.5 @ 2025-03-12T13:19:47.599882+00:00
  0
DICTIONARYVAR
  5
39
330
2D
100
DictionaryVariables
280
0
  1
1.3.5 @ 2025-03-12T13:19:47.616881+00:00
  0
ENDSEC
  0
EOF
